STARTFONT 2.3
FONT -FontForge-Bungee Shade-Book-R-Normal--14-140-72-72-P-120-ISO10646-1
SIZE 14 72 72  4
FONTBOUNDINGBOX 37 36 -9 -13
COMMENT "Generated by fontforge, http://fontforge.sourceforge.net"
COMMENT "Copyright 2008 The Bungee Project Authors (david@djr.com)"
STARTPROPERTIES 40
FOUNDRY "FontForge"
FAMILY_NAME "Bungee Shade"
WEIGHT_NAME "Book"
SLANT "R"
SETWIDTH_NAME "Normal"
ADD_STYLE_NAME ""
PIXEL_SIZE 14
POINT_SIZE 140
RESOLUTION_X 72
RESOLUTION_Y 72
SPACING "P"
AVERAGE_WIDTH 120
CHARSET_REGISTRY "ISO10646"
CHARSET_ENCODING "1"
FONTNAME_REGISTRY ""
CHARSET_COLLECTIONS "ISO8859-2 ISO8859-9 ISO8859-4 ISO10646-1"
BITS_PER_PIXEL 4
FONT_NAME "BungeeShade-Regular"
FACE_NAME "Bungee Shade"
COPYRIGHT "Copyright 2008 The Bungee Project Authors (david@djr.com)"
FONT_VERSION "1.000;PS 1.0;hotconv 1.0.72;makeotf.lib2.5.5900"
FONT_ASCENT 12
FONT_DESCENT 2
UNDERLINE_POSITION 0
UNDERLINE_THICKNESS 0
X_HEIGHT 10
CAP_HEIGHT 10
RAW_ASCENT 860
RAW_DESCENT 140
NORM_SPACE 5
RELATIVE_WEIGHT 40
RELATIVE_SETWIDTH 50
SUPERSCRIPT_X 0
SUPERSCRIPT_Y 4
SUPERSCRIPT_SIZE 8
SUBSCRIPT_X 0
SUBSCRIPT_Y 1
SUBSCRIPT_SIZE 8
AVG_LOWERCASE_WIDTH 115
AVG_UPPERCASE_WIDTH 118
ENDPROPERTIES
CHARS 1065
STARTCHAR space
ENCODING 32
SWIDTH 325 0
DWIDTH 5 0
BBX 1 1 0 0
BITMAP
00
ENDCHAR
STARTCHAR exclam
ENCODING 33
SWIDTH 524 0
DWIDTH 7 0
BBX 7 13 0 -2
BITMAP
00522220
06C00020
2FC02020
2FD02020
2FD02020
1FE02020
1FE00020
0FF65520
0DE98510
0AC01020
2FC00020
2FFBBA20
1EFFC200
ENDCHAR
STARTCHAR quotedbl
ENCODING 34
SWIDTH 746 0
DWIDTH 10 0
BBX 11 8 0 3
BITMAP
035225722320
4E4115902020
AF5115A02020
AF5116A02110
9F5006A00110
9F7007B00200
9FFFEFFFF500
5BCA3BCB4000
ENDCHAR
STARTCHAR numbersign
ENCODING 35
SWIDTH 850 0
DWIDTH 12 0
BBX 12 13 0 -2
BITMAP
000352315230
003E203C3020
00A812481222
1B9024222412
5F9011001102
5FF820B920A3
3DA520852041
2D1142224202
CF2020002002
DFC125B22471
BFF008F10400
0EFCADFCA200
0EFC2DFD2000
ENDCHAR
STARTCHAR dollar
ENCODING 36
SWIDTH 750 0
DWIDTH 11 0
BBX 11 15 0 -3
BITMAP
000022230000
000220202300
001000200200
075022321300
4F5216FFD200
9F5200023200
9F9022100110
9FF941122020
4FFFFFC02020
066000002020
3E5122321110
9F7110204200
9FFFB0034000
8FFFFBB50000
002FFE500000
ENDCHAR
STARTCHAR percent
ENCODING 37
SWIDTH 1131 0
DWIDTH 16 0
BBX 16 13 0 -2
BITMAP
0022222042220000
0642220590020000
5F32412C62200000
BF32C32C22200000
BF32612B02223330
BF42220811812213
BFC3017721920022
7FFFFDF424826822
07BB78F028826822
00000BC02B922322
00000E900ED22222
00003FECAFFFCC50
00005FF70AEFD500
ENDCHAR
STARTCHAR ampersand
ENCODING 38
SWIDTH 866 0
DWIDTH 12 0
BBX 13 13 0 -2
BITMAP
00023222220000
00450000020000
04F21222020000
0BF120CF900000
0DF32026000000
0CF63305300100
0A62001B421020
6F220BFF420310
BF220234020300
CF402222210100
BFB10000002000
6FFECBBBB70000
08EFFFFD700000
ENDCHAR
STARTCHAR quotesingle
ENCODING 39
SWIDTH 456 0
DWIDTH 6 0
BBX 6 8 0 3
BITMAP
026224
2D6022
8F7022
8F7022
7F7002
7F9002
7FFFE3
4BCB20
ENDCHAR
STARTCHAR parenleft
ENCODING 40
SWIDTH 529 0
DWIDTH 7 0
BBX 8 15 0 -2
BITMAP
00012230
00410002
07703202
5F520360
9F420510
AF420200
AF420200
AF420200
AF420200
AF420200
AF520120
AF811002
9FE32202
4FFFDB70
06CFF800
ENDCHAR
STARTCHAR parenright
ENCODING 41
SWIDTH 529 0
DWIDTH 7 0
BBX 8 15 0 -2
BITMAP
00322200
0A400130
9F413130
BF830211
AFFB0211
39FB0211
03FB0211
03FB0211
03FB0211
03FB0211
03FA0211
06400230
7F412230
BFDBC400
9FEA2000
ENDCHAR
STARTCHAR asterisk
ENCODING 42
SWIDTH 818 0
DWIDTH 11 0
BBX 11 11 0 0
BITMAP
000026232000
0004E7111100
008278223230
09A020202120
1FA202531140
5FFFA1235D30
39CC12311300
009900D40310
06FFB9FC7300
04EFC9FC2000
002811700000
ENDCHAR
STARTCHAR plus
ENCODING 43
SWIDTH 834 0
DWIDTH 12 0
BBX 12 11 0 -1
BITMAP
000003221000
000096002000
0007F6202000
003693203230
079022422111
4F9000200021
5FEBB420AB60
4FFFF620D700
0008F6002000
0008FDB71000
0007FFA00000
ENDCHAR
STARTCHAR comma
ENCODING 44
SWIDTH 484 0
DWIDTH 7 0
BBX 7 9 0 -4
BITMAP
00322210
08600020
7F612120
8F600220
8FD93220
6F912100
4FD98100
5FFB1000
01000000
ENDCHAR
STARTCHAR hyphen
ENCODING 45
SWIDTH 520 0
DWIDTH 7 0
BBX 8 5 0 2
BITMAP
01322220
2C312211
BF300011
CFDBBB80
AFFFF800
ENDCHAR
STARTCHAR period
ENCODING 46
SWIDTH 484 0
DWIDTH 7 0
BBX 7 6 0 -2
BITMAP
00322210
1A600020
8F602020
8F601020
8FDBB910
7FFFB100
ENDCHAR
STARTCHAR slash
ENCODING 47
SWIDTH 487 0
DWIDTH 7 0
BBX 7 16 0 -3
BITMAP
00022220
00590020
03F71120
06F52020
08F32020
0AF12020
0CE02020
0EC02200
1FA02200
3F802200
5F620200
7F420200
9F210200
BF101200
DFFF6000
9BB40000
ENDCHAR
STARTCHAR zero
ENCODING 48
SWIDTH 827 0
DWIDTH 12 0
BBX 12 13 0 -2
BITMAP
000222222310
005112222030
098030001220
4F6114FA0202
7F6116FC0202
8F6114FC0202
8F6114FC0202
8F6114FC0202
8F7031531211
8FA013333020
6FF710000320
1DFFFDCCD300
029DFFD92000
ENDCHAR
STARTCHAR one
ENCODING 49
SWIDTH 701 0
DWIDTH 10 0
BBX 10 13 0 -2
BITMAP
0062222300
0A80000200
5F80231200
6FC5211200
6FFF511200
16BF511200
009F511200
009F511200
0079311222
1B41232202
9F40000002
AFDBBBBBA3
8FFFFFFD20
ENDCHAR
STARTCHAR two
ENCODING 50
SWIDTH 739 0
DWIDTH 10 0
BBX 10 13 0 -2
BITMAP
0062222231
0AB0000002
4FB0222202
4FFCCC6022
2FFFC61022
0032002212
0561220041
4F32028B20
AF32058422
CF31222212
CF30000002
CFCBBBBBB5
AFFFFFFF60
ENDCHAR
STARTCHAR three
ENCODING 51
SWIDTH 737 0
DWIDTH 10 0
BBX 11 13 0 -2
BITMAP
025222222000
3E4000002000
AF5122210200
AFFFFC021100
6CD921023000
02D712330300
08F811002200
08FFFFC02110
068333202110
2E4122220200
AF5000001100
AFDBBBBB5000
8FFFFFC40000
ENDCHAR
STARTCHAR four
ENCODING 52
SWIDTH 809 0
DWIDTH 11 0
BBX 11 13 0 -2
BITMAP
016223052230
1C7002960020
7F7025F61120
7F7025F61120
7F7025F61120
7F7024E61120
7F8020001120
7FA022223120
5FF610001120
1EFFFFF61120
039BCDF60020
000008FDBA20
000007FFD300
ENDCHAR
STARTCHAR five
ENCODING 53
SWIDTH 747 0
DWIDTH 10 0
BBX 11 13 0 -2
BITMAP
016222222300
1C8000000200
6F8032221300
6F8024EED200
6F8020002300
6F8032221110
6F9111002020
6FFFFFD02020
3C9333202020
2D6122221110
8F6000001200
8FDBBBBB6000
7FFFFFC50000
ENDCHAR
STARTCHAR six
ENCODING 54
SWIDTH 793 0
DWIDTH 11 0
BBX 11 13 0 -2
BITMAP
000322222300
007022221200
0A8030000300
4F6025FFD200
7F6021101210
8F6031222030
8F6030001120
8F6025F60220
8F7024E52120
8FA012222020
6FF710000310
1EFFFCCCB100
029DFFD70000
ENDCHAR
STARTCHAR seven
ENCODING 55
SWIDTH 727 0
DWIDTH 10 0
BBX 10 13 0 -2
BITMAP
0442222223
4E20000002
CF21222212
CFDBBB5022
AFFFFD5022
0002300112
0046012202
03F3210550
0AF2208700
0CF2202000
0CF2002000
0CFCBA2000
0AFFC20000
ENDCHAR
STARTCHAR eight
ENCODING 56
SWIDTH 811 0
DWIDTH 11 0
BBX 12 13 0 -2
BITMAP
000222222200
005312221120
05E020002020
0EE023F62020
0FF322A42120
0ED234344120
0B6210000220
4F4208FA0211
9F4217D90221
AF6022222020
9FE400000320
4FFFECCCD400
04BEFFD92000
ENDCHAR
STARTCHAR nine
ENCODING 57
SWIDTH 793 0
DWIDTH 11 0
BBX 11 13 0 -2
BITMAP
000222222200
016022221120
1C5110003020
7F4207E42020
AF4207F42020
AF7110003020
9FE532223020
5FFFFFF42020
05C600002020
03E512221030
09F500000300
09FDBBBB9100
08FFFFD70000
ENDCHAR
STARTCHAR colon
ENCODING 58
SWIDTH 484 0
DWIDTH 7 0
BBX 7 12 0 -2
BITMAP
00322210
07600020
6F602020
8F601020
8F600020
8FC99710
8FC88310
1B600020
8F602020
8F601020
8FDBB910
7FFFB100
ENDCHAR
STARTCHAR semicolon
ENCODING 59
SWIDTH 484 0
DWIDTH 7 0
BBX 7 14 0 -4
BITMAP
00322210
0A600020
7F602020
8F601020
8FC99810
8FC99410
1B600020
6F612120
8F600220
8FD93220
6F912100
4FD98100
5FFB1000
01000000
ENDCHAR
STARTCHAR less
ENCODING 60
SWIDTH 814 0
DWIDTH 11 0
BBX 11 11 0 -1
BITMAP
000000000210
000002222020
000321022020
008022201420
0BB0227BE400
2FB021684000
3FE122200220
2FFC61022020
0BFFFFC83020
0048DFFFFB10
0000026AA100
ENDCHAR
STARTCHAR equal
ENCODING 61
SWIDTH 834 0
DWIDTH 12 0
BBX 12 9 0 0
BITMAP
003222222230
089022222111
5FA222222240
5FFFFFFFFE50
29B888888530
079022222111
4F9000000021
5FEBBBBBBB60
4FFFFFFFF700
ENDCHAR
STARTCHAR greater
ENCODING 62
SWIDTH 814 0
DWIDTH 11 0
BBX 11 11 0 -1
BITMAP
008CA6100000
0AD036AB7100
1FD012224930
1FE510003140
0DFFFC830220
003AFB722110
009412221000
0BD021014000
1FD027BB2000
1FFCA6100000
074000000000
ENDCHAR
STARTCHAR question
ENCODING 63
SWIDTH 756 0
DWIDTH 11 0
BBX 11 13 0 -2
BITMAP
035222223200
3E4000000210
AF4122221020
BFDBBBA02020
9FFB64102020
00A612222110
08F900025400
07FEBDFF6000
05F600240000
05F501110000
09F600110000
09FDBB500000
07FFF6000000
ENDCHAR
STARTCHAR at
ENCODING 64
SWIDTH 967 0
DWIDTH 14 0
BBX 14 16 0 -3
BITMAP
00001222222000
00031000000310
01817EFFFFA230
0B84CCEEEEE730
4F744432226841
7F74B203125841
8F74A21F525841
8F74A21F525841
8F74A21F525740
8F74B200023330
8F74E232232310
7F92BEBAAAA300
5FE42578885000
1EFE8532223000
05EFFFFFFE4000
0017ABBBB30000
ENDCHAR
STARTCHAR A
ENCODING 65
SWIDTH 830 0
DWIDTH 12 0
BBX 12 13 0 -2
BITMAP
000132222200
000800000200
006702230110
00E211512020
05C020E52020
0B8014F90211
1F6110000202
6F5222222302
8F5200000202
9F5208FE0202
9F6107FE0102
9FDBB4FFBB60
7FFD30EFF800
ENDCHAR
STARTCHAR B
ENCODING 66
SWIDTH 825 0
DWIDTH 12 0
BBX 12 13 0 -2
BITMAP
016222222200
1C9000000120
5F9032221020
6F9024F62020
6F9023932210
6F9042234230
6F9020000302
6F9024FE1202
6F9023BB0202
6F9032222102
6F9000000020
6FEBBBBBB900
4FFFFFFD8000
ENDCHAR
STARTCHAR C
ENCODING 67
SWIDTH 728 0
DWIDTH 10 0
BBX 10 13 0 -2
BITMAP
0003222223
0071000002
0980222212
4F6022BBB4
7F6116FE50
8F61120000
8F61120000
8F61120000
8F70212222
7FA0222212
5FF6000002
0DFFECBBB5
03BEFFFE50
ENDCHAR
STARTCHAR D
ENCODING 68
SWIDTH 846 0
DWIDTH 12 0
BBX 12 13 0 -2
BITMAP
016222222320
1C9000000021
5F9032223102
6F9021320202
6F9024FF1202
6F9023FF1202
6F9022DF1202
6F9022DF1202
6F9021870202
6F9032222111
6F9000000120
6FEBBBBBC600
4FFFFFEC4000
ENDCHAR
STARTCHAR E
ENCODING 69
SWIDTH 754 0
DWIDTH 11 0
BBX 11 13 0 -2
BITMAP
016222222220
1C9000000020
5F9032222020
6F9024FFF700
6F9021224100
6F9042221100
6F9020001100
6F9023BB5000
6F9022872210
6F9032222020
6F9000000020
6FEBBBBBB710
4FFFFFFF9000
ENDCHAR
STARTCHAR F
ENCODING 70
SWIDTH 718 0
DWIDTH 10 0
BBX 10 13 0 -2
BITMAP
0162222223
1C90000002
5F90322212
6F90228884
6F9024FF90
6F90200020
6F90322120
6F90200020
6F9024FD20
6F90239100
6F90020000
6FEBB50000
4FFE500000
ENDCHAR
STARTCHAR G
ENCODING 71
SWIDTH 808 0
DWIDTH 11 0
BBX 11 13 0 -2
BITMAP
000322222300
007100000200
098022221200
4F6023BBB400
7F6116FF6000
8F6112032220
8F6112890020
8F6115F90220
8F7030320220
7FA022222120
5FF600000020
0DFFECBBBB40
03BEFFFFE500
ENDCHAR
STARTCHAR H
ENCODING 72
SWIDTH 859 0
DWIDTH 12 0
BBX 12 13 0 -2
BITMAP
016223034222
1C90023E1002
5F9022CF1202
6F9022DF1202
6F9021881202
6F9042222402
6F9020000202
6F9023BB1202
6F9024FF1202
6F9022DF1202
6F9002DF2002
6FEBB3DFCB81
4FFE40BFFB10
ENDCHAR
STARTCHAR I
ENCODING 73
SWIDTH 705 0
DWIDTH 10 0
BBX 10 13 0 -2
BITMAP
0152222222
1D50000002
8F51232202
9FA6120351
9FFF420730
25CF420200
00BF420200
00BF420200
0088220221
0A51232202
8F60000002
9FDBBBBB91
7FFFFFFC10
ENDCHAR
STARTCHAR J
ENCODING 74
SWIDTH 788 0
DWIDTH 11 0
BBX 11 13 0 -2
BITMAP
000000342220
000004E21020
00000CF22020
00000CF22020
00000CF22020
01322DF22020
1C300CF22020
BF320BF12020
CF3211203020
BF6023230020
9FE400001300
4FFFECCD7000
04BEFEB50000
ENDCHAR
STARTCHAR K
ENCODING 75
SWIDTH 846 0
DWIDTH 12 0
BBX 12 13 0 -2
BITMAP
016223032231
1C9002560020
5F9023E12020
6F9024902200
6F9021120220
6F9042232102
6F9020000202
6F9024ED0202
6F9024FF1202
6F9022EF1202
6F9002DF1002
6FEBB4DFCB81
4FFE50CFFA00
ENDCHAR
STARTCHAR L
ENCODING 76
SWIDTH 795 0
DWIDTH 11 0
BBX 11 13 0 -2
BITMAP
016223000000
1C9012000000
5F9022000000
6F9022000000
6F9022000000
6F9022032220
6F90227A0020
6F9024FA0220
6F9021320220
6F9032222120
6F9000000020
6FEBBBBBBB40
4FFFFFFFE400
ENDCHAR
STARTCHAR M
ENCODING 77
SWIDTH 949 0
DWIDTH 13 0
BBX 13 13 0 -2
BITMAP
01622210132230
1C900011800020
5F903119513020
6F90230A032020
6F902030302020
6F902112112020
6F902530352020
6F9025D7C52020
6F9025FCF52020
6F902329F52020
6F900209F60020
6FEBB309FDBA20
4FFE4007FFD200
ENDCHAR
STARTCHAR N
ENCODING 78
SWIDTH 853 0
DWIDTH 12 0
BBX 12 13 0 -2
BITMAP
016222033222
1C90002D1002
5F90504F1202
6F9023081202
6F9020300202
6F9020120202
6F9024311202
6F9025D12302
6F9025FB0302
6F9025FF1202
6F9003EF1002
6FEBB4DFCB70
4FFE40CFFA00
ENDCHAR
STARTCHAR O
ENCODING 79
SWIDTH 837 0
DWIDTH 12 0
BBX 12 13 0 -2
BITMAP
000222222310
005112222030
098020000202
4F6114FC0202
7F6116FE0202
8F6112FE0202
8F6112FE0202
8F6112FE0202
8F7031530202
8FA013333011
6FF710000330
1DFFFDCCD400
019DFFDA2000
ENDCHAR
STARTCHAR P
ENCODING 80
SWIDTH 782 0
DWIDTH 11 0
BBX 11 13 0 -2
BITMAP
016222222300
1C9000000030
5F9032222020
6F9021411220
6F9024F90220
6F9024F81220
6F9042222020
6F9020000210
6F9023BBA200
6F9024E91000
6F9002000000
6FEBB4000000
4FFE50000000
ENDCHAR
STARTCHAR Q
ENCODING 81
SWIDTH 837 0
DWIDTH 12 0
BBX 12 14 0 -3
BITMAP
000222222310
005012222020
098020000202
5F6114FC0202
7F6116FE0202
8F6112FE0202
8F6112FE0202
8F6112FE0202
8F8031640202
7FD113322040
5FFD71104830
0BFFF3008200
017EFDB91000
000AFFC10000
ENDCHAR
STARTCHAR R
ENCODING 82
SWIDTH 843 0
DWIDTH 12 0
BBX 12 13 0 -2
BITMAP
016222223300
1C9000000020
5F9032221020
6F9024D42020
6F9024F52020
6F9020002140
6F9042223102
6F9020000202
6F9024FF3202
6F9023EF4202
6F9002BF4002
6FEBB4BFDB92
4FFE509FFC20
ENDCHAR
STARTCHAR S
ENCODING 83
SWIDTH 750 0
DWIDTH 11 0
BBX 11 13 0 -2
BITMAP
001322222300
017000000200
1D6022221300
7F5216FFD200
9F5200134300
9F9022100210
8FF831122020
3FFFFFC02020
066000002020
3E5122221010
9F5000001200
9FDBBBBC6000
8FFFFFC50000
ENDCHAR
STARTCHAR T
ENCODING 84
SWIDTH 756 0
DWIDTH 11 0
BBX 11 13 0 -2
BITMAP
053222222220
6F0000000020
EF0222322020
EFCB6022B910
CFFF8022C100
006F80220000
006F80220000
006F80220000
006F80220000
006F80220000
006F90020000
006FEBB40000
004FFF500000
ENDCHAR
STARTCHAR U
ENCODING 85
SWIDTH 846 0
DWIDTH 12 0
BBX 12 13 0 -2
BITMAP
016223053222
1C80126F0102
6F8022EF0202
7F8022EF0202
7F8022EF0202
7F8022EF0202
7F8022EF0202
7F8022EE0202
7F8030000202
6FB013322011
4FF810000320
0CFFFDCCD400
018DFFDA3000
ENDCHAR
STARTCHAR V
ENCODING 86
SWIDTH 830 0
DWIDTH 12 0
BBX 12 13 0 -2
BITMAP
025223062222
2D50129D0102
9F5113FD0202
9F5113FD0202
9F5113FD0202
9F6023FB0202
9FA020E61220
7FE120722020
3FF602002020
0CFB02230200
07FF20000200
01FFDBBB7000
00AFFFF90000
ENDCHAR
STARTCHAR W
ENCODING 87
SWIDTH 931 0
DWIDTH 13 0
BBX 13 13 0 -2
BITMAP
01622300152220
2D700201C50020
7F702208F52020
8F70220AF52020
8F702237D52020
8F702530452020
8F702212122020
8F702020202020
7FA0220A122020
6FE1223F121100
2FF5007F500200
0CFEB9CFEB8100
06FFC27FFB1000
ENDCHAR
STARTCHAR X
ENCODING 88
SWIDTH 837 0
DWIDTH 12 0
BBX 12 13 0 -2
BITMAP
016223053222
2D70024E0002
7F7021EC0202
7FC020941220
6FF712002120
1EFE02230300
05F702002120
02C020721120
0B7023FB0202
5F7116FE0202
7F7004FE0002
8FEBA3FFCB70
6FFE30DFF900
ENDCHAR
STARTCHAR Y
ENCODING 89
SWIDTH 805 0
DWIDTH 11 0
BBX 11 13 0 -2
BITMAP
035222062230
3E41029B0120
AF4205FB0220
BF4205FB0220
BF4113F60220
AFA030602030
8FF412021210
2EFD11320200
06FF90203000
00BFE0202000
002FE0002000
000FFBB81000
000EFFA10000
ENDCHAR
STARTCHAR Z
ENCODING 90
SWIDTH 760 0
DWIDTH 11 0
BBX 11 13 0 -2
BITMAP
016222222310
1C8000000110
6F8022222110
7FEBB8012210
5FFFE2030300
000750303000
004802021000
01A021120000
0B4120222210
7F4122222020
AF4000000020
AFDBBBBBB810
9FFFFFFFA100
ENDCHAR
STARTCHAR bracketleft
ENCODING 91
SWIDTH 529 0
DWIDTH 7 0
BBX 8 15 0 -2
BITMAP
00322230
1B400002
9F422202
AF420460
AF420510
AF420200
AF420200
AF420200
AF420200
AF420200
AF420220
AF420002
AF412202
AFDBBB70
8FFFF800
ENDCHAR
STARTCHAR backslash
ENCODING 92
SWIDTH 487 0
DWIDTH 7 0
BBX 7 16 0 -3
BITMAP
01222000
2D000200
DF220200
DF420200
BF620200
9F902200
7FB02200
5FD02200
3FF02020
1FF22020
0EF42020
0CF62020
0AF80120
08FB0030
06FFFD30
02BBA200
ENDCHAR
STARTCHAR bracketright
ENCODING 93
SWIDTH 529 0
DWIDTH 7 0
BBX 8 15 0 -2
BITMAP
00322230
0A400011
9F412311
BF840211
AFFB0211
38FB0211
03FB0211
03FB0211
03FB0211
03FB0211
03FB0211
06400211
7F412211
BFDBBB70
9FFFF700
ENDCHAR
STARTCHAR asciicircum
ENCODING 94
SWIDTH 814 0
DWIDTH 11 0
BBX 11 10 0 1
BITMAP
000032223000
001A02222100
00B911020200
03F520702200
07F122E02200
0BC026F32020
0E821AF72020
4F400CFB0020
8FDC76FFCB40
AFF802EFE400
ENDCHAR
STARTCHAR underscore
ENCODING 95
SWIDTH 834 0
DWIDTH 12 0
BBX 12 5 0 -3
BITMAP
003222222230
089022222111
5F9000000021
5FEBBBBBBB70
4FFFFFFFF800
ENDCHAR
STARTCHAR grave
ENCODING 96
SWIDTH 600 0
DWIDTH 8 0
BBX 9 6 0 8
BITMAP
0132222000
2C31200210
BF51022020
CFFFECA710
59BDFFB100
0000010000
ENDCHAR
STARTCHAR a
ENCODING 97
SWIDTH 830 0
DWIDTH 12 0
BBX 12 13 0 -2
BITMAP
000132222200
000800000200
006702230110
00E211512020
05C020E52020
0B8014F90211
1F6110000202
6F5222222302
8F5200000202
9F5208FE0202
9F6107FE0102
9FDBB4FFBB60
7FFD30EFF800
ENDCHAR
STARTCHAR b
ENCODING 98
SWIDTH 825 0
DWIDTH 12 0
BBX 12 13 0 -2
BITMAP
016222222200
1C9000000120
5F9032221020
6F9024F62020
6F9023932210
6F9042234230
6F9020000302
6F9024FE1202
6F9023BB0202
6F9032222102
6F9000000020
6FEBBBBBB900
4FFFFFFD8000
ENDCHAR
STARTCHAR c
ENCODING 99
SWIDTH 728 0
DWIDTH 10 0
BBX 10 13 0 -2
BITMAP
0003222223
0071000002
0980222212
4F6022BBB4
7F6116FE50
8F61120000
8F61120000
8F61120000
8F70212222
7FA0222212
5FF6000002
0DFFECBBB5
03BEFFFE50
ENDCHAR
STARTCHAR d
ENCODING 100
SWIDTH 846 0
DWIDTH 12 0
BBX 12 13 0 -2
BITMAP
016222222320
1C9000000021
5F9032223102
6F9021320202
6F9024FF1202
6F9023FF1202
6F9022DF1202
6F9022DF1202
6F9021870202
6F9032222111
6F9000000120
6FEBBBBBC600
4FFFFFEC4000
ENDCHAR
STARTCHAR e
ENCODING 101
SWIDTH 754 0
DWIDTH 11 0
BBX 11 13 0 -2
BITMAP
016222222220
1C9000000020
5F9032222020
6F9024FFF700
6F9021224100
6F9042221100
6F9020001100
6F9023BB5000
6F9022872210
6F9032222020
6F9000000020
6FEBBBBBB710
4FFFFFFF9000
ENDCHAR
STARTCHAR f
ENCODING 102
SWIDTH 718 0
DWIDTH 10 0
BBX 10 13 0 -2
BITMAP
0162222223
1C90000002
5F90322212
6F90228884
6F9024FF90
6F90200020
6F90322120
6F90200020
6F9024FD20
6F90239100
6F90020000
6FEBB50000
4FFE500000
ENDCHAR
STARTCHAR g
ENCODING 103
SWIDTH 808 0
DWIDTH 11 0
BBX 11 13 0 -2
BITMAP
000322222300
007100000200
098022221200
4F6023BBB400
7F6116FF6000
8F6112032220
8F6112890020
8F6115F90220
8F7030320220
7FA022222120
5FF600000020
0DFFECBBBB40
03BEFFFFE500
ENDCHAR
STARTCHAR h
ENCODING 104
SWIDTH 859 0
DWIDTH 12 0
BBX 12 13 0 -2
BITMAP
016223034222
1C90023E1002
5F9022CF1202
6F9022DF1202
6F9021881202
6F9042222402
6F9020000202
6F9023BB1202
6F9024FF1202
6F9022DF1202
6F9002DF2002
6FEBB3DFCB81
4FFE40BFFB10
ENDCHAR
STARTCHAR i
ENCODING 105
SWIDTH 705 0
DWIDTH 10 0
BBX 10 13 0 -2
BITMAP
0152222222
1D50000002
8F51232202
9FA6120351
9FFF420730
25CF420200
00BF420200
00BF420200
0088220221
0A51232202
8F60000002
9FDBBBBB91
7FFFFFFC10
ENDCHAR
STARTCHAR j
ENCODING 106
SWIDTH 788 0
DWIDTH 11 0
BBX 11 13 0 -2
BITMAP
000000342220
000004E21020
00000CF22020
00000CF22020
00000CF22020
01322DF22020
1C300CF22020
BF320BF12020
CF3211203020
BF6023230020
9FE400001300
4FFFECCD7000
04BEFEB50000
ENDCHAR
STARTCHAR k
ENCODING 107
SWIDTH 846 0
DWIDTH 12 0
BBX 12 13 0 -2
BITMAP
016223032231
1C9002560020
5F9023E12020
6F9024902200
6F9021120220
6F9042232102
6F9020000202
6F9024ED0202
6F9024FF1202
6F9022EF1202
6F9002DF1002
6FEBB4DFCB81
4FFE50CFFA00
ENDCHAR
STARTCHAR l
ENCODING 108
SWIDTH 795 0
DWIDTH 11 0
BBX 11 13 0 -2
BITMAP
016223000000
1C9012000000
5F9022000000
6F9022000000
6F9022000000
6F9022032220
6F90227A0020
6F9024FA0220
6F9021320220
6F9032222120
6F9000000020
6FEBBBBBBB40
4FFFFFFFE400
ENDCHAR
STARTCHAR m
ENCODING 109
SWIDTH 949 0
DWIDTH 13 0
BBX 13 13 0 -2
BITMAP
01622210132230
1C900011800020
5F903119513020
6F90230A032020
6F902030302020
6F902112112020
6F902530352020
6F9025D7C52020
6F9025FCF52020
6F902329F52020
6F900209F60020
6FEBB309FDBA20
4FFE4007FFD200
ENDCHAR
STARTCHAR n
ENCODING 110
SWIDTH 853 0
DWIDTH 12 0
BBX 12 13 0 -2
BITMAP
016222033222
1C90002D1002
5F90504F1202
6F9023081202
6F9020300202
6F9020120202
6F9024311202
6F9025D12302
6F9025FB0302
6F9025FF1202
6F9003EF1002
6FEBB4DFCB70
4FFE40CFFA00
ENDCHAR
STARTCHAR o
ENCODING 111
SWIDTH 837 0
DWIDTH 12 0
BBX 12 13 0 -2
BITMAP
000222222310
005112222030
098020000202
4F6114FC0202
7F6116FE0202
8F6112FE0202
8F6112FE0202
8F6112FE0202
8F7031530202
8FA013333011
6FF710000330
1DFFFDCCD400
019DFFDA2000
ENDCHAR
STARTCHAR p
ENCODING 112
SWIDTH 782 0
DWIDTH 11 0
BBX 11 13 0 -2
BITMAP
016222222300
1C9000000030
5F9032222020
6F9021411220
6F9024F90220
6F9024F81220
6F9042222020
6F9020000210
6F9023BBA200
6F9024E91000
6F9002000000
6FEBB4000000
4FFE50000000
ENDCHAR
STARTCHAR q
ENCODING 113
SWIDTH 837 0
DWIDTH 12 0
BBX 12 14 0 -3
BITMAP
000222222310
005012222020
098020000202
5F6114FC0202
7F6116FE0202
8F6112FE0202
8F6112FE0202
8F6112FE0202
8F8031640202
7FD113322040
5FFD71104830
0BFFF3008200
017EFDB91000
000AFFC10000
ENDCHAR
STARTCHAR r
ENCODING 114
SWIDTH 843 0
DWIDTH 12 0
BBX 12 13 0 -2
BITMAP
016222223300
1C9000000020
5F9032221020
6F9024D42020
6F9024F52020
6F9020002140
6F9042223102
6F9020000202
6F9024FF3202
6F9023EF4202
6F9002BF4002
6FEBB4BFDB92
4FFE509FFC20
ENDCHAR
STARTCHAR s
ENCODING 115
SWIDTH 750 0
DWIDTH 11 0
BBX 11 13 0 -2
BITMAP
001322222300
017000000200
1D6022221300
7F5216FFD200
9F5200134300
9F9022100210
8FF831122020
3FFFFFC02020
066000002020
3E5122221010
9F5000001200
9FDBBBBC6000
8FFFFFC50000
ENDCHAR
STARTCHAR t
ENCODING 116
SWIDTH 756 0
DWIDTH 11 0
BBX 11 13 0 -2
BITMAP
053222222220
6F0000000020
EF0222322020
EFCB6022B910
CFFF8022C100
006F80220000
006F80220000
006F80220000
006F80220000
006F80220000
006F90020000
006FEBB40000
004FFF500000
ENDCHAR
STARTCHAR u
ENCODING 117
SWIDTH 846 0
DWIDTH 12 0
BBX 12 13 0 -2
BITMAP
016223053222
1C80126F0102
6F8022EF0202
7F8022EF0202
7F8022EF0202
7F8022EF0202
7F8022EF0202
7F8022EE0202
7F8030000202
6FB013322011
4FF810000320
0CFFFDCCD400
018DFFDA3000
ENDCHAR
STARTCHAR v
ENCODING 118
SWIDTH 830 0
DWIDTH 12 0
BBX 12 13 0 -2
BITMAP
025223062222
2D50129D0102
9F5113FD0202
9F5113FD0202
9F5113FD0202
9F6023FB0202
9FA020E61220
7FE120722020
3FF602002020
0CFB02230200
07FF20000200
01FFDBBB7000
00AFFFF90000
ENDCHAR
STARTCHAR w
ENCODING 119
SWIDTH 931 0
DWIDTH 13 0
BBX 13 13 0 -2
BITMAP
01622300152220
2D700201C50020
7F702208F52020
8F70220AF52020
8F702237D52020
8F702530452020
8F702212122020
8F702020202020
7FA0220A122020
6FE1223F121100
2FF5007F500200
0CFEB9CFEB8100
06FFC27FFB1000
ENDCHAR
STARTCHAR x
ENCODING 120
SWIDTH 837 0
DWIDTH 12 0
BBX 12 13 0 -2
BITMAP
016223053222
2D70024E0002
7F7021EC0202
7FC020941220
6FF712002120
1EFE02230300
05F702002120
02C020721120
0B7023FB0202
5F7116FE0202
7F7004FE0002
8FEBA3FFCB70
6FFE30DFF900
ENDCHAR
STARTCHAR y
ENCODING 121
SWIDTH 805 0
DWIDTH 11 0
BBX 11 13 0 -2
BITMAP
035222062230
3E41029B0120
AF4205FB0220
BF4205FB0220
BF4113F60220
AFA030602030
8FF412021210
2EFD11320200
06FF90203000
00BFE0202000
002FE0002000
000FFBB81000
000EFFA10000
ENDCHAR
STARTCHAR z
ENCODING 122
SWIDTH 760 0
DWIDTH 11 0
BBX 11 13 0 -2
BITMAP
016222222310
1C8000000110
6F8022222110
7FEBB8012210
5FFFE2030300
000750303000
004802021000
01A021120000
0B4120222210
7F4122222020
AF4000000020
AFDBBBBBB810
9FFFFFFFA100
ENDCHAR
STARTCHAR braceleft
ENCODING 123
SWIDTH 555 0
DWIDTH 8 0
BBX 9 15 -1 -2
BITMAP
0000022210
0001400020
002C022020
00CC020720
01FC020400
02F9020200
03E0214000
0CE0214000
1FF9030200
0DFC020200
03FC020210
02FE120020
01FFA13020
00CFFECA20
002AEFC100
ENDCHAR
STARTCHAR bar
ENCODING 124
SWIDTH 447 0
DWIDTH 6 0
BBX 6 16 0 -3
BITMAP
003222
078002
5F8022
6F8022
6F8022
6F8022
6F8022
6F8022
6F8022
6F8022
6F8022
6F8022
6F8012
6F9002
6FFFC2
3BBA10
ENDCHAR
STARTCHAR braceright
ENCODING 125
SWIDTH 555 0
DWIDTH 8 0
BBX 8 15 0 -2
BITMAP
00322100
0A400130
9F413130
BF820220
AFF90220
3AF90221
05FB0203
05FE7022
02EA0313
02E90220
05F80220
07401230
7F412230
BFDBC400
9FEA2000
ENDCHAR
STARTCHAR asciitilde
ENCODING 126
SWIDTH 834 0
DWIDTH 12 0
BBX 12 5 0 2
BITMAP
001222222230
027022222211
2E9011000030
5FEDFFECBB40
4EBACEFFB200
ENDCHAR
STARTCHAR uni00A0
ENCODING 160
SWIDTH 325 0
DWIDTH 5 0
BBX 1 1 0 0
BITMAP
00
ENDCHAR
STARTCHAR exclamdown
ENCODING 161
SWIDTH 523 0
DWIDTH 7 0
BBX 7 13 0 -2
BITMAP
00622220
07C00020
2FC01020
2FD00020
2FFEDB10
09F00020
0DE02020
0FE02020
0FD02020
1FC02020
2FC00020
2FFBBA20
2FFFC200
ENDCHAR
STARTCHAR cent
ENCODING 162
SWIDTH 728 0
DWIDTH 10 0
BBX 10 14 0 -2
BITMAP
0000132210
0001821032
0011223212
0370200002
2E7112BBB5
6F6116FE50
8F61120000
8F61120000
8F70212222
7FC0123212
4FFA402014
0BFFF300C5
017EFDB930
000AFFB100
ENDCHAR
STARTCHAR sterling
ENCODING 163
SWIDTH 795 0
DWIDTH 11 0
BBX 12 13 -1 -2
BITMAP
000012222220
000410000020
004A01222030
01E9022FFC10
04E20215B100
05D002011000
0BE002025222
1FF9024FA012
0CF902122022
06F903222212
06F900000002
06FEBBBBBBB4
04FFFFFFFE40
ENDCHAR
STARTCHAR currency
ENCODING 164
SWIDTH 921 0
DWIDTH 13 0
BBX 13 13 0 -2
BITMAP
00021000001200
01300222230000
1CC13122312240
8FF90300030500
1DFB119F620200
03FB11BF820200
03FB11BF820200
03FA0326140200
03C12222322110
09700543441030
6FF58FFFFF5400
5FFA7887FFA000
05600000470000
ENDCHAR
STARTCHAR yen
ENCODING 165
SWIDTH 803 0
DWIDTH 11 0
BBX 11 13 0 -2
BITMAP
035222062230
3E31029C0120
AF3204FB0220
BF5105FA0220
BFB021C22020
AFF611011200
4FF900100310
0AE000200020
08E022422020
0FF760206400
0EFFF000A100
012FFCB81000
000DFF900000
ENDCHAR
STARTCHAR brokenbar
ENCODING 166
SWIDTH 447 0
DWIDTH 6 0
BBX 6 16 0 -3
BITMAP
003222
088002
5F8022
6F8022
6F8022
6F8012
6FD993
6FD962
098002
4F8022
6F8022
6F8022
6F8012
6F9002
6FFFC1
3BB910
ENDCHAR
STARTCHAR section
ENCODING 167
SWIDTH 750 0
DWIDTH 11 0
BBX 11 13 0 -2
BITMAP
000222222300
007022221200
0A7120000200
5F5205CDC200
8F5222222200
9F6208E12210
9FA120002020
8FF722224020
4FFDDCB02020
088000002110
2D7122222300
7FEBBBBC6000
6FFFFEC40000
ENDCHAR
STARTCHAR dieresis
ENCODING 168
SWIDTH 600 0
DWIDTH 8 0
BBX 10 5 -1 9
BITMAP
0022234221
05C0147102
1FD0057003
2FFFFFFFC1
1BCB6BC800
ENDCHAR
STARTCHAR copyright
ENCODING 169
SWIDTH 967 0
DWIDTH 14 0
BBX 14 16 0 -3
BITMAP
00001222222000
00031000000210
01817EFFFFA220
0B83DC7555D730
4F74622221C841
7F74E028BBF841
8F74E02CB8F841
8F74E02207F841
8F74E02225E841
8F74F12221C841
8F74FA2000C740
7F92BFFFFEE340
6FE42578722320
2FFE9533347400
06FFFFFFFF6000
0027ABBA720000
ENDCHAR
STARTCHAR ordfeminine
ENCODING 170
SWIDTH 620 0
DWIDTH 9 0
BBX 9 13 0 -2
BITMAP
0024222200
02C1221200
0BA1132200
1F623A2020
5F32350220
AF23222220
CF22460220
CF219F0120
CF75CF6520
CFA7899720
5F21222120
CFCBBBBA30
BFFFFFD200
ENDCHAR
STARTCHAR guillemotleft
ENCODING 171
SWIDTH 912 0
DWIDTH 13 0
BBX 13 10 0 -1
BITMAP
00000221001210
00132102321020
02602208022020
2E520388203510
8F5206C7206300
AF712209022020
9FE7100D820020
4FFFFC8FFFD810
038DFD47CFC200
00002100011000
ENDCHAR
STARTCHAR logicalnot
ENCODING 172
SWIDTH 834 0
DWIDTH 12 0
BBX 12 9 0 -1
BITMAP
002222222230
049000000011
3F9022222211
5FA000000211
5FFFFFFF2211
2BBBBBEF2211
000000CF2021
000000CFCB50
000000AFF700
ENDCHAR
STARTCHAR uni00AD
ENCODING 173
SWIDTH 520 0
DWIDTH 7 0
BBX 8 5 0 2
BITMAP
01322220
2C312211
BF300011
CFDBBB80
AFFFF800
ENDCHAR
STARTCHAR registered
ENCODING 174
SWIDTH 660 0
DWIDTH 9 0
BBX 9 10 0 1
BITMAP
001AFFFB10
0398233C50
2E88283C40
7F88334A40
8F882B3640
8F881E3640
8F98EFE840
7FE8555610
2EFFFFC200
0279960000
ENDCHAR
STARTCHAR macron
ENCODING 175
SWIDTH 600 0
DWIDTH 8 0
BBX 9 5 0 9
BITMAP
0032222200
1B31222020
AF30000120
CFFFFFF700
7CCCCB5000
ENDCHAR
STARTCHAR degree
ENCODING 176
SWIDTH 583 0
DWIDTH 8 0
BBX 8 9 0 2
BITMAP
00332232
07522222
6F42AA22
AF42AA22
BF420022
BF722222
9FFB9970
2CFFF800
00120000
ENDCHAR
STARTCHAR plusminus
ENCODING 177
SWIDTH 834 0
DWIDTH 12 0
BBX 12 13 0 -2
BITMAP
000015222000
0000B6002000
0007F6202000
003693203230
069000200011
4F9022422111
5FC662206640
5FFFF620DA00
036783005230
079022222111
4F9000000021
5FEBBBBBBB60
4FFFFFFFF700
ENDCHAR
STARTCHAR twosuperior
ENCODING 178
SWIDTH 585 0
DWIDTH 8 0
BBX 8 10 0 1
BITMAP
01722222
2D812212
6FD99322
4EE94222
05622351
4F324832
BF322212
CF300002
CFFFFFD2
8CCCCB20
ENDCHAR
STARTCHAR threesuperior
ENCODING 179
SWIDTH 584 0
DWIDTH 8 0
BBX 8 10 0 1
BITMAP
04522230
6F512202
AFECA122
49F22332
0CF20022
0CFEE722
0C512212
8F500022
AFFFFF60
6CCCB400
ENDCHAR
STARTCHAR acute
ENCODING 180
SWIDTH 600 0
DWIDTH 8 0
BBX 9 6 0 8
BITMAP
0001222210
0441022020
5F31200220
CFAACDE400
BFECA82000
1100000000
ENDCHAR
STARTCHAR mu
ENCODING 181
SWIDTH 813 0
DWIDTH 11 0
BBX 11 13 0 -4
BITMAP
003222022220
0870024A0020
6F7024FA0220
7F7025FA0220
7F7025FA0220
7F7025FA0220
7F7040411120
7F7033222020
7F7020000310
7F7004BCC200
7FDAACD91000
6FFF50000000
022100000000
ENDCHAR
STARTCHAR paragraph
ENCODING 182
SWIDTH 782 0
DWIDTH 11 0
BBX 11 13 0 -2
BITMAP
001222222220
025000000020
2D3122223020
9F1200002020
CF1200002020
DF2200002020
DF6123224020
CFE502002020
7FFF42282020
07EF42292020
00BF40290020
00BFDBCEB700
009FFAFFA000
ENDCHAR
STARTCHAR periodcentered
ENCODING 183
SWIDTH 464 0
DWIDTH 7 0
BBX 7 6 0 1
BITMAP
00322210
1C400020
AF402020
BF401020
BFDBB810
9FFF9000
ENDCHAR
STARTCHAR cedilla
ENCODING 184
SWIDTH 600 0
DWIDTH 8 0
BBX 6 6 1 -4
BITMAP
002311
03D022
0B9113
2F4003
7FDC70
BFF700
ENDCHAR
STARTCHAR onesuperior
ENCODING 185
SWIDTH 557 0
DWIDTH 8 0
BBX 8 10 0 1
BITMAP
02722220
3E813020
7FFC2020
5CFC2020
03FC2020
03B72032
1B412212
9F500002
AFFFFFB1
7CCCCA10
ENDCHAR
STARTCHAR ordmasculine
ENCODING 186
SWIDTH 625 0
DWIDTH 9 0
BBX 9 13 0 -2
BITMAP
0023222300
0451222020
3E32491220
AF227F1220
CF227F1220
CF226E1220
CF32000220
CF61222020
BFE8435400
5FA9998220
2D21222120
BFCBBBBA30
BFFFFFD200
ENDCHAR
STARTCHAR guillemotright
ENCODING 187
SWIDTH 912 0
DWIDTH 13 0
BBX 13 10 0 -1
BITMAP
00774017751000
1C7037C7026600
7F712237023130
8FD6120C612020
5FE9320D932020
08712218122010
5F7004C7003300
8FCADBFC9D6000
7FC726FC820000
11000120000000
ENDCHAR
STARTCHAR onequarter
ENCODING 188
SWIDTH 1303 0
DWIDTH 18 0
BBX 18 13 0 -2
BITMAP
016222201423000000
2D713020B202000000
7F802028E023000000
7FFC202CC025222423
05FC202E911B02B722
03FC204F620D02C722
03B7204C422E02C722
2C412218124E025322
AFDCCCCD027F322232
9FFFFDEB029FFCB522
000001F9007EFFF702
000004FEB60007FEB5
000004FF900006FF60
ENDCHAR
STARTCHAR onehalf
ENCODING 189
SWIDTH 1260 0
DWIDTH 18 0
BBX 18 13 0 -2
BITMAP
016222201423000000
1D713020B202000000
7F802028E023000000
7FFC202CC025322220
17FC202E911C022211
03FC204F620E332202
03B7204C422FFC6202
2C412218123B322211
AFDCCCCD026A202630
9FFFFEFB0299219521
000001F900C9122202
000003FEBAFEBBBB91
000004FFA5FFFFFB10
ENDCHAR
STARTCHAR threequarters
ENCODING 190
SWIDTH 1313 0
DWIDTH 18 0
BBX 18 13 0 -2
BITMAP
035222300423100000
3E4122029402100000
AF500118F123000000
AFE6413CE024322423
28F22117B02A129922
0CFEE723920C12A922
0C500023620F12A922
2D512228422F124522
AFDCCCDF125F522232
9FFFE8CE027FFCB722
000000EB006EFFF902
000002FEB70005FEB6
000003FFB10004FF80
ENDCHAR
STARTCHAR questiondown
ENCODING 191
SWIDTH 756 0
DWIDTH 11 0
BBX 11 13 0 -2
BITMAP
000016222100
0000B7000200
0006F7010200
0007F9111200
0007FDB97000
003300002000
066122210200
5F4202576000
AF4204983210
BF5022222020
AFD200000020
7FFFCBBBB810
08DFFFFFA100
ENDCHAR
STARTCHAR Agrave
ENCODING 192
SWIDTH 830 0
DWIDTH 12 0
BBX 12 16 0 -2
BITMAP
000898887300
01BC02222400
03FD20000200
02FFA7642100
006C00000200
006902230210
00E311512020
05D020E52020
0B9014F90221
1F6110000202
6F5222222302
8F5200000202
9F5208FE0202
9F6107FE0102
9FDBB4FFBB70
7FFD30EFF900
ENDCHAR
STARTCHAR Aacute
ENCODING 193
SWIDTH 830 0
DWIDTH 12 0
BBX 12 17 0 -2
BITMAP
000000134300
0005CEDCA800
007D22210200
02FC00001500
03FE12012200
02FD00000200
009702230110
00E211512020
05C020E52020
0B8014F90211
1F6110000202
6F5222222302
8F5200000202
9F5208FE0202
9F6107FE0102
9FDBB4FFBB60
7FFD30EFF800
ENDCHAR
STARTCHAR Acircumflex
ENCODING 194
SWIDTH 830 0
DWIDTH 12 0
BBX 12 17 0 -2
BITMAP
000001221000
000110001300
003A01220200
01ED7BFD8500
03FF63333300
02FD00000200
007702230110
00E211512020
05C020E52020
0B8014F90211
1F6110000202
6F5222222302
8F5200000202
9F5208FE0202
9F6107FE0102
9FDBB4FFBB60
7FFD30EFF900
ENDCHAR
STARTCHAR Atilde
ENCODING 195
SWIDTH 830 0
DWIDTH 12 0
BBX 12 16 0 -2
BITMAP
000203333100
003B02221200
01EC24311400
03FFA8888200
02FE00000200
007902230210
00E311512020
05D020E52020
0B9014F90221
1F6110000202
6F5222222302
8F5200000202
9F5208FE0202
9F6107FE0102
9FDBB4FFBB70
7FFD30EFF900
ENDCHAR
STARTCHAR Adieresis
ENCODING 196
SWIDTH 830 0
DWIDTH 12 0
BBX 12 16 0 -2
BITMAP
000322432200
008710A11110
06F700B20210
08FFB9999700
07FE00000200
019902230200
00E411512020
05D020E52020
0B9014F90220
1F6110000202
6F5222222302
8F5200000202
9F5208FE0202
9F6107FE0102
9FDBB4FFBB70
7FFD30EFF900
ENDCHAR
STARTCHAR Aring
ENCODING 197
SWIDTH 830 0
DWIDTH 12 0
BBX 12 17 0 -2
BITMAP
000012222000
000322221300
004B21002200
01EA20E72200
04FC21A52200
04FE02221200
02FA02230200
01F411612020
06E020E52020
0C9014F90220
2F6110000202
6F5222222302
8F5200000202
9F5208FE0202
9F6107FE0102
9FDBB4FFBB70
7FFD30EFF900
ENDCHAR
STARTCHAR AE
ENCODING 198
SWIDTH 1105 0
DWIDTH 15 0
BBX 16 13 0 -2
BITMAP
0003322222222231
004A000000000002
00E6022223222202
05F1216602088850
0AB030EC02099900
0E8034FC03221200
4F62000002000200
8F522222230BB500
9F52000002087220
9F5109FC02222202
9F6008FC00000002
9FDBB6FFBBBBBB70
7FFD32FFFFFFF800
ENDCHAR
STARTCHAR Ccedilla
ENCODING 199
SWIDTH 728 0
DWIDTH 10 0
BBX 10 15 0 -4
BITMAP
0002222223
0070222212
0A80200002
4F6114FFE4
7F6115BB20
8F61120000
8F61120000
8F61112222
8F70200002
7FC0122312
5FF9302001
0DFFF210C2
019EE00210
000DFFC100
001BCA1000
ENDCHAR
STARTCHAR Egrave
ENCODING 200
SWIDTH 754 0
DWIDTH 11 0
BBX 11 17 0 -2
BITMAP
000442000000
009BBCDDB200
09F401222300
0BF610000100
0AB221124220
079000000020
4F9032222020
6F9024FFF700
6F9021224100
6F9042221100
6F9020001100
6F9023BB5000
6F9022872210
6F9032222020
6F9000000020
6FEBBBBBB710
4FFFFFFF9000
ENDCHAR
STARTCHAR Eacute
ENCODING 201
SWIDTH 754 0
DWIDTH 11 0
BBX 11 17 0 -2
BITMAP
000000135300
0006CEDCA700
009C22210200
04FA00001400
04B142022220
1C9000000020
5F9032222020
6F9024FFF700
6F9021224100
6F9042221100
6F9020001100
6F9023BB5000
6F9022872210
6F9032222020
6F9000000020
6FEBBBBBB710
4FFFFFFF9000
ENDCHAR
STARTCHAR Ecircumflex
ENCODING 202
SWIDTH 754 0
DWIDTH 11 0
BBX 11 17 0 -2
BITMAP
000002220000
000310002200
009602210200
07FA9DFB7200
08B222222220
0A9000000020
5F9032222020
6F9024FFF700
6F9021224100
6F9042221100
6F9020001100
6F9023BB5000
6F9022872210
6F9032222020
6F9000000020
6FEBBBBBB710
4FFFFFFF9000
ENDCHAR
STARTCHAR Edieresis
ENCODING 203
SWIDTH 754 0
DWIDTH 11 0
BBX 11 16 0 -2
BITMAP
000322422200
01B310B01200
0AF400C00000
0BD999999920
0B9000000020
2E9032222020
6F9024FFF700
6F9021224100
6F9042221100
6F9020001100
6F9023BB5000
6F9022872210
6F9032222020
6F9000000020
6FEBBBBBB710
4FFFFFFF9000
ENDCHAR
STARTCHAR Igrave
ENCODING 204
SWIDTH 705 0
DWIDTH 10 0
BBX 10 17 0 -2
BITMAP
0015420000
02C9CCED90
0ED0022250
1FE2000000
0F82211322
0A50000002
7F51232202
9FA6120351
9FFF420730
25CF420200
00BF420200
00BF420200
0088220221
0A51232202
8F60000002
9FDBBBBB91
7FFFFFFC10
ENDCHAR
STARTCHAR Iacute
ENCODING 205
SWIDTH 705 0
DWIDTH 10 0
BBX 10 17 0 -2
BITMAP
0000002440
004CDDCB90
06E2222020
1FD0000050
1F84211222
0F50000002
5F51232202
9FA6120351
9FFF420730
25CF420200
00BF420200
00BF420200
0088220221
0A51232202
8F60000002
9FDBBBBB91
7FFFFFFC10
ENDCHAR
STARTCHAR Icircumflex
ENCODING 206
SWIDTH 705 0
DWIDTH 10 0
BBX 10 17 0 -2
BITMAP
0000122100
0010000130
01B0122020
0CE7BFE950
1F82222222
1F50000002
4F51232202
9FA6120351
9FFF420730
25CF420200
00BF420200
00BF420200
0088220221
0A51232202
8F60000002
9FDBBBBB91
7FFFFFFC10
ENDCHAR
STARTCHAR Idieresis
ENCODING 207
SWIDTH 705 0
DWIDTH 10 0
BBX 10 16 0 -2
BITMAP
0022233221
0681183102
4F90093011
6FC9999994
5F50000002
4F51232202
9FA6120351
9FFF420730
25CF420200
00BF420200
00BF420200
0088220221
0A51232202
8F60000002
9FDBBBBB91
7FFFFFFC10
ENDCHAR
STARTCHAR Eth
ENCODING 208
SWIDTH 856 0
DWIDTH 12 0
BBX 13 13 -1 -2
BITMAP
00062222222200
008B0000000220
03FB0323231020
04FB022FF22020
04E30205F32020
04D00201F32020
0BE02412F32020
1FFB022EF32020
0BFB0202202020
04FB0322221020
04FB0000000200
04FFBBBBBC7000
02FFFFFFD60000
ENDCHAR
STARTCHAR Ntilde
ENCODING 209
SWIDTH 853 0
DWIDTH 12 0
BBX 12 16 0 -2
BITMAP
000213332100
004D02221200
00FE24311100
00B23BFF4222
099001DF1002
5F90504F1202
6F9023081202
6F9020300202
6F9020120202
6F9024311202
6F9025D12302
6F9025FB0302
6F9025FF1202
6F9003EF1002
6FEBB4DFCB70
4FFE40CFFA00
ENDCHAR
STARTCHAR Ograve
ENCODING 210
SWIDTH 837 0
DWIDTH 12 0
BBX 12 17 0 -2
BITMAP
000142000000
002C9BCCB700
01EC01222500
02FD20000100
01DB41233110
006012222020
0B8020000202
5F6114FC0202
7F6116FE0202
8F6112FE0202
8F6112FE0202
8F6112FE0202
8F7031530202
8FA013333021
5FF710000320
1DFFFDCCD400
019DFFDA2000
ENDCHAR
STARTCHAR Oacute
ENCODING 211
SWIDTH 837 0
DWIDTH 12 0
BBX 12 17 0 -2
BITMAP
000000013300
0004BCDBA800
006D22220200
01FC00000400
02FA23302310
01B012222020
0B8020000202
5F6114FC0202
7F6116FE0202
8F6112FE0202
8F6112FE0202
8F6112FE0202
8F7031530202
8FA013333021
5FF710000320
1DFFFDCCD400
019DFFDA2000
ENDCHAR
STARTCHAR Ocircumflex
ENCODING 212
SWIDTH 837 0
DWIDTH 12 0
BBX 12 17 0 -2
BITMAP
000002221000
000222232300
005C00000200
01FE6AEC8500
02FB41002310
01B012222020
0B8020000202
5F6114FC0202
7F6116FE0202
8F6112FE0202
8F6112FE0202
8F6112FE0202
8F7031530202
8FA013333021
5FF710000320
1DFFFDCCD400
019DFFDA2000
ENDCHAR
STARTCHAR Otilde
ENCODING 213
SWIDTH 837 0
DWIDTH 12 0
BBX 12 16 0 -2
BITMAP
000303333100
005C02221200
01FD24311400
02FD74445310
01C112222020
0B8020000202
5F6114FC0202
7F6116FE0202
8F6112FE0202
8F6112FE0202
8F6112FE0202
8F7031530202
8FA013333021
5FF710000330
1DFFFDCCD500
019DFFDA3000
ENDCHAR
STARTCHAR Odieresis
ENCODING 214
SWIDTH 837 0
DWIDTH 12 0
BBX 12 17 0 -2
BITMAP
000322122200
007700820020
05F710A21020
07F800B30110
07FE97668700
02C212222030
0A8020000202
5F6114FC0202
7F6116FE0202
8F6112FE0202
8F6112FE0202
8F6112FE0202
8F7031530202
8FA013333021
5FF710000330
1DFFFDCCD500
019DFFDA3000
ENDCHAR
STARTCHAR multiply
ENCODING 215
SWIDTH 834 0
DWIDTH 12 0
BBX 11 11 0 -2
BITMAP
000101001000
005101240020
07F411202030
1FFE32230300
06FFA0422100
007B13021320
008110621030
08F506FD1010
1EFF69FFC100
04E9007C2000
001000000000
ENDCHAR
STARTCHAR Oslash
ENCODING 216
SWIDTH 837 0
DWIDTH 12 0
BBX 12 15 0 -3
BITMAP
000000022220
000233321020
005112225030
098120013402
4F6208B40202
7F620A531202
8F6209433202
8F6203484202
8F62032E3202
8F7154380302
8FB025222021
6FF510000330
1EF304CCD400
09FEEFDA2000
0ACB20000000
ENDCHAR
STARTCHAR Ugrave
ENCODING 217
SWIDTH 846 0
DWIDTH 12 0
BBX 12 17 0 -2
BITMAP
000253100000
003C9CDED700
02EB01222400
03FD20000000
02A227DB2122
2D8013BF0102
6F8022EF0202
7F8022EF0202
7F8022EF0202
7F8022EF0202
7F8022EF0202
7F8022EE0202
7F8030000202
6FB013322011
4FF810000320
0CFFFDCCD400
018DFFDA3000
ENDCHAR
STARTCHAR Uacute
ENCODING 218
SWIDTH 846 0
DWIDTH 12 0
BBX 12 17 0 -2
BITMAP
000000024400
0003BDDCBA00
004E32220100
00DF00000500
019232BD3222
2D80126F0102
6F8022EF0202
7F8022EF0202
7F8022EF0202
7F8022EF0202
7F8022EF0202
7F8022EE0202
7F8030000202
6FB013322011
4FF810000320
0CFFFDCCD400
018DFFDA3000
ENDCHAR
STARTCHAR Ucircumflex
ENCODING 219
SWIDTH 846 0
DWIDTH 12 0
BBX 12 17 0 -2
BITMAP
000002221000
000322232300
005D00000200
00FE6AED9500
02A227FF4222
2D80128F0102
6F8022EF0202
7F8022EF0202
7F8022EF0202
7F8022EF0202
7F8022EF0202
7F8022EE0202
7F8030210202
6FB013322011
4FF810000320
0CFFFDCCD400
018DFFDA3000
ENDCHAR
STARTCHAR Udieresis
ENCODING 220
SWIDTH 846 0
DWIDTH 12 0
BBX 12 17 0 -2
BITMAP
000322132200
006800730020
04F811931020
06F900A40110
06D99CFFA993
2D8004DF0002
7F8022DF0202
7F8022EF0202
7F8022EF0202
7F8022EF0202
7F8022EF0202
7F8022EE0202
7F8030110202
6FB013323011
4FF810000220
0CFFFDCCD400
018DFFDA3000
ENDCHAR
STARTCHAR Yacute
ENCODING 221
SWIDTH 805 0
DWIDTH 11 0
BBX 11 17 0 -2
BITMAP
000000134300
0006CEDCA800
008C22210200
03FB00001400
046146CC3230
3E41039B0120
AF4205FB0220
BF4205FB0220
BF4113F60220
AFA030602030
8FF412021210
2EFD11320200
06FF90203000
00BFE0202000
002FE0002000
000FFBB81000
000EFFA10000
ENDCHAR
STARTCHAR Thorn
ENCODING 222
SWIDTH 792 0
DWIDTH 11 0
BBX 11 13 0 -2
BITMAP
016223000000
1C9002000000
5F9021222300
6F9042222030
6F9021311120
6F9024F90220
6F9024F80220
6F9020001120
6F9042222030
6F9020002300
6F9004FFA000
6FEBB9A50000
4FFE60000000
ENDCHAR
STARTCHAR germandbls
ENCODING 223
SWIDTH 859 0
DWIDTH 12 0
BBX 12 13 0 -2
BITMAP
016222222300
1C9000000020
5F9032222020
6F9022602020
6F9024F02030
6F9024C03202
6F9024B21022
6F9024FF8022
6F9024C42022
6F9014902202
6F9004900022
6FEBBDEBBB40
4FFE9FFEB200
ENDCHAR
STARTCHAR agrave
ENCODING 224
SWIDTH 830 0
DWIDTH 12 0
BBX 12 16 0 -2
BITMAP
000898887300
01BC02222400
03FD20000200
02FFA7642100
006C00000200
006902230210
00E311512020
05D020E52020
0B9014F90221
1F6110000202
6F5222222302
8F5200000202
9F5208FE0202
9F6107FE0102
9FDBB4FFBB70
7FFD30EFF900
ENDCHAR
STARTCHAR aacute
ENCODING 225
SWIDTH 830 0
DWIDTH 12 0
BBX 12 17 0 -2
BITMAP
000000134300
0005CEDCA800
007D22210200
02FC00001500
03FE12012200
02FD00000200
009702230110
00E211512020
05C020E52020
0B8014F90211
1F6110000202
6F5222222302
8F5200000202
9F5208FE0202
9F6107FE0102
9FDBB4FFBB60
7FFD30EFF800
ENDCHAR
STARTCHAR acircumflex
ENCODING 226
SWIDTH 830 0
DWIDTH 12 0
BBX 12 17 0 -2
BITMAP
000001221000
000110001300
003A01220200
01ED7BFD8500
03FF63333300
02FD00000200
007702230110
00E211512020
05C020E52020
0B8014F90211
1F6110000202
6F5222222302
8F5200000202
9F5208FE0202
9F6107FE0102
9FDBB4FFBB60
7FFD30EFF900
ENDCHAR
STARTCHAR atilde
ENCODING 227
SWIDTH 830 0
DWIDTH 12 0
BBX 12 16 0 -2
BITMAP
000203333100
003B02221200
01EC24311400
03FFA8888200
02FE00000200
007902230210
00E311512020
05D020E52020
0B9014F90221
1F6110000202
6F5222222302
8F5200000202
9F5208FE0202
9F6107FE0102
9FDBB4FFBB70
7FFD30EFF900
ENDCHAR
STARTCHAR adieresis
ENCODING 228
SWIDTH 830 0
DWIDTH 12 0
BBX 12 16 0 -2
BITMAP
000322432200
008710A11110
06F700B20210
08FFB9999700
07FE00000200
019902230200
00E411512020
05D020E52020
0B9014F90220
1F6110000202
6F5222222302
8F5200000202
9F5208FE0202
9F6107FE0102
9FDBB4FFBB70
7FFD30EFF900
ENDCHAR
STARTCHAR aring
ENCODING 229
SWIDTH 830 0
DWIDTH 12 0
BBX 12 17 0 -2
BITMAP
000012222000
000322221300
004B21002200
01EA20E72200
04FC21A52200
04FE02221200
02FA02230200
01F411612020
06E020E52020
0C9014F90220
2F6110000202
6F5222222302
8F5200000202
9F5208FE0202
9F6107FE0102
9FDBB4FFBB70
7FFD30EFF900
ENDCHAR
STARTCHAR ae
ENCODING 230
SWIDTH 1105 0
DWIDTH 15 0
BBX 16 13 0 -2
BITMAP
0003322222222231
004A000000000002
00E6022223222202
05F1216602088850
0AB030EC02099900
0E8034FC03221200
4F62000002000200
8F522222230BB500
9F52000002087220
9F5109FC02222202
9F6008FC00000002
9FDBB6FFBBBBBB70
7FFD32FFFFFFF800
ENDCHAR
STARTCHAR ccedilla
ENCODING 231
SWIDTH 728 0
DWIDTH 10 0
BBX 10 15 0 -4
BITMAP
0002222223
0070222212
0A80200002
4F6114FFE4
7F6115BB20
8F61120000
8F61120000
8F61112222
8F70200002
7FC0122312
5FF9302001
0DFFF210C2
019EE00210
000DFFC100
001BCA1000
ENDCHAR
STARTCHAR egrave
ENCODING 232
SWIDTH 754 0
DWIDTH 11 0
BBX 11 17 0 -2
BITMAP
000442000000
009BBCDDB200
09F401222300
0BF610000100
0AB221124220
079000000020
4F9032222020
6F9024FFF700
6F9021224100
6F9042221100
6F9020001100
6F9023BB5000
6F9022872210
6F9032222020
6F9000000020
6FEBBBBBB710
4FFFFFFF9000
ENDCHAR
STARTCHAR eacute
ENCODING 233
SWIDTH 754 0
DWIDTH 11 0
BBX 11 17 0 -2
BITMAP
000000135300
0006CEDCA700
009C22210200
04FA00001400
04B142022220
1C9000000020
5F9032222020
6F9024FFF700
6F9021224100
6F9042221100
6F9020001100
6F9023BB5000
6F9022872210
6F9032222020
6F9000000020
6FEBBBBBB710
4FFFFFFF9000
ENDCHAR
STARTCHAR ecircumflex
ENCODING 234
SWIDTH 754 0
DWIDTH 11 0
BBX 11 17 0 -2
BITMAP
000002220000
000310002200
009602210200
07FA9DFB7200
08B222222220
0A9000000020
5F9032222020
6F9024FFF700
6F9021224100
6F9042221100
6F9020001100
6F9023BB5000
6F9022872210
6F9032222020
6F9000000020
6FEBBBBBB710
4FFFFFFF9000
ENDCHAR
STARTCHAR edieresis
ENCODING 235
SWIDTH 754 0
DWIDTH 11 0
BBX 11 16 0 -2
BITMAP
000322422200
01B310B01200
0AF400C00000
0BD999999920
0B9000000020
2E9032222020
6F9024FFF700
6F9021224100
6F9042221100
6F9020001100
6F9023BB5000
6F9022872210
6F9032222020
6F9000000020
6FEBBBBBB710
4FFFFFFF9000
ENDCHAR
STARTCHAR igrave
ENCODING 236
SWIDTH 705 0
DWIDTH 10 0
BBX 10 17 0 -2
BITMAP
0015420000
02C9CCED90
0ED0022250
1FE2000000
0F82211322
0A50000002
7F51232202
9FA6120351
9FFF420730
25CF420200
00BF420200
00BF420200
0088220221
0A51232202
8F60000002
9FDBBBBB91
7FFFFFFC10
ENDCHAR
STARTCHAR iacute
ENCODING 237
SWIDTH 705 0
DWIDTH 10 0
BBX 10 17 0 -2
BITMAP
0000002440
004CDDCB90
06E2222020
1FD0000050
1F84211222
0F50000002
5F51232202
9FA6120351
9FFF420730
25CF420200
00BF420200
00BF420200
0088220221
0A51232202
8F60000002
9FDBBBBB91
7FFFFFFC10
ENDCHAR
STARTCHAR icircumflex
ENCODING 238
SWIDTH 705 0
DWIDTH 10 0
BBX 10 17 0 -2
BITMAP
0000122100
0010000130
01B0122020
0CE7BFE950
1F82222222
1F50000002
4F51232202
9FA6120351
9FFF420730
25CF420200
00BF420200
00BF420200
0088220221
0A51232202
8F60000002
9FDBBBBB91
7FFFFFFC10
ENDCHAR
STARTCHAR idieresis
ENCODING 239
SWIDTH 705 0
DWIDTH 10 0
BBX 10 16 0 -2
BITMAP
0022233221
0681183102
4F90093011
6FC9999994
5F50000002
4F51232202
9FA6120351
9FFF420730
25CF420200
00BF420200
00BF420200
0088220221
0A51232202
8F60000002
9FDBBBBB91
7FFFFFFC10
ENDCHAR
STARTCHAR eth
ENCODING 240
SWIDTH 856 0
DWIDTH 12 0
BBX 13 13 -1 -2
BITMAP
00062222222200
008B0000000220
03FB0323231020
04FB022FF22020
04E30205F32020
04D00201F32020
0BE02412F32020
1FFB022EF32020
0BFB0202202020
04FB0322221020
04FB0000000200
04FFBBBBBC7000
02FFFFFFD60000
ENDCHAR
STARTCHAR ntilde
ENCODING 241
SWIDTH 853 0
DWIDTH 12 0
BBX 12 16 0 -2
BITMAP
000213332100
004D02221200
00FE24311100
00B23BFF4222
099001DF1002
5F90504F1202
6F9023081202
6F9020300202
6F9020120202
6F9024311202
6F9025D12302
6F9025FB0302
6F9025FF1202
6F9003EF1002
6FEBB4DFCB70
4FFE40CFFA00
ENDCHAR
STARTCHAR ograve
ENCODING 242
SWIDTH 837 0
DWIDTH 12 0
BBX 12 17 0 -2
BITMAP
000142000000
002C9BCCB700
01EC01222500
02FD20000100
01DB41233110
006012222020
0B8020000202
5F6114FC0202
7F6116FE0202
8F6112FE0202
8F6112FE0202
8F6112FE0202
8F7031530202
8FA013333021
5FF710000320
1DFFFDCCD400
019DFFDA2000
ENDCHAR
STARTCHAR oacute
ENCODING 243
SWIDTH 837 0
DWIDTH 12 0
BBX 12 17 0 -2
BITMAP
000000013300
0004BCDBA800
006D22220200
01FC00000400
02FA23302310
01B012222020
0B8020000202
5F6114FC0202
7F6116FE0202
8F6112FE0202
8F6112FE0202
8F6112FE0202
8F7031530202
8FA013333021
5FF710000320
1DFFFDCCD400
019DFFDA2000
ENDCHAR
STARTCHAR ocircumflex
ENCODING 244
SWIDTH 837 0
DWIDTH 12 0
BBX 12 17 0 -2
BITMAP
000002221000
000222232300
005C00000200
01FE6AEC8500
02FB41002310
01B012222020
0B8020000202
5F6114FC0202
7F6116FE0202
8F6112FE0202
8F6112FE0202
8F6112FE0202
8F7031530202
8FA013333021
5FF710000320
1DFFFDCCD400
019DFFDA2000
ENDCHAR
STARTCHAR otilde
ENCODING 245
SWIDTH 837 0
DWIDTH 12 0
BBX 12 16 0 -2
BITMAP
000303333100
005C02221200
01FD24311400
02FD74445310
01C112222020
0B8020000202
5F6114FC0202
7F6116FE0202
8F6112FE0202
8F6112FE0202
8F6112FE0202
8F7031530202
8FA013333021
5FF710000330
1DFFFDCCD500
019DFFDA3000
ENDCHAR
STARTCHAR odieresis
ENCODING 246
SWIDTH 837 0
DWIDTH 12 0
BBX 12 17 0 -2
BITMAP
000322122200
007700820020
05F710A21020
07F800B30110
07FE97668700
02C212222030
0A8020000202
5F6114FC0202
7F6116FE0202
8F6112FE0202
8F6112FE0202
8F6112FE0202
8F7031530202
8FA013333021
5FF710000330
1DFFFDCCD500
019DFFDA3000
ENDCHAR
STARTCHAR divide
ENCODING 247
SWIDTH 834 0
DWIDTH 12 0
BBX 12 12 0 -1
BITMAP
000003221000
0000B2002000
0009F2102000
000DF3002000
003788883230
069022222111
4F9000000020
5FECCA99BC40
3CCDF2108400
000BF2002000
000DFCBA2000
000BFFC20000
ENDCHAR
STARTCHAR oslash
ENCODING 248
SWIDTH 837 0
DWIDTH 12 0
BBX 12 15 0 -3
BITMAP
000000022220
000233321020
005112225030
098120013402
4F6208B40202
7F620A531202
8F6209433202
8F6203484202
8F62032E3202
8F7154380302
8FB025222021
6FF510000330
1EF304CCD400
09FEEFDA2000
0ACB20000000
ENDCHAR
STARTCHAR ugrave
ENCODING 249
SWIDTH 846 0
DWIDTH 12 0
BBX 12 17 0 -2
BITMAP
000253100000
003C9CDED700
02EB01222400
03FD20000000
02A227DB2122
2D8013BF0102
6F8022EF0202
7F8022EF0202
7F8022EF0202
7F8022EF0202
7F8022EF0202
7F8022EE0202
7F8030000202
6FB013322011
4FF810000320
0CFFFDCCD400
018DFFDA3000
ENDCHAR
STARTCHAR uacute
ENCODING 250
SWIDTH 846 0
DWIDTH 12 0
BBX 12 17 0 -2
BITMAP
000000024400
0003BDDCBA00
004E32220100
00DF00000500
019232BD3222
2D80126F0102
6F8022EF0202
7F8022EF0202
7F8022EF0202
7F8022EF0202
7F8022EF0202
7F8022EE0202
7F8030000202
6FB013322011
4FF810000320
0CFFFDCCD400
018DFFDA3000
ENDCHAR
STARTCHAR ucircumflex
ENCODING 251
SWIDTH 846 0
DWIDTH 12 0
BBX 12 17 0 -2
BITMAP
000002221000
000322232300
005D00000200
00FE6AED9500
02A227FF4222
2D80128F0102
6F8022EF0202
7F8022EF0202
7F8022EF0202
7F8022EF0202
7F8022EF0202
7F8022EE0202
7F8030210202
6FB013322011
4FF810000320
0CFFFDCCD400
018DFFDA3000
ENDCHAR
STARTCHAR udieresis
ENCODING 252
SWIDTH 846 0
DWIDTH 12 0
BBX 12 17 0 -2
BITMAP
000322132200
006800730020
04F811931020
06F900A40110
06D99CFFA993
2D8004DF0002
7F8022DF0202
7F8022EF0202
7F8022EF0202
7F8022EF0202
7F8022EF0202
7F8022EE0202
7F8030110202
6FB013323011
4FF810000220
0CFFFDCCD400
018DFFDA3000
ENDCHAR
STARTCHAR yacute
ENCODING 253
SWIDTH 805 0
DWIDTH 11 0
BBX 11 17 0 -2
BITMAP
000000134300
0006CEDCA800
008C22210200
03FB00001400
046146CC3230
3E41039B0120
AF4205FB0220
BF4205FB0220
BF4113F60220
AFA030602030
8FF412021210
2EFD11320200
06FF90203000
00BFE0202000
002FE0002000
000FFBB81000
000EFFA10000
ENDCHAR
STARTCHAR thorn
ENCODING 254
SWIDTH 792 0
DWIDTH 11 0
BBX 11 13 0 -2
BITMAP
016223000000
1C9002000000
5F9021222300
6F9042222030
6F9021311120
6F9024F90220
6F9024F80220
6F9020001120
6F9042222030
6F9020002300
6F9004FFA000
6FEBB9A50000
4FFE60000000
ENDCHAR
STARTCHAR ydieresis
ENCODING 255
SWIDTH 805 0
DWIDTH 11 0
BBX 11 16 0 -2
BITMAP
000322422200
01B410C01200
09F500C00000
0AB99EFE9990
0B4007EB0020
7F4204FB0220
BF4205FB0220
BF4214F70220
BF9030702010
AFF312011110
3FFD12320200
07FF90202000
00BFE0202000
002FE0002000
000FFBB81000
000EFFA10000
ENDCHAR
STARTCHAR Amacron
ENCODING 256
SWIDTH 830 0
DWIDTH 12 0
BBX 12 16 0 -2
BITMAP
000222222200
003B02221200
01EC00000300
03FFB9999400
02FE00000200
008902230200
00E411512020
05D020E52020
0B9014F90220
1F6110000202
6F5222222302
8F5200000202
9F5208FE0202
9F6107FE0102
9FDBB4FFBB70
7FFD30EFF900
ENDCHAR
STARTCHAR amacron
ENCODING 257
SWIDTH 830 0
DWIDTH 12 0
BBX 12 16 0 -2
BITMAP
000222222200
003B02221200
01EC00000300
03FFB9999400
02FE00000200
008902230200
00E411512020
05D020E52020
0B9014F90220
1F6110000202
6F5222222302
8F5200000202
9F5208FE0202
9F6107FE0102
9FDBB4FFBB70
7FFD30EFF900
ENDCHAR
STARTCHAR Abreve
ENCODING 258
SWIDTH 830 0
DWIDTH 12 0
BBX 12 17 0 -2
BITMAP
000223032200
004A01A80200
02EC21212100
04FF84232000
02FFA8888400
009E00000400
006902230220
00E311512040
05D020E52030
0B9014F90221
1F6110000202
6F5222222302
8F5200000202
9F5208FE0202
9F6107FE0102
9FDBB4FFBB60
7FFD30EFF800
ENDCHAR
STARTCHAR abreve
ENCODING 259
SWIDTH 830 0
DWIDTH 12 0
BBX 12 17 0 -2
BITMAP
000223032200
004A01A80200
02EC21212100
04FF84232000
02FFA8888400
009E00000400
006902230220
00E311512040
05D020E52030
0B9014F90221
1F6110000202
6F5222222302
8F5200000202
9F5208FE0202
9F6107FE0102
9FDBB4FFBB60
7FFD30EFF800
ENDCHAR
STARTCHAR Aogonek
ENCODING 260
SWIDTH 830 0
DWIDTH 12 0
BBX 12 16 0 -5
BITMAP
000132222200
000800000200
006702230110
00E211512020
05C020E52020
0B8014F90211
1F6110000202
6F5222222302
8F5200000202
9F5208FE0202
9F6107FE0202
9FDBB4FC2041
7FFD32FA2202
000004FD2002
000004FFFF60
0000008BB500
ENDCHAR
STARTCHAR aogonek
ENCODING 261
SWIDTH 830 0
DWIDTH 12 0
BBX 12 16 0 -5
BITMAP
000132222200
000800000200
006702230110
00E211512020
05C020E52020
0B8014F90211
1F6110000202
6F5222222302
8F5200000202
9F5208FE0202
9F6107FE0202
9FDBB4FC2041
7FFD32FA2202
000004FD2002
000004FFFF60
0000008BB500
ENDCHAR
STARTCHAR Cacute
ENCODING 262
SWIDTH 728 0
DWIDTH 10 0
BBX 10 17 0 -2
BITMAP
0000000244
0004CDDCB9
006E222202
00FE000005
00FC121123
00D1000002
0160222212
0C6022BBB4
5F6116FE50
8F61120000
8F61120000
8F61120000
8F70212222
8FA0222212
6FF6000002
1EFFECBBB5
03BEFFFE50
ENDCHAR
STARTCHAR cacute
ENCODING 263
SWIDTH 728 0
DWIDTH 10 0
BBX 10 17 0 -2
BITMAP
0000000244
0004CDDCB9
006E222202
00FE000005
00FC121123
00D1000002
0160222212
0C6022BBB4
5F6116FE50
8F61120000
8F61120000
8F61120000
8F70212222
8FA0222212
6FF6000002
1EFFECBBB5
03BEFFFE50
ENDCHAR
STARTCHAR Ccircumflex
ENCODING 264
SWIDTH 728 0
DWIDTH 10 0
BBX 10 17 0 -2
BITMAP
0000022200
0001000022
0057023102
04FB8DFC83
07FC532223
07D1000002
0360222212
1D6022BBB4
6F6116FE50
8F61120000
8F61120000
8F61120000
8F70212222
8FA0222212
6FF6000002
1EFFECBBB5
02BEFFFE50
ENDCHAR
STARTCHAR ccircumflex
ENCODING 265
SWIDTH 728 0
DWIDTH 10 0
BBX 10 17 0 -2
BITMAP
0000022200
0001000022
0057023102
04FB8DFC83
07FC532223
07D1000002
0360222212
1D6022BBB4
6F6116FE50
8F61120000
8F61120000
8F61120000
8F70212222
8FA0222212
6FF6000002
1EFFECBBB5
02BEFFFE50
ENDCHAR
STARTCHAR Cdotaccent
ENCODING 266
SWIDTH 728 0
DWIDTH 10 0
BBX 10 16 0 -2
BITMAP
0000132210
0003D02020
000EF10010
000C532223
0010000002
0150222212
1D6022BBB4
6F6116FE50
8F61120000
8F61120000
8F61120000
8F70212222
8FA0222212
6FF6000002
1EFFECBBB5
02BEFFFE50
ENDCHAR
STARTCHAR cdotaccent
ENCODING 267
SWIDTH 728 0
DWIDTH 10 0
BBX 10 16 0 -2
BITMAP
0000132210
0003D02020
000EF10010
000C532223
0010000002
0150222212
1D6022BBB4
6F6116FE50
8F61120000
8F61120000
8F61120000
8F70212222
8FA0222212
6FF6000002
1EFFECBBB5
02BEFFFE50
ENDCHAR
STARTCHAR Ccaron
ENCODING 268
SWIDTH 728 0
DWIDTH 10 0
BBX 10 17 0 -2
BITMAP
0004400021
0078132212
05F8022202
07FF941430
06FC532223
0041000002
0470222212
2E6022BBB4
6F6116FE50
8F61120000
8F61120000
8F61120000
8F70212222
8FA0222212
5FF6000002
1DFFECBBB5
02BEFFFE50
ENDCHAR
STARTCHAR ccaron
ENCODING 269
SWIDTH 728 0
DWIDTH 10 0
BBX 10 17 0 -2
BITMAP
0004400021
0078132212
05F8022202
07FF941430
06FC532223
0041000002
0470222212
2E6022BBB4
6F6116FE50
8F61120000
8F61120000
8F61120000
8F70212222
8FA0222212
5FF6000002
1DFFECBBB5
02BEFFFE50
ENDCHAR
STARTCHAR Dcaron
ENCODING 270
SWIDTH 846 0
DWIDTH 12 0
BBX 12 17 0 -2
BITMAP
000251001200
004C03222200
00FE02221100
01FFC6125100
009111112320
0A9000000021
5F9032223102
6F9021320202
6F9024FF1202
6F9023FF1202
6F9022DF1202
6F9022DF1202
6F9021870202
6F9032222111
6F9000000120
6FEBBBBBC600
4FFFFFEC4000
ENDCHAR
STARTCHAR dcaron
ENCODING 271
SWIDTH 846 0
DWIDTH 12 0
BBX 12 17 0 -2
BITMAP
000251001200
004C03222200
00FE02221100
01FFC6125100
009111112320
0A9000000021
5F9032223102
6F9021320202
6F9024FF1202
6F9023FF1202
6F9022DF1202
6F9022DF1202
6F9021870202
6F9032222111
6F9000000120
6FEBBBBBC600
4FFFFFEC4000
ENDCHAR
STARTCHAR Dcroat
ENCODING 272
SWIDTH 856 0
DWIDTH 12 0
BBX 13 13 -1 -2
BITMAP
00062222222200
008B0000000220
03FB0323231020
04FB022FF22020
04E30205F32020
04D00201F32020
0BE02412F32020
1FFB022EF32020
0BFB0202202020
04FB0322221020
04FB0000000200
04FFBBBBBC7000
02FFFFFFD60000
ENDCHAR
STARTCHAR dcroat
ENCODING 273
SWIDTH 856 0
DWIDTH 12 0
BBX 13 13 -1 -2
BITMAP
00062222222200
008B0000000220
03FB0323231020
04FB022FF22020
04E30205F32020
04D00201F32020
0BE02412F32020
1FFB022EF32020
0BFB0202202020
04FB0322221020
04FB0000000200
04FFBBBBBC7000
02FFFFFFD60000
ENDCHAR
STARTCHAR Emacron
ENCODING 274
SWIDTH 754 0
DWIDTH 11 0
BBX 11 16 0 -2
BITMAP
000322222100
008612220200
07F700000100
08B222222220
089000000020
3F9032222020
6F9024FFF700
6F9021224100
6F9042221100
6F9020001100
6F9023BB5000
6F9022872210
6F9032222020
6F9000000020
6FEBBBBBB710
4FFFFFFF9000
ENDCHAR
STARTCHAR emacron
ENCODING 275
SWIDTH 754 0
DWIDTH 11 0
BBX 11 16 0 -2
BITMAP
000322222100
008612220200
07F700000100
08B222222220
089000000020
3F9032222020
6F9024FFF700
6F9021224100
6F9042221100
6F9020001100
6F9023BB5000
6F9022872210
6F9032222020
6F9000000020
6FEBBBBBB710
4FFFFFFF9000
ENDCHAR
STARTCHAR Ebreve
ENCODING 276
SWIDTH 754 0
DWIDTH 11 0
BBX 11 17 0 -2
BITMAP
000323042200
008703C40200
06F820302100
07FE63241000
05B222222220
079000000020
4F9032222020
6F9024FFF700
6F9021224100
6F9042221100
6F9020001100
6F9023BB5000
6F9022872210
6F9032222020
6F9000000020
6FEBBBBBB710
4FFFFFFF9000
ENDCHAR
STARTCHAR ebreve
ENCODING 277
SWIDTH 754 0
DWIDTH 11 0
BBX 11 17 0 -2
BITMAP
000323042200
008703C40200
06F820302100
07FE63241000
05B222222220
079000000020
4F9032222020
6F9024FFF700
6F9021224100
6F9042221100
6F9020001100
6F9023BB5000
6F9022872210
6F9032222020
6F9000000020
6FEBBBBBB710
4FFFFFFF9000
ENDCHAR
STARTCHAR Edotaccent
ENCODING 278
SWIDTH 754 0
DWIDTH 11 0
BBX 11 16 0 -2
BITMAP
000042230000
001B80220000
006F90000000
016222222220
1C9000000020
5F9032222020
6F9024FFF700
6F9021224100
6F9042221100
6F9020001100
6F9023BB5000
6F9022872210
6F9032222020
6F9000000020
6FEBBBBBB710
4FFFFFFF9000
ENDCHAR
STARTCHAR edotaccent
ENCODING 279
SWIDTH 754 0
DWIDTH 11 0
BBX 11 16 0 -2
BITMAP
000042230000
001B80220000
006F90000000
016222222220
1C9000000020
5F9032222020
6F9024FFF700
6F9021224100
6F9042221100
6F9020001100
6F9023BB5000
6F9022872210
6F9032222020
6F9000000020
6FEBBBBBB710
4FFFFFFF9000
ENDCHAR
STARTCHAR Eogonek
ENCODING 280
SWIDTH 754 0
DWIDTH 11 0
BBX 11 16 0 -5
BITMAP
016222222220
1C9000000020
5F9032222020
6F9024FFF700
6F9021224100
6F9042221100
6F9020001100
6F9023BB5000
6F9022872210
6F9032223020
6F9000011020
6FEBBB820310
4FFFFFA22020
00004FD20020
00004FFFF600
000009BB5000
ENDCHAR
STARTCHAR eogonek
ENCODING 281
SWIDTH 754 0
DWIDTH 11 0
BBX 11 16 0 -5
BITMAP
016222222220
1C9000000020
5F9032222020
6F9024FFF700
6F9021224100
6F9042221100
6F9020001100
6F9023BB5000
6F9022872210
6F9032223020
6F9000011020
6FEBBB820310
4FFFFFA22020
00004FD20020
00004FFFF600
000009BB5000
ENDCHAR
STARTCHAR Ecaron
ENCODING 282
SWIDTH 754 0
DWIDTH 11 0
BBX 11 17 0 -2
BITMAP
000440002100
008713221200
06F802220100
07FE94153000
04A222222220
089000000020
5F9032222020
6F9024FFF700
6F9021224100
6F9042221100
6F9020001100
6F9023BB5000
6F9022872210
6F9032222020
6F9000000020
6FEBBBBBB710
4FFFFFFF9000
ENDCHAR
STARTCHAR ecaron
ENCODING 283
SWIDTH 754 0
DWIDTH 11 0
BBX 11 17 0 -2
BITMAP
000440002100
008713221200
06F802220100
07FE94153000
04A222222220
089000000020
5F9032222020
6F9024FFF700
6F9021224100
6F9042221100
6F9020001100
6F9023BB5000
6F9022872210
6F9032222020
6F9000000020
6FEBBBBBB710
4FFFFFFF9000
ENDCHAR
STARTCHAR Gcircumflex
ENCODING 284
SWIDTH 808 0
DWIDTH 11 0
BBX 11 17 0 -2
BITMAP
000001221000
000100001300
001B01221200
00BF6AEE9600
00EC64333400
00C100000200
016022221200
0C6023BBB400
5F6116FF6000
8F6112032220
8F6112890020
8F6115F90220
8F7030320220
8FA022222120
6FF600000020
1EFFECBBBB40
03BEFFFFE500
ENDCHAR
STARTCHAR gcircumflex
ENCODING 285
SWIDTH 808 0
DWIDTH 11 0
BBX 11 17 0 -2
BITMAP
000001221000
000100001300
001B01221200
00BF6AEE9600
00EC64333400
00C100000200
016022221200
0C6023BBB400
5F6116FF6000
8F6112032220
8F6112890020
8F6115F90220
8F7030320220
8FA022222120
6FF600000020
1EFFECBBBB40
03BEFFFFE500
ENDCHAR
STARTCHAR Gbreve
ENCODING 286
SWIDTH 808 0
DWIDTH 11 0
BBX 11 17 0 -2
BITMAP
000222132300
003B009A0200
01EE12212100
02FFA4333000
00FC53222300
005100000200
037022221200
1E6023BBB400
6F6116FF6000
8F6112032220
8F6112890020
8F6115F90220
8F7030320220
8FA022222120
6FF600000020
1EFFECBBBB40
02BEFFFFE500
ENDCHAR
STARTCHAR gbreve
ENCODING 287
SWIDTH 808 0
DWIDTH 11 0
BBX 11 17 0 -2
BITMAP
000222132300
003B009A0200
01EE12212100
02FFA4333000
00FC53222300
005100000200
037022221200
1E6023BBB400
6F6116FF6000
8F6112032220
8F6112890020
8F6115F90220
8F7030320220
8FA022222120
6FF600000020
1EFFECBBBB40
02BEFFFFE500
ENDCHAR
STARTCHAR Gdotaccent
ENCODING 288
SWIDTH 808 0
DWIDTH 11 0
BBX 11 16 0 -2
BITMAP
000013222000
0002C4202000
000AF4000000
000853222300
003000000200
068022221200
2F6023BBB400
6F6116FF6000
8F6112032220
8F6112890020
8F6115F90220
8F7030320220
8FA022222120
5FF600000020
1DFFECBBBB40
03BEFFFFE500
ENDCHAR
STARTCHAR gdotaccent
ENCODING 289
SWIDTH 808 0
DWIDTH 11 0
BBX 11 16 0 -2
BITMAP
000013222000
0002C4202000
000AF4000000
000853222300
003000000200
068022221200
2F6023BBB400
6F6116FF6000
8F6112032220
8F6112890020
8F6115F90220
8F7030320220
8FA022222120
5FF600000020
1DFFECBBBB40
03BEFFFFE500
ENDCHAR
STARTCHAR Gcommaaccent
ENCODING 290
SWIDTH 808 0
DWIDTH 11 0
BBX 11 18 0 -7
BITMAP
000322222300
007022221200
098020000200
4F6123BBB400
7F6116FF6000
8F6112032220
8F6112890020
8F6125F90220
8F7030320220
7FB012222120
5FF700000020
0DFFFB99CC50
02BEF3218500
0008F3022000
000BFB722000
000AF6223000
0006FDC70000
0007FD500000
ENDCHAR
STARTCHAR gcommaaccent
ENCODING 291
SWIDTH 808 0
DWIDTH 11 0
BBX 11 18 0 -7
BITMAP
000322222300
007022221200
098020000200
4F6123BBB400
7F6116FF6000
8F6112032220
8F6112890020
8F6125F90220
8F7030320220
7FB012222120
5FF700000020
0DFFFB99CC50
02BEF3218500
0008F3022000
000BFB722000
000AF6223000
0006FDC70000
0007FD500000
ENDCHAR
STARTCHAR Hcircumflex
ENCODING 292
SWIDTH 859 0
DWIDTH 12 0
BBX 12 17 0 -2
BITMAP
000002231000
000231002500
003D01221200
00EF15984100
00A227FF5222
0A90028F1002
5F9022BF1202
6F9022DF1202
6F9021881202
6F9042222402
6F9020000202
6F9023BB1202
6F9024FF1202
6F9022DF1202
6F9002DF2002
6FEBB3DFCB81
4FFE40BFFB10
ENDCHAR
STARTCHAR hcircumflex
ENCODING 293
SWIDTH 859 0
DWIDTH 12 0
BBX 12 17 0 -2
BITMAP
000002231000
000231002500
003D01221200
00EF15984100
00A227FF5222
0A90028F1002
5F9022BF1202
6F9022DF1202
6F9021881202
6F9042222402
6F9020000202
6F9023BB1202
6F9024FF1202
6F9022DF1202
6F9002DF2002
6FEBB3DFCB81
4FFE40BFFB10
ENDCHAR
STARTCHAR Hbar
ENCODING 294
SWIDTH 879 0
DWIDTH 12 0
BBX 13 13 0 -2
BITMAP
00622301522300
09B0020C400200
3F702159220210
6F014222242020
EF102000020020
EFB022FF420400
9FB02033120200
4FB03222240200
4FB02000020200
4FB022FF420200
4FB002EF400200
4FFBB4AFDBA200
2FFF609FFC2000
ENDCHAR
STARTCHAR hbar
ENCODING 295
SWIDTH 879 0
DWIDTH 12 0
BBX 13 13 0 -2
BITMAP
00622301522300
09B0020C400200
3F702159220210
6F014222242020
EF102000020020
EFB022FF420400
9FB02033120200
4FB03222240200
4FB02000020200
4FB022FF420200
4FB002EF400200
4FFBB4AFDBA200
2FFF609FFC2000
ENDCHAR
STARTCHAR Itilde
ENCODING 296
SWIDTH 705 0
DWIDTH 10 0
BBX 10 16 0 -2
BITMAP
0021333210
02C0222120
0EE2431110
1F82222222
1F50000002
5F51232202
9FA6120351
9FFF420730
25CF420200
00BF420200
00BF420200
0088220221
0A51232202
8F60000002
9FDBBBBB91
7FFFFFFC10
ENDCHAR
STARTCHAR itilde
ENCODING 297
SWIDTH 705 0
DWIDTH 10 0
BBX 10 16 0 -2
BITMAP
0021333210
02C0222120
0EE2431110
1F82222222
1F50000002
5F51232202
9FA6120351
9FFF420730
25CF420200
00BF420200
00BF420200
0088220221
0A51232202
8F60000002
9FDBBBBB91
7FFFFFFC10
ENDCHAR
STARTCHAR Imacron
ENCODING 298
SWIDTH 705 0
DWIDTH 10 0
BBX 10 16 0 -2
BITMAP
0022222230
02C0222120
0DE0000000
1FC9999994
0F50000002
4F51232202
9FA6120351
9FFF420730
25CF420200
00BF420200
00BF420200
0088220221
0A51232202
8F60000002
9FDBBBBB91
7FFFFFFC10
ENDCHAR
STARTCHAR imacron
ENCODING 299
SWIDTH 705 0
DWIDTH 10 0
BBX 10 16 0 -2
BITMAP
0022222230
02C0222120
0DE0000000
1FC9999994
0F50000002
4F51232202
9FA6120351
9FFF420730
25CF420200
00BF420200
00BF420200
0088220221
0A51232202
8F60000002
9FDBBBBB91
7FFFFFFC10
ENDCHAR
STARTCHAR Ibreve
ENCODING 300
SWIDTH 705 0
DWIDTH 10 0
BBX 10 17 0 -2
BITMAP
0022213230
03B009A020
1EE1121310
2FF9423300
0E82222222
0A50000002
7F51232202
9FA6120351
9FFF420730
25CF420200
00BF420200
00BF420200
0088220221
0A51232202
8F60000002
9FDBBBBB91
7FFFFFFC10
ENDCHAR
STARTCHAR ibreve
ENCODING 301
SWIDTH 705 0
DWIDTH 10 0
BBX 10 17 0 -2
BITMAP
0022213230
03B009A020
1EE1121310
2FF9423300
0E82222222
0A50000002
7F51232202
9FA6120351
9FFF420730
25CF420200
00BF420200
00BF420200
0088220221
0A51232202
8F60000002
9FDBBBBB91
7FFFFFFC10
ENDCHAR
STARTCHAR Iogonek
ENCODING 302
SWIDTH 705 0
DWIDTH 10 0
BBX 10 16 0 -5
BITMAP
0152222222
1D50000002
8F51232202
9FA6120351
9FFF420730
25CF420200
00BF420200
00BF420200
0088220221
0A51232302
8F60000202
9FDBBB0231
7FFFFD0402
0000FF3002
0001FFFF90
00007BB800
ENDCHAR
STARTCHAR iogonek
ENCODING 303
SWIDTH 705 0
DWIDTH 10 0
BBX 10 16 0 -5
BITMAP
0152222222
1D50000002
8F51232202
9FA6120351
9FFF420730
25CF420200
00BF420200
00BF420200
0088220221
0A51232302
8F60000202
9FDBBB0231
7FFFFD0402
0000FF3002
0001FFFF90
00007BB800
ENDCHAR
STARTCHAR Idotaccent
ENCODING 304
SWIDTH 705 0
DWIDTH 10 0
BBX 10 16 0 -2
BITMAP
0001422200
004D420200
00BF400000
0162222222
1C50000002
8F51232202
9FA6120351
9FFF420730
25CF420200
00BF420200
00BF420200
0088220221
0A51232202
8F60000002
9FDBBBBB91
7FFFFFFC10
ENDCHAR
STARTCHAR dotlessi
ENCODING 305
SWIDTH 705 0
DWIDTH 10 0
BBX 10 13 0 -2
BITMAP
0152222222
1D50000002
8F51232202
9FA6120351
9FFF420730
25CF420200
00BF420200
00BF420200
0088220221
0A51232202
8F60000002
9FDBBBBB91
7FFFFFFC10
ENDCHAR
STARTCHAR IJ
ENCODING 306
SWIDTH 844 0
DWIDTH 12 0
BBX 12 13 0 -2
BITMAP
016223043222
1C90023E0002
5F9023EE0202
6F9024FE0202
6F9024FE0202
6F9014FE0202
6FB337FE0202
5FFFC6FD0202
039332310202
1B9022222010
5F9000000110
6FEBBBBBC400
4FFFFFFC3000
ENDCHAR
STARTCHAR ij
ENCODING 307
SWIDTH 844 0
DWIDTH 12 0
BBX 12 13 0 -2
BITMAP
016223043222
1C90023E0002
5F9023EE0202
6F9024FE0202
6F9024FE0202
6F9014FE0202
6FB337FE0202
5FFFC6FD0202
039332310202
1B9022222010
5F9000000110
6FEBBBBBC400
4FFFFFFC3000
ENDCHAR
STARTCHAR Jcircumflex
ENCODING 308
SWIDTH 788 0
DWIDTH 11 0
BBX 12 17 0 -2
BITMAP
000000022200
000003222222
00006A000002
0003FC7BFC84
0004FFF53381
000165E21020
00000CF22020
00000CF22020
00000CF22020
01322DF22020
1C300CF22020
BF320BF12020
CF3211203020
BF6023220020
9FE400001300
4FFFECCD7000
04BEFEB50000
ENDCHAR
STARTCHAR jcircumflex
ENCODING 309
SWIDTH 788 0
DWIDTH 11 0
BBX 12 17 0 -2
BITMAP
000000022200
000003222222
00006A000002
0003FC7BFC84
0004FFF53381
000165E21020
00000CF22020
00000CF22020
00000CF22020
01322DF22020
1C300CF22020
BF320BF12020
CF3211203020
BF6023220020
9FE400001300
4FFFECCD7000
04BEFEB50000
ENDCHAR
STARTCHAR Kcommaaccent
ENCODING 310
SWIDTH 846 0
DWIDTH 12 0
BBX 12 18 0 -7
BITMAP
016223032231
1C9002560020
5F9023E12020
6F9024902200
6F9021120220
6F9042232102
6F9020000202
6F9024ED0202
6F9024FF1202
6F9022EF1202
6F9002DF1002
6FEBB789AB81
4FFFF3218A00
000AF3022000
000BFB722000
000AF6223000
0006FDC60000
0007FD500000
ENDCHAR
STARTCHAR kcommaaccent
ENCODING 311
SWIDTH 846 0
DWIDTH 12 0
BBX 12 18 0 -7
BITMAP
016223032231
1C9002560020
5F9023E12020
6F9024902200
6F9021120220
6F9042232102
6F9020000202
6F9024ED0202
6F9024FF1202
6F9022EF1202
6F9002DF1002
6FEBB789AB81
4FFFF3218A00
000AF3022000
000BFB722000
000AF6223000
0006FDC60000
0007FD500000
ENDCHAR
STARTCHAR kgreenlandic
ENCODING 312
SWIDTH 846 0
DWIDTH 12 0
BBX 12 13 0 -2
BITMAP
016223032231
1C9002560020
5F9023E12020
6F9024902200
6F9021120220
6F9042232102
6F9020000202
6F9024ED0202
6F9024FF1202
6F9022EF1202
6F9002DF1002
6FEBB4DFCB81
4FFE50CFFA00
ENDCHAR
STARTCHAR Lacute
ENCODING 313
SWIDTH 795 0
DWIDTH 11 0
BBX 11 16 0 -2
BITMAP
001566664000
039222202000
3E9000011000
6FB238E50000
4F9003200000
4F9022000000
6F9022000000
6F9022000000
6F9022032220
6F90227A0020
6F9024FA0220
6F9021320220
6F9032222120
6F9000000020
6FEBBBBBBB40
4FFFFFFFE400
ENDCHAR
STARTCHAR lacute
ENCODING 314
SWIDTH 795 0
DWIDTH 11 0
BBX 11 16 0 -2
BITMAP
001566664000
039222202000
3E9000011000
6FB238E50000
4F9003200000
4F9022000000
6F9022000000
6F9022000000
6F9022032220
6F90227A0020
6F9024FA0220
6F9021320220
6F9032222120
6F9000000020
6FEBBBBBBB40
4FFFFFFFE400
ENDCHAR
STARTCHAR Lcommaaccent
ENCODING 315
SWIDTH 795 0
DWIDTH 11 0
BBX 11 18 0 -7
BITMAP
016223000000
1C9012000000
5F9022000000
6F9022000000
6F9022000000
6F9022032220
6F90227A0020
6F9024FA0220
6F9021320220
6F9032222120
6F9000000020
6FECCA99CC40
4FFFF2219400
000AF1022000
000DFB622000
000CF4222000
0008FDB50000
0009FD400000
ENDCHAR
STARTCHAR lcommaaccent
ENCODING 316
SWIDTH 795 0
DWIDTH 11 0
BBX 11 18 0 -7
BITMAP
016223000000
1C9012000000
5F9022000000
6F9022000000
6F9022000000
6F9022032220
6F90227A0020
6F9024FA0220
6F9021320220
6F9032222120
6F9000000020
6FECCA99CC40
4FFFF2219400
000AF1022000
000DFB622000
000CF4222000
0008FDB50000
0009FD400000
ENDCHAR
STARTCHAR Lcaron
ENCODING 317
SWIDTH 795 0
DWIDTH 11 0
BBX 11 13 0 -2
BITMAP
016223062230
1C9012981020
5F9024F62020
6F9024F40020
6F9024F96500
6F9024FE9320
6F9023BA0020
6F9024FA0220
6F9021320220
6F9032222120
6F9000000020
6FEBBBBBBB40
4FFFFFFFE400
ENDCHAR
STARTCHAR lcaron
ENCODING 318
SWIDTH 795 0
DWIDTH 11 0
BBX 11 13 0 -2
BITMAP
016223062230
1C9012981020
5F9024F62020
6F9024F40020
6F9024F96500
6F9024FE9320
6F9023BA0020
6F9024FA0220
6F9021320220
6F9032222120
6F9000000020
6FEBBBBBBB40
4FFFFFFFE400
ENDCHAR
STARTCHAR Ldot
ENCODING 319
SWIDTH 795 0
DWIDTH 11 0
BBX 11 13 0 -2
BITMAP
016223000000
1C9012000000
5F9022022220
6F9022480020
6F9023E80220
6F9024FC6630
6F9024FE9720
6F9023BA0020
6F9021320220
6F9032222120
6F9000000020
6FEBBBBBBB30
4FFFFFFFE400
ENDCHAR
STARTCHAR ldot
ENCODING 320
SWIDTH 795 0
DWIDTH 11 0
BBX 11 13 0 -2
BITMAP
016223000000
1C9012000000
5F9022022220
6F9022480020
6F9023E80220
6F9024FC6630
6F9024FE9720
6F9023BA0020
6F9021320220
6F9032222120
6F9000000020
6FEBBBBBBB30
4FFFFFFFE400
ENDCHAR
STARTCHAR Lslash
ENCODING 321
SWIDTH 805 0
DWIDTH 11 0
BBX 12 13 -1 -2
BITMAP
000622300000
009B01200000
03FB02200000
04FB02131000
04E402002000
06D024204222
1FE1021BC002
1FFB022FC022
09FB02033022
04FB02222222
04FB00000002
04FFBBBBBBB5
02FFFFFFFF60
ENDCHAR
STARTCHAR lslash
ENCODING 322
SWIDTH 805 0
DWIDTH 11 0
BBX 12 13 -1 -2
BITMAP
000622300000
009B01200000
03FB02200000
04FB02131000
04E402002000
06D024204222
1FE1021BC002
1FFB022FC022
09FB02033022
04FB02222222
04FB00000002
04FFBBBBBBB5
02FFFFFFFF60
ENDCHAR
STARTCHAR Nacute
ENCODING 323
SWIDTH 853 0
DWIDTH 12 0
BBX 12 17 0 -2
BITMAP
000000024500
0002BDDCBA10
004E42220110
00DF10000500
009236CE4222
0A90015E1002
5F90504F1202
6F9023081202
6F9020300202
6F9020120202
6F9024311202
6F9025D12302
6F9025FB0302
6F9025FF1202
6F9003EF1002
6FEBB4DFCB70
4FFE40CFFA00
ENDCHAR
STARTCHAR nacute
ENCODING 324
SWIDTH 853 0
DWIDTH 12 0
BBX 12 17 0 -2
BITMAP
000000024500
0002BDDCBA10
004E42220110
00DF10000500
009236CE4222
0A90015E1002
5F90504F1202
6F9023081202
6F9020300202
6F9020120202
6F9024311202
6F9025D12302
6F9025FB0302
6F9025FF1202
6F9003EF1002
6FEBB4DFCB70
4FFE40CFFA00
ENDCHAR
STARTCHAR Ncommaaccent
ENCODING 325
SWIDTH 853 0
DWIDTH 12 0
BBX 12 18 0 -7
BITMAP
016222033222
1C90002D1002
5F90504F1202
6F9023081202
6F9020300202
6F9020120202
6F9024311202
6F9025D12302
6F9025FB0302
6F9025FF1202
6F9003EF1002
6FEBB789AB70
4FFFF4218A00
0009F4022000
000BFC722000
000AF6223000
0005FEC70000
0007FD500000
ENDCHAR
STARTCHAR ncommaaccent
ENCODING 326
SWIDTH 853 0
DWIDTH 12 0
BBX 12 18 0 -7
BITMAP
016222033222
1C90002D1002
5F90504F1202
6F9023081202
6F9020300202
6F9020120202
6F9024311202
6F9025D12302
6F9025FB0302
6F9025FF1202
6F9003EF1002
6FEBB789AB70
4FFFF4218A00
0009F4022000
000BFC722000
000AF6223000
0005FEC70000
0007FD500000
ENDCHAR
STARTCHAR Ncaron
ENCODING 327
SWIDTH 853 0
DWIDTH 12 0
BBX 12 17 0 -2
BITMAP
000682001200
008C04321200
02FC02221200
02FFB5138300
01A23BFF6222
0A90016E1002
5F90504F1202
6F9023081202
6F9020300202
6F9020120202
6F9024311202
6F9025D12302
6F9025FB0302
6F9025FF1202
6F9003EF1002
6FEBB4DFCB70
4FFE40CFFA00
ENDCHAR
STARTCHAR ncaron
ENCODING 328
SWIDTH 853 0
DWIDTH 12 0
BBX 12 17 0 -2
BITMAP
000682001200
008C04321200
02FC02221200
02FFB5138300
01A23BFF6222
0A90016E1002
5F90504F1202
6F9023081202
6F9020300202
6F9020120202
6F9024311202
6F9025D12302
6F9025FB0302
6F9025FF1202
6F9003EF1002
6FEBB4DFCB70
4FFE40CFFA00
ENDCHAR
STARTCHAR napostrophe
ENCODING 329
SWIDTH 853 0
DWIDTH 12 0
BBX 12 18 0 -2
BITMAP
003222000000
0A6232000000
8F6022000000
8FD831000000
6F9220000000
4FD774038773
5F90023D1002
4F90505F1202
6F9023091202
6F9020300202
6F9020120202
6F9024311202
6F9025D12302
6F9025FB0302
6F9025FF1202
6F9003EF1002
6FEBB4DFCB70
4FFE40CFFA00
ENDCHAR
STARTCHAR Eng
ENCODING 330
SWIDTH 846 0
DWIDTH 12 0
BBX 12 15 0 -4
BITMAP
000232222310
005113222020
079020000202
3F8021750202
6F8025FE0202
7F8024FE0202
7F8022FE0202
7F8022FE0202
7F8022FE0202
7F8022E80202
7F8004900102
7FEBBD902040
5FFE9FC67810
00005FFFB100
000017740000
ENDCHAR
STARTCHAR eng
ENCODING 331
SWIDTH 846 0
DWIDTH 12 0
BBX 12 15 0 -4
BITMAP
000232222310
005113222020
079020000202
3F8021750202
6F8025FE0202
7F8024FE0202
7F8022FE0202
7F8022FE0202
7F8022FE0202
7F8022E80202
7F8004900102
7FEBBD902040
5FFE9FC67810
00005FFFB100
000017740000
ENDCHAR
STARTCHAR Omacron
ENCODING 332
SWIDTH 837 0
DWIDTH 12 0
BBX 12 16 0 -2
BITMAP
000222222200
005C02221200
01FD00000300
02FE97668500
00C212222030
0A8020000202
5F6114FC0202
7F6116FE0202
8F6112FE0202
8F6112FE0202
8F6112FE0202
8F7031530202
8FA013333021
5FF710000330
1DFFFDCCD500
019DFFDA3000
ENDCHAR
STARTCHAR omacron
ENCODING 333
SWIDTH 837 0
DWIDTH 12 0
BBX 12 16 0 -2
BITMAP
000222222200
005C02221200
01FD00000300
02FE97668500
00C212222030
0A8020000202
5F6114FC0202
7F6116FE0202
8F6112FE0202
8F6112FE0202
8F6112FE0202
8F7031530202
8FA013333021
5FF710000330
1DFFFDCCD500
019DFFDA3000
ENDCHAR
STARTCHAR Obreve
ENCODING 334
SWIDTH 837 0
DWIDTH 12 0
BBX 12 17 0 -2
BITMAP
000223032200
005A10451200
02FD02221200
03FF92014200
00DE85454300
007112222030
0A8020000202
5F6114FC0202
7F6116FE0202
8F6112FE0202
8F6112FE0202
8F6112FE0202
8F7031530202
8FA013333021
5FF710000330
1DFFFDCCD500
019DFFDA3000
ENDCHAR
STARTCHAR obreve
ENCODING 335
SWIDTH 837 0
DWIDTH 12 0
BBX 12 17 0 -2
BITMAP
000223032200
005A10451200
02FD02221200
03FF92014200
00DE85454300
007112222030
0A8020000202
5F6114FC0202
7F6116FE0202
8F6112FE0202
8F6112FE0202
8F6112FE0202
8F7031530202
8FA013333021
5FF710000330
1DFFFDCCD500
019DFFDA3000
ENDCHAR
STARTCHAR Ohungarumlaut
ENCODING 336
SWIDTH 837 0
DWIDTH 12 0
BBX 12 18 0 -2
BITMAP
000032313220
0008503B0020
006F227B1120
00BD01A81110
00EB00E60200
03FE97668500
01C212222030
0A8020000202
5F6114FC0202
7F6116FE0202
8F6112FE0202
8F6112FE0202
8F6112FE0202
8F7031530202
8FA013333021
5FF710000330
1DFFFDCCD500
019DFFDA3000
ENDCHAR
STARTCHAR ohungarumlaut
ENCODING 337
SWIDTH 837 0
DWIDTH 12 0
BBX 12 18 0 -2
BITMAP
000032313220
0008503B0020
006F227B1120
00BD01A81110
00EB00E60200
03FE97668500
01C212222030
0A8020000202
5F6114FC0202
7F6116FE0202
8F6112FE0202
8F6112FE0202
8F6112FE0202
8F7031530202
8FA013333021
5FF710000330
1DFFFDCCD500
019DFFDA3000
ENDCHAR
STARTCHAR OE
ENCODING 338
SWIDTH 1115 0
DWIDTH 16 0
BBX 16 13 0 -2
BITMAP
0003222222222222
0070000000000002
0A80122223222202
4F602275021FFF80
7F6116FC02022310
8F6116FC03221020
8F6116FC02000020
8F6116FC020BB600
8F70228602088221
7FA0122223222202
5FF5000000000002
1EFFDBBBBBBBBB81
03BEFFFFFFFFFA00
ENDCHAR
STARTCHAR oe
ENCODING 339
SWIDTH 1115 0
DWIDTH 16 0
BBX 16 13 0 -2
BITMAP
0003222222222222
0070000000000002
0A80122223222202
4F602275021FFF80
7F6116FC02022310
8F6116FC03221020
8F6116FC02000020
8F6116FC020BB600
8F70228602088221
7FA0122223222202
5FF5000000000002
1EFFDBBBBBBBBB81
03BEFFFFFFFFFA00
ENDCHAR
STARTCHAR Racute
ENCODING 340
SWIDTH 843 0
DWIDTH 12 0
BBX 12 16 0 -2
BITMAP
000278999700
004B22221200
02FB00001100
03D613576200
059000000120
3E9032221020
6F9024D42020
6F9024F52020
6F9020002140
6F9042223102
6F9020000202
6F9024FF3202
6F9023EF4202
6F9002BF4002
6FEBB4BFDB92
4FFE509FFC20
ENDCHAR
STARTCHAR racute
ENCODING 341
SWIDTH 843 0
DWIDTH 12 0
BBX 12 16 0 -2
BITMAP
000278999700
004B22221200
02FB00001100
03D613576200
059000000120
3E9032221020
6F9024D42020
6F9024F52020
6F9020002140
6F9042223102
6F9020000202
6F9024FF3202
6F9023EF4202
6F9002BF4002
6FEBB4BFDB92
4FFE509FFC20
ENDCHAR
STARTCHAR Rcommaaccent
ENCODING 342
SWIDTH 843 0
DWIDTH 12 0
BBX 12 18 0 -7
BITMAP
016222223400
1C9032221020
5F9020002020
6F9024F52020
6F9024D42020
6F9020003140
6F9042233102
6F9023CB2202
6F9024FF4202
6F9012BF4102
6F9002BF4002
6FEBA479AB91
4FFFE5227C10
0008F5022000
0009FC822000
0008F7223000
0004FEC70000
0006FE600000
ENDCHAR
STARTCHAR rcommaaccent
ENCODING 343
SWIDTH 843 0
DWIDTH 12 0
BBX 12 18 0 -7
BITMAP
016222223400
1C9032221020
5F9020002020
6F9024F52020
6F9024D42020
6F9020003140
6F9042233102
6F9023CB2202
6F9024FF4202
6F9012BF4102
6F9002BF4002
6FEBA479AB91
4FFFE5227C10
0008F5022000
0009FC822000
0008F7223000
0004FEC70000
0006FE600000
ENDCHAR
STARTCHAR Rcaron
ENCODING 344
SWIDTH 843 0
DWIDTH 12 0
BBX 12 17 0 -2
BITMAP
000251001200
003C03222200
00ED02221200
01FFB6138400
01DAAAAA7200
048000000220
3F9032221020
6F9024D42020
6F9024F52020
6F9020002140
6F9042223102
6F9020000202
6F9024FF3202
6F9023EF4202
6F9002BF4002
6FEBB4BFDB92
4FFE509FFC20
ENDCHAR
STARTCHAR rcaron
ENCODING 345
SWIDTH 843 0
DWIDTH 12 0
BBX 12 17 0 -2
BITMAP
000251001200
003C03222200
00ED02221200
01FFB6138400
01DAAAAA7200
048000000220
3F9032221020
6F9024D42020
6F9024F52020
6F9020002140
6F9042223102
6F9020000202
6F9024FF3202
6F9023EF4202
6F9002BF4002
6FEBB4BFDB92
4FFE509FFC20
ENDCHAR
STARTCHAR Sacute
ENCODING 346
SWIDTH 750 0
DWIDTH 11 0
BBX 11 17 0 -2
BITMAP
000000135100
0019DECC9400
02C822210200
09F500004200
09F621022300
08A000000200
055022221300
3E5216FFD200
8F5200134300
9F9022100210
9FF831122020
4FFFFFC02020
066000002020
3E5122221010
9F5000001200
9FDBBBBC6000
8FFFFFC50000
ENDCHAR
STARTCHAR sacute
ENCODING 347
SWIDTH 750 0
DWIDTH 11 0
BBX 11 17 0 -2
BITMAP
000000135100
0019DECC9400
02C822210200
09F500004200
09F621022300
08A000000200
055022221300
3E5216FFD200
8F5200134300
9F9022100210
9FF831122020
4FFFFFC02020
066000002020
3E5122221010
9F5000001200
9FDBBBBC6000
8FFFFFC50000
ENDCHAR
STARTCHAR Scircumflex
ENCODING 348
SWIDTH 750 0
DWIDTH 11 0
BBX 11 17 0 -2
BITMAP
000002220000
000100002100
009312210200
08F89EFB6200
0BF942222300
0BA000000200
065022221300
3F5216FFD200
8F5200134300
9F9022100210
9FF831122020
4FFFFFC02020
066000002020
3E5122221010
9F5000001200
9FDBBBBC6000
8FFFFFC50000
ENDCHAR
STARTCHAR scircumflex
ENCODING 349
SWIDTH 750 0
DWIDTH 11 0
BBX 11 17 0 -2
BITMAP
000002220000
000100002100
009312210200
08F89EFB6200
0BF942222300
0BA000000200
065022221300
3F5216FFD200
8F5200134300
9F9022100210
9FF831122020
4FFFFFC02020
066000002020
3E5122221010
9F5000001200
9FDBBBBC6000
8FFFFFC50000
ENDCHAR
STARTCHAR Scedilla
ENCODING 350
SWIDTH 750 0
DWIDTH 11 0
BBX 11 15 0 -4
BITMAP
001222222300
017000000200
1D6022221200
7F5216FFD200
9F5200033200
9F9022100110
8FF831122020
3FFFFFC02020
066000002020
3E5122321110
9F5000202200
9FFE710A5000
8FFF30130000
009FFF500000
008CB4000000
ENDCHAR
STARTCHAR scedilla
ENCODING 351
SWIDTH 750 0
DWIDTH 11 0
BBX 11 15 0 -4
BITMAP
001222222300
017000000200
1D6022221200
7F5216FFD200
9F5200033200
9F9022100110
8FF831122020
3FFFFFC02020
066000002020
3E5122321110
9F5000202200
9FFE710A5000
8FFF30130000
009FFF500000
008CB4000000
ENDCHAR
STARTCHAR Scaron
ENCODING 352
SWIDTH 750 0
DWIDTH 11 0
BBX 11 17 0 -2
BITMAP
000530002100
009523220200
07F612220200
09FE83152000
08F942222300
004000000200
086022221300
5F5216FFD200
9F5200134300
9F9022100210
9FF831122020
4FFFFFC02020
066000002020
3E5122221010
9F5000001200
9FDBBBBC6000
8FFFFFC50000
ENDCHAR
STARTCHAR scaron
ENCODING 353
SWIDTH 750 0
DWIDTH 11 0
BBX 11 17 0 -2
BITMAP
000530002100
009523220200
07F612220200
09FE83152000
08F942222300
004000000200
086022221300
5F5216FFD200
9F5200134300
9F9022100210
9FF831122020
4FFFFFC02020
066000002020
3E5122221010
9F5000001200
9FDBBBBC6000
8FFFFFC50000
ENDCHAR
STARTCHAR Tcommaaccent
ENCODING 354
SWIDTH 756 0
DWIDTH 11 0
BBX 11 18 0 -7
BITMAP
053222222220
6F0222322020
EF0000200020
EFCB6022B910
CFFF8022C100
006F80220000
006F80220000
006F80220000
006F80220000
006F80220000
006F90020000
006FE9960000
004F91220000
003E90230000
006FE8420000
005FB1230000
002EFC910000
002FE9000000
ENDCHAR
STARTCHAR tcommaaccent
ENCODING 355
SWIDTH 756 0
DWIDTH 11 0
BBX 11 18 0 -7
BITMAP
053222222220
6F0222322020
EF0000200020
EFCB6022B910
CFFF8022C100
006F80220000
006F80220000
006F80220000
006F80220000
006F80220000
006F90020000
006FE9960000
004F91220000
003E90230000
006FE8420000
005FB1230000
002EFC910000
002FE9000000
ENDCHAR
STARTCHAR Tcaron
ENCODING 356
SWIDTH 756 0
DWIDTH 11 0
BBX 11 17 0 -2
BITMAP
000630002100
01B423220200
09F412220200
0AFE82152000
083222222220
4E0000000020
EF0222322020
EFCB6022B910
DFFF8022C100
006F80220000
006F80220000
006F80220000
006F80220000
006F80220000
006F90020000
006FEBB40000
004FFF500000
ENDCHAR
STARTCHAR tcaron
ENCODING 357
SWIDTH 756 0
DWIDTH 11 0
BBX 11 17 0 -2
BITMAP
000630002100
01B423220200
09F412220200
0AFE82152000
083222222220
4E0000000020
EF0222322020
EFCB6022B910
DFFF8022C100
006F80220000
006F80220000
006F80220000
006F80220000
006F80220000
006F90020000
006FEBB40000
004FFF500000
ENDCHAR
STARTCHAR Tbar
ENCODING 358
SWIDTH 756 0
DWIDTH 11 0
BBX 11 13 0 -2
BITMAP
043222222220
4F0000000020
EF0222322020
EF6420214410
EFFF8022F500
57A950216200
04E022420200
0EF310202300
0FFF8022B100
09CF80220000
006F90020000
006FEBB40000
004FFF600000
ENDCHAR
STARTCHAR tbar
ENCODING 359
SWIDTH 756 0
DWIDTH 11 0
BBX 11 13 0 -2
BITMAP
043222222220
4F0000000020
EF0222322020
EF6420214410
EFFF8022F500
57A950216200
04E022420200
0EF310202300
0FFF8022B100
09CF80220000
006F90020000
006FEBB40000
004FFF600000
ENDCHAR
STARTCHAR Utilde
ENCODING 360
SWIDTH 846 0
DWIDTH 12 0
BBX 12 16 0 -2
BITMAP
000313332100
006D02221200
00FE24311100
02A227FF4222
2D8013CF0102
6F8022EF0202
7F8022EF0202
7F8022EF0202
7F8022EF0202
7F8022EF0202
7F8022EE0202
7F8030000202
6FB013322011
4FF810000320
0CFFFDCCD400
018DFFDA3000
ENDCHAR
STARTCHAR utilde
ENCODING 361
SWIDTH 846 0
DWIDTH 12 0
BBX 12 16 0 -2
BITMAP
000313332100
006D02221200
00FE24311100
02A227FF4222
2D8013CF0102
6F8022EF0202
7F8022EF0202
7F8022EF0202
7F8022EF0202
7F8022EF0202
7F8022EE0202
7F8030000202
6FB013322011
4FF810000320
0CFFFDCCD400
018DFFDA3000
ENDCHAR
STARTCHAR Umacron
ENCODING 362
SWIDTH 846 0
DWIDTH 12 0
BBX 12 16 0 -2
BITMAP
000222222200
003C02221200
00EE00000000
01D99CFFA993
088004DF0002
5F8022DF0202
7F8022EF0202
7F8022EF0202
7F8022EF0202
7F8022EF0202
7F8022EE0202
7F8030110202
6FB013323011
4FF810000220
0DFFFDCCD400
019DFFDA3000
ENDCHAR
STARTCHAR umacron
ENCODING 363
SWIDTH 846 0
DWIDTH 12 0
BBX 12 16 0 -2
BITMAP
000222222200
003C02221200
00EE00000000
01D99CFFA993
088004DF0002
5F8022DF0202
7F8022EF0202
7F8022EF0202
7F8022EF0202
7F8022EF0202
7F8022EE0202
7F8030110202
6FB013323011
4FF810000220
0DFFFDCCD400
019DFFDA3000
ENDCHAR
STARTCHAR Ubreve
ENCODING 364
SWIDTH 846 0
DWIDTH 12 0
BBX 12 17 0 -2
BITMAP
000222132300
004B10351200
02FE02222100
02FF92012000
019227FF4222
1C8004CF0002
6F8022DF0202
7F8022EF0202
7F8022EF0202
7F8022EF0202
7F8022EF0202
7F8022EE0202
7F8030110202
6FB013323011
4FF810000320
0CFFFDCCD400
018DFFDA3000
ENDCHAR
STARTCHAR ubreve
ENCODING 365
SWIDTH 846 0
DWIDTH 12 0
BBX 12 17 0 -2
BITMAP
000222132300
004B10351200
02FE02222100
02FF92012000
019227FF4222
1C8004CF0002
6F8022DF0202
7F8022EF0202
7F8022EF0202
7F8022EF0202
7F8022EF0202
7F8022EE0202
7F8030110202
6FB013323011
4FF810000320
0CFFFDCCD400
018DFFDA3000
ENDCHAR
STARTCHAR Uring
ENCODING 366
SWIDTH 846 0
DWIDTH 12 0
BBX 12 19 0 -2
BITMAP
000012223100
000522222300
008C11962200
01FC21D92200
02FD02222100
02FF92001100
019227FF4222
1C8013AF0102
6F8022EF0202
7F8022EF0202
7F8022EF0202
7F8022EF0202
7F8022EF0202
7F8022EF0202
7F8030650202
6FB013322011
4FF810000320
0CFFFDCCD400
018DFFDA3000
ENDCHAR
STARTCHAR uring
ENCODING 367
SWIDTH 846 0
DWIDTH 12 0
BBX 12 19 0 -2
BITMAP
000012223100
000522222300
008C11962200
01FC21D92200
02FD02222100
02FF92001100
019227FF4222
1C8013AF0102
6F8022EF0202
7F8022EF0202
7F8022EF0202
7F8022EF0202
7F8022EF0202
7F8022EF0202
7F8030650202
6FB013322011
4FF810000320
0CFFFDCCD400
018DFFDA3000
ENDCHAR
STARTCHAR Uhungarumlaut
ENCODING 368
SWIDTH 846 0
DWIDTH 12 0
BBX 12 18 0 -2
BITMAP
000032213220
0006701B2020
004F425D0210
008F118A1010
00CD00C80100
01D99CFFA993
088004CF0002
5F8022DF0202
7F8022EF0202
7F8022EF0202
7F8022EF0202
7F8022EF0202
7F8022EE0202
7F8030110202
6FB013323011
4FF810000220
0DFFFDCCD400
019DFFDA3000
ENDCHAR
STARTCHAR uhungarumlaut
ENCODING 369
SWIDTH 846 0
DWIDTH 12 0
BBX 12 18 0 -2
BITMAP
000032213220
0006701B2020
004F425D0210
008F118A1010
00CD00C80100
01D99CFFA993
088004CF0002
5F8022DF0202
7F8022EF0202
7F8022EF0202
7F8022EF0202
7F8022EF0202
7F8022EE0202
7F8030110202
6FB013323011
4FF810000220
0DFFFDCCD400
019DFFDA3000
ENDCHAR
STARTCHAR Uogonek
ENCODING 370
SWIDTH 846 0
DWIDTH 12 0
BBX 12 16 0 -5
BITMAP
016223053222
1C80126F0102
6F8022EF0202
7F8022EF0202
7F8022EF0202
7F8022EF0202
7F8022EF0202
7F8022EE0202
7F8030000302
6FC013333011
4FFA20200330
0DFFF821C500
02BFF7212100
0007FB102000
0007FFFF5000
0002ABB40000
ENDCHAR
STARTCHAR uogonek
ENCODING 371
SWIDTH 846 0
DWIDTH 12 0
BBX 12 16 0 -5
BITMAP
016223053222
1C80126F0102
6F8022EF0202
7F8022EF0202
7F8022EF0202
7F8022EF0202
7F8022EF0202
7F8022EE0202
7F8030000302
6FC013333011
4FFA20200330
0DFFF821C500
02BFF7212100
0007FB102000
0007FFFF5000
0002ABB40000
ENDCHAR
STARTCHAR Wcircumflex
ENCODING 372
SWIDTH 931 0
DWIDTH 13 0
BBX 13 17 0 -2
BITMAP
00000132300000
00005300033000
001B7022202000
007F837A621000
027228FFF72220
2E700228F50020
7F702208F52020
8F70220AF52020
8F702237D52020
8F702530452020
8F702212122020
8F702020202020
7FA0220A122020
6FE1223F121100
2FF5007F500200
0CFEB9CFEB8100
06FFC27FFB1000
ENDCHAR
STARTCHAR wcircumflex
ENCODING 373
SWIDTH 931 0
DWIDTH 13 0
BBX 13 17 0 -2
BITMAP
00000132300000
00005300033000
001B7022202000
007F837A621000
027228FFF72220
2E700228F50020
7F702208F52020
8F70220AF52020
8F702237D52020
8F702530452020
8F702212122020
8F702020202020
7FA0220A122020
6FE1223F121100
2FF5007F500200
0CFEB9CFEB8100
06FFC27FFB1000
ENDCHAR
STARTCHAR Ycircumflex
ENCODING 374
SWIDTH 805 0
DWIDTH 11 0
BBX 11 17 0 -2
BITMAP
000002220000
000320002200
008902220200
05FB7BEC7300
06622BFD2230
3E4102CB0120
AF4205FB0220
BF4205FA0220
BF4111E31220
AFA030002030
8FF412021210
2EFD11320200
06FF90203000
00BFE0202000
002FE0002000
000FFBB81000
000EFFA10000
ENDCHAR
STARTCHAR ycircumflex
ENCODING 375
SWIDTH 805 0
DWIDTH 11 0
BBX 11 17 0 -2
BITMAP
000002220000
000320002200
008902220200
05FB7BEC7300
06622BFD2230
3E4102CB0120
AF4205FB0220
BF4205FA0220
BF4111E31220
AFA030002030
8FF412021210
2EFD11320200
06FF90203000
00BFE0202000
002FE0002000
000FFBB81000
000EFFA10000
ENDCHAR
STARTCHAR Ydieresis
ENCODING 376
SWIDTH 805 0
DWIDTH 11 0
BBX 11 16 0 -2
BITMAP
000322422200
01B410C01200
09F500C00000
0AB99EFE9990
0B4007EB0020
7F4204FB0220
BF4205FB0220
BF4214F70220
BF9030702010
AFF312011110
3FFD12320200
07FF90202000
00BFE0202000
002FE0002000
000FFBB81000
000EFFA10000
ENDCHAR
STARTCHAR Zacute
ENCODING 377
SWIDTH 760 0
DWIDTH 11 0
BBX 11 17 0 -2
BITMAP
000000135100
0009DEDC9500
01C922210200
07F700003200
08A132022310
1C8000000110
6F8022222110
7FEBB8012210
5FFFE2030300
000750303000
004802021000
01A021120000
0B4120222210
7F4122222020
AF4000000020
AFDBBBBBB810
9FFFFFFFA100
ENDCHAR
STARTCHAR zacute
ENCODING 378
SWIDTH 760 0
DWIDTH 11 0
BBX 11 17 0 -2
BITMAP
000000135100
0009DEDC9500
01C922210200
07F700003200
08A132022310
1C8000000110
6F8022222110
7FEBB8012210
5FFFE2030300
000750303000
004802021000
01A021120000
0B4120222210
7F4122222020
AF4000000020
AFDBBBBBB810
9FFFFFFFA100
ENDCHAR
STARTCHAR Zdotaccent
ENCODING 379
SWIDTH 760 0
DWIDTH 11 0
BBX 11 16 0 -2
BITMAP
000042230000
001AA0220000
005FA0000000
016222222310
1C8000000110
6F8022222110
7FEBB8012210
5FFFE2030300
000750303000
004802021000
01A021120000
0B4120222210
7F4122222020
AF4000000020
AFDBBBBBB810
9FFFFFFFA100
ENDCHAR
STARTCHAR zdotaccent
ENCODING 380
SWIDTH 760 0
DWIDTH 11 0
BBX 11 16 0 -2
BITMAP
000042230000
001AA0220000
005FA0000000
016222222310
1C8000000110
6F8022222110
7FEBB8012210
5FFFE2030300
000750303000
004802021000
01A021120000
0B4120222210
7F4122222020
AF4000000020
AFDBBBBBB810
9FFFFFFFA100
ENDCHAR
STARTCHAR Zcaron
ENCODING 381
SWIDTH 760 0
DWIDTH 11 0
BBX 11 17 0 -2
BITMAP
000530002100
01B523220200
09F512220200
0AFE83152000
07A222222310
098000000110
6F8022222110
7FEBB8012210
5FFFE2030300
000750303000
004802021000
01A021120000
0B4120222210
7F4122222020
AF4000000020
AFDBBBBBB810
9FFFFFFFA100
ENDCHAR
STARTCHAR zcaron
ENCODING 382
SWIDTH 760 0
DWIDTH 11 0
BBX 11 17 0 -2
BITMAP
000530002100
01B523220200
09F512220200
0AFE83152000
07A222222310
098000000110
6F8022222110
7FEBB8012210
5FFFE2030300
000750303000
004802021000
01A021120000
0B4120222210
7F4122222020
AF4000000020
AFDBBBBBB810
9FFFFFFFA100
ENDCHAR
STARTCHAR Schwa
ENCODING 399
SWIDTH 815 0
DWIDTH 11 0
BBX 12 13 0 -2
BITMAP
001622222210
02D712222030
08F811100220
08FFFFFC0211
068333330211
2D5122222311
9F5200110211
9F5206FD0211
9F6110321220
9F9022222020
7FF710000320
3FFFFDCCC200
03AEFFD91000
ENDCHAR
STARTCHAR florin
ENCODING 402
SWIDTH 674 0
DWIDTH 9 0
BBX 10 13 0 -2
BITMAP
0000122231
0002600002
002E302202
00AF120560
02A8020630
3E41242202
AF40020012
BFFE020C90
6D62020700
4E41211200
AF40013000
BFDBC60000
9FFC500000
ENDCHAR
STARTCHAR Ohorn
ENCODING 416
SWIDTH 847 0
DWIDTH 12 0
BBX 13 14 0 -2
BITMAP
00000000142300
00022222213210
00501101531300
09802000040200
4F6114FC020200
7F6116FE020200
8F6112FE020200
8F6112FE020200
8F6122FE020200
8F703153020200
8FA01333302100
7FF71000032000
2FFFFDCCD40000
03AEFFDA200000
ENDCHAR
STARTCHAR ohorn
ENCODING 417
SWIDTH 847 0
DWIDTH 12 0
BBX 13 14 0 -2
BITMAP
00000000142300
00022222213210
00501101531300
09802000040200
4F6114FC020200
7F6116FE020200
8F6112FE020200
8F6112FE020200
8F6122FE020200
8F703153020200
8FA01333302100
7FF71000032000
2FFFFDCCD40000
03AEFFDA200000
ENDCHAR
STARTCHAR Uhorn
ENCODING 431
SWIDTH 856 0
DWIDTH 12 0
BBX 13 14 0 -2
BITMAP
00000000032210
01622302012020
1C80126E022300
6F8022EF020200
7F8022EF020200
7F8022EF020200
7F8022EF020200
7F8022EF020200
7F8022EE020200
7F803000020200
7FB01332201100
5FF81000032000
1DFFFDCCD40000
029DFFDA300000
ENDCHAR
STARTCHAR uhorn
ENCODING 432
SWIDTH 856 0
DWIDTH 12 0
BBX 13 14 0 -2
BITMAP
00000000032210
01622302012020
1C80126E022300
6F8022EF020200
7F8022EF020200
7F8022EF020200
7F8022EF020200
7F8022EF020200
7F8022EE020200
7F803000020200
7FB01332201100
5FF81000032000
1DFFFDCCD40000
029DFFDA300000
ENDCHAR
STARTCHAR Acaron
ENCODING 461
SWIDTH 830 0
DWIDTH 12 0
BBX 12 17 0 -2
BITMAP
000351001200
004B03221200
01FC02221200
03FFB5134000
02FF52222200
002B00000200
006702230110
00E211512020
05C020E52020
0B8014F90211
1F6110000202
6F5222222302
8F5200000202
9F5208FE0202
9F6107FE0102
9FDBB4FFBB60
7FFD30EFF800
ENDCHAR
STARTCHAR acaron
ENCODING 462
SWIDTH 830 0
DWIDTH 12 0
BBX 12 17 0 -2
BITMAP
000351001200
004B03221200
01FC02221200
03FFB5134000
02FF52222200
002B00000200
006702230110
00E211512020
05C020E52020
0B8014F90211
1F6110000202
6F5222222302
8F5200000202
9F5208FE0202
9F6107FE0102
9FDBB4FFBB60
7FFD30EFF800
ENDCHAR
STARTCHAR Icaron
ENCODING 463
SWIDTH 705 0
DWIDTH 10 0
BBX 10 17 0 -2
BITMAP
0025100120
03C0322220
0EE0122120
0FFC612510
0D82222222
0A50000002
8F51232202
9FA6120351
9FFF420730
25CF420200
00BF420200
00BF420200
0088220221
0A51232202
8F60000002
9FDBBBBB91
7FFFFFFC10
ENDCHAR
STARTCHAR icaron
ENCODING 464
SWIDTH 705 0
DWIDTH 10 0
BBX 10 17 0 -2
BITMAP
0025100120
03C0322220
0EE0122120
0FFC612510
0D82222222
0A50000002
8F51232202
9FA6120351
9FFF420730
25CF420200
00BF420200
00BF420200
0088220221
0A51232202
8F60000002
9FDBBBBB91
7FFFFFFC10
ENDCHAR
STARTCHAR Ocaron
ENCODING 465
SWIDTH 837 0
DWIDTH 12 0
BBX 12 17 0 -2
BITMAP
000351001200
004C03221200
01FD02221200
02FFB5137200
01BD74343200
006112222020
0A8020000202
5F6114FC0202
7F6116FE0202
8F6112FE0202
8F6112FE0202
8F6112FE0202
8F7031530202
8FA013333021
5FF710000330
1DFFFDCCD500
019DFFDA3000
ENDCHAR
STARTCHAR ocaron
ENCODING 466
SWIDTH 837 0
DWIDTH 12 0
BBX 12 17 0 -2
BITMAP
000351001200
004C03221200
01FD02221200
02FFB5137200
01BD74343200
006112222020
0A8020000202
5F6114FC0202
7F6116FE0202
8F6112FE0202
8F6112FE0202
8F6112FE0202
8F7031530202
8FA013333021
5FF710000330
1DFFFDCCD500
019DFFDA3000
ENDCHAR
STARTCHAR Ucaron
ENCODING 467
SWIDTH 846 0
DWIDTH 12 0
BBX 12 17 0 -2
BITMAP
000582001200
007D03322200
01FE02221100
01FFC6125100
019227ED3222
1D80127F0102
6F8022EF0202
7F8022EF0202
7F8022EF0202
7F8022EF0202
7F8022EF0202
7F8022EE0202
7F8030000202
6FB013322011
4FF810000320
0CFFFDCCD400
018DFFDA3000
ENDCHAR
STARTCHAR ucaron
ENCODING 468
SWIDTH 846 0
DWIDTH 12 0
BBX 12 17 0 -2
BITMAP
000582001200
007D03322200
01FE02221100
01FFC6125100
019227ED3222
1D80127F0102
6F8022EF0202
7F8022EF0202
7F8022EF0202
7F8022EF0202
7F8022EF0202
7F8022EE0202
7F8030000202
6FB013322011
4FF810000320
0CFFFDCCD400
018DFFDA3000
ENDCHAR
STARTCHAR Udieresismacron
ENCODING 469
SWIDTH 846 0
DWIDTH 12 0
BBX 12 19 0 -2
BITMAP
000222222200
005C02221200
01FE77A97600
01F900930020
02E811931020
06F900A40110
06D99CFFA993
0A8004DF0002
6F8022DF0202
7F8022EF0202
7F8022EF0202
7F8022EF0202
7F8022EF0202
7F8022EE0202
7F8030110202
6FB013323011
4FF810000220
0DFFFDCCD400
019DFFDA3000
ENDCHAR
STARTCHAR udieresismacron
ENCODING 470
SWIDTH 846 0
DWIDTH 12 0
BBX 12 19 0 -2
BITMAP
000222222200
005C02221200
01FE77A97600
01F900930020
02E811931020
06F900A40110
06D99CFFA993
0A8004DF0002
6F8022DF0202
7F8022EF0202
7F8022EF0202
7F8022EF0202
7F8022EF0202
7F8022EE0202
7F8030110202
6FB013323011
4FF810000220
0DFFFDCCD400
019DFFDA3000
ENDCHAR
STARTCHAR Udieresisacute
ENCODING 471
SWIDTH 846 0
DWIDTH 12 0
BBX 12 20 0 -2
BITMAP
0000028CA000
00003EDA7000
0002FC001000
000485255200
006800520020
04F811931020
06F900A40110
06D99CFFA993
2D8004DF0002
7F8022DF0202
7F8022EF0202
7F8022EF0202
7F8022EF0202
7F8022EF0202
7F8022EE0202
7F8030110202
6FB013323011
4FF810000220
0CFFFDCCD400
018DFFDA3000
ENDCHAR
STARTCHAR udieresisacute
ENCODING 472
SWIDTH 846 0
DWIDTH 12 0
BBX 12 20 0 -2
BITMAP
0000028CA000
00003EDA7000
0002FC001000
000485255200
006800520020
04F811931020
06F900A40110
06D99CFFA993
2D8004DF0002
7F8022DF0202
7F8022EF0202
7F8022EF0202
7F8022EF0202
7F8022EF0202
7F8022EE0202
7F8030110202
6FB013323011
4FF810000220
0CFFFDCCD400
018DFFDA3000
ENDCHAR
STARTCHAR Udieresiscaron
ENCODING 473
SWIDTH 846 0
DWIDTH 12 0
BBX 12 21 0 -2
BITMAP
000110000000
001BE6001200
00CD04422200
01FE42222300
01FD88A87200
009800930020
02E811931020
06F900A40110
06D99CFFA993
1B8004DF0002
6F8022DF0202
7F8022EF0202
7F8022EF0202
7F8022EF0202
7F8022EF0202
7F8022EE0202
7F8030110202
6FB013323011
4FF810000220
0CFFFDCCD400
018DFFDA3000
ENDCHAR
STARTCHAR udieresiscaron
ENCODING 474
SWIDTH 846 0
DWIDTH 12 0
BBX 12 21 0 -2
BITMAP
000110000000
001BE6001200
00CD04422200
01FE42222300
01FD88A87200
009800930020
02E811931020
06F900A40110
06D99CFFA993
1B8004DF0002
6F8022DF0202
7F8022EF0202
7F8022EF0202
7F8022EF0202
7F8022EF0202
7F8022EE0202
7F8030110202
6FB013323011
4FF810000220
0CFFFDCCD400
018DFFDA3000
ENDCHAR
STARTCHAR Udieresisgrave
ENCODING 475
SWIDTH 846 0
DWIDTH 12 0
BBX 12 20 0 -2
BITMAP
00003DB70000
0005F8BD3000
000BF3002000
000981150200
006800810020
04F811931020
06F900A40110
06D99CFFA993
2D8004DF0002
7F8022DF0202
7F8022EF0202
7F8022EF0202
7F8022EF0202
7F8022EF0202
7F8022EE0202
7F8030110202
6FB013323011
4FF810000220
0CFFFDCCD400
018DFFDA3000
ENDCHAR
STARTCHAR udieresisgrave
ENCODING 476
SWIDTH 846 0
DWIDTH 12 0
BBX 12 20 0 -2
BITMAP
00003DB70000
0005F8BD3000
000BF3002000
000981150200
006800810020
04F811931020
06F900A40110
06D99CFFA993
2D8004DF0002
7F8022DF0202
7F8022EF0202
7F8022EF0202
7F8022EF0202
7F8022EF0202
7F8022EE0202
7F8030110202
6FB013323011
4FF810000220
0CFFFDCCD400
018DFFDA3000
ENDCHAR
STARTCHAR Gcaron
ENCODING 486
SWIDTH 808 0
DWIDTH 11 0
BBX 11 17 0 -2
BITMAP
000440001200
006913221200
03FA02220200
05FFA4044000
03FC53222300
003100000200
047022221200
2E6023BBB400
6F6116FF6000
8F6112032220
8F6112890020
8F6115F90220
8F7030320220
8FA022222120
5FF600000020
1DFFECBBBB40
02BEFFFFE500
ENDCHAR
STARTCHAR gcaron
ENCODING 487
SWIDTH 808 0
DWIDTH 11 0
BBX 11 17 0 -2
BITMAP
000440001200
006913221200
03FA02220200
05FFA4044000
03FC53222300
003100000200
047022221200
2E6023BBB400
6F6116FF6000
8F6112032220
8F6112890020
8F6115F90220
8F7030320220
8FA022222120
5FF600000020
1DFFECBBBB40
02BEFFFFE500
ENDCHAR
STARTCHAR Scommaaccent
ENCODING 536
SWIDTH 750 0
DWIDTH 11 0
BBX 11 18 0 -7
BITMAP
001322222300
017022221200
1D6110000300
7F5206FFD200
9F5120134300
9F9013320210
8FF831003020
3FFFFFC02020
066000002020
3E5122221010
9F5000000000
9FECC99B3000
8FFFA1221000
002EA0031000
004FE8430000
003FD1220000
001DFC910000
001EE9000000
ENDCHAR
STARTCHAR scommaaccent
ENCODING 537
SWIDTH 750 0
DWIDTH 11 0
BBX 11 18 0 -7
BITMAP
001322222300
017022221200
1D6110000300
7F5206FFD200
9F5120134300
9F9013320210
8FF831003020
3FFFFFC02020
066000002020
3E5122221010
9F5000000000
9FECC99B3000
8FFFA1221000
002EA0031000
004FE8430000
003FD1220000
001DFC910000
001EE9000000
ENDCHAR
STARTCHAR uni021A
ENCODING 538
SWIDTH 756 0
DWIDTH 11 0
BBX 11 18 0 -7
BITMAP
053222222220
6F0222322020
EF0000200020
EFCB6022B910
CFFF8022C100
006F80220000
006F80220000
006F80220000
006F80220000
006F80220000
006F90020000
006FE9960000
004F91220000
003E90230000
006FE8420000
005FB1230000
002EFC910000
002FE9000000
ENDCHAR
STARTCHAR uni021B
ENCODING 539
SWIDTH 756 0
DWIDTH 11 0
BBX 11 18 0 -7
BITMAP
053222222220
6F0222322020
EF0000200020
EFCB6022B910
CFFF8022C100
006F80220000
006F80220000
006F80220000
006F80220000
006F80220000
006F90020000
006FE9960000
004F91220000
003E90230000
006FE8420000
005FB1230000
002EFC910000
002FE9000000
ENDCHAR
STARTCHAR dotlessj
ENCODING 567
SWIDTH 788 0
DWIDTH 11 0
BBX 11 13 0 -2
BITMAP
000000342220
000004E21020
00000CF22020
00000CF22020
00000CF22020
01322DF22020
1C300CF22020
BF320BF12020
CF3211203020
BF6023230020
9FE400001300
4FFFECCD7000
04BEFEB50000
ENDCHAR
STARTCHAR ascript
ENCODING 593
SWIDTH 846 0
DWIDTH 12 0
BBX 12 13 0 -2
BITMAP
000232222310
005113222030
098020000211
4F6114FB0202
7F6116FE0202
8F6112FE0202
8F6112FE0202
8F6112FE0202
8F7020220202
8FA012222202
6FF600000002
2FFFECBBBB70
04BEFFFFF900
ENDCHAR
STARTCHAR schwa
ENCODING 601
SWIDTH 815 0
DWIDTH 11 0
BBX 12 13 0 -2
BITMAP
001622222210
02D712222030
08F811100220
08FFFFFC0211
068333330211
2D5122222311
9F5200110211
9F5206FD0211
9F6110321220
9F9022222020
7FF710000320
3FFFFDCCC200
03AEFFD91000
ENDCHAR
STARTCHAR gscript
ENCODING 609
SWIDTH 815 0
DWIDTH 11 0
BBX 12 14 0 -3
BITMAP
000332223310
006012222030
0A6120001220
6F5206F90211
9F5207FC0211
AF6110110211
9FA022222311
8FF931000211
2EFFFFFB0211
029933310220
02D712222030
07F800001410
08FFFFFFC200
04BBBBA60000
ENDCHAR
STARTCHAR commaturnedmod
ENCODING 699
SWIDTH 600 0
DWIDTH 8 0
BBX 6 7 1 4
BITMAP
002453
048285
2F7202
6F7222
7F8002
7FFFD2
4BBA20
ENDCHAR
STARTCHAR apostrophemod
ENCODING 700
SWIDTH 600 0
DWIDTH 8 0
BBX 6 7 1 5
BITMAP
003222
087122
6F7022
7FD832
6FA123
2EEC80
4FE700
ENDCHAR
STARTCHAR ringhalfright
ENCODING 702
SWIDTH 412 0
DWIDTH 6 0
BBX 6 7 0 4
BITMAP
063222
7F3212
DFF722
9E6222
4E1232
DFFF60
9BA400
ENDCHAR
STARTCHAR ringhalfleft
ENCODING 703
SWIDTH 412 0
DWIDTH 6 0
BBX 6 7 0 4
BITMAP
014223
2C1212
BF1281
DF1232
DF7212
CFFFE3
4BBA20
ENDCHAR
STARTCHAR circumflex
ENCODING 710
SWIDTH 600 0
DWIDTH 8 0
BBX 9 5 0 10
BITMAP
0001222000
0232222210
4E30230020
CFBDFFE910
BD97AEB100
ENDCHAR
STARTCHAR caron
ENCODING 711
SWIDTH 600 0
DWIDTH 8 0
BBX 9 6 0 9
BITMAP
0152000200
1B32322020
AF31221020
CFD7216600
AFFFFF8000
05BE920000
ENDCHAR
STARTCHAR verticallinemod
ENCODING 712
SWIDTH 456 0
DWIDTH 6 0
BBX 6 8 0 3
BITMAP
016223
2D7022
7F7022
7F7022
7F7002
7F8002
7FFFE3
5BCB20
ENDCHAR
STARTCHAR firsttonechinese
ENCODING 713
SWIDTH 600 0
DWIDTH 8 0
BBX 9 5 0 9
BITMAP
0032222200
1B31222020
AF30000120
CFFFFFF700
7CCCCB5000
ENDCHAR
STARTCHAR secondtonechinese
ENCODING 714
SWIDTH 600 0
DWIDTH 8 0
BBX 9 6 0 8
BITMAP
0001222210
0441022020
5F31200220
CFAACDE400
BFECA82000
1100000000
ENDCHAR
STARTCHAR fourthtonechinese
ENCODING 715
SWIDTH 600 0
DWIDTH 8 0
BBX 9 6 0 8
BITMAP
0132222000
2C31200210
BF51022020
CFFFECA710
59BDFFB100
0000010000
ENDCHAR
STARTCHAR verticallinelowmod
ENCODING 716
SWIDTH 456 0
DWIDTH 6 0
BBX 6 8 0 -4
BITMAP
016223
2D7022
7F7022
7F7022
7F7002
7F8002
7FFFE3
5BCB20
ENDCHAR
STARTCHAR breve
ENCODING 728
SWIDTH 600 0
DWIDTH 8 0
BBX 9 6 0 9
BITMAP
0132122210
1C11271120
BF32222020
DFC3002500
BFFFFFA000
2BEFD70000
ENDCHAR
STARTCHAR dotaccent
ENCODING 729
SWIDTH 600 0
DWIDTH 8 0
BBX 6 6 1 9
BITMAP
003222
068002
4F8022
7F9002
7FFFD2
3BCB20
ENDCHAR
STARTCHAR ring
ENCODING 730
SWIDTH 600 0
DWIDTH 8 0
BBX 9 8 0 9
BITMAP
0002222100
0242222210
2D22691120
BF129D1120
DF22222020
DFB3002600
BFFFFFB100
2BEFD80000
ENDCHAR
STARTCHAR ogonek
ENCODING 731
SWIDTH 600 0
DWIDTH 8 0
BBX 7 6 1 -5
BITMAP
00332200
07A20300
2F922020
5FC10110
5FFFF500
19BB5000
ENDCHAR
STARTCHAR tilde
ENCODING 732
SWIDTH 600 0
DWIDTH 8 0
BBX 9 5 0 9
BITMAP
0133443300
1C31222020
AF44420420
CFFFFFF600
ABBDEC4000
ENDCHAR
STARTCHAR hungarumlaut
ENCODING 733
SWIDTH 600 0
DWIDTH 8 0
BBX 10 7 -1 9
BITMAP
0003231322
009403B002
07F128A202
0CC01B7110
0FA01F4020
4FFFDFFD20
3BB57CA100
ENDCHAR
STARTCHAR gravecmb
ENCODING 768
SWIDTH 100 0
DWIDTH 1 0
BBX 9 6 -4 8
BITMAP
0032222100
07A0210130
4FC2012120
4FFFFDB930
18ACEFE500
0000011000
ENDCHAR
STARTCHAR acutecmb
ENCODING 769
SWIDTH 100 0
DWIDTH 1 0
BBX 9 6 -4 8
BITMAP
0000222220
0061012120
1CA0210130
4FD9BCEA10
4FFDB96000
0100000000
ENDCHAR
STARTCHAR circumflexcmb
ENCODING 770
SWIDTH 100 0
DWIDTH 1 0
BBX 9 5 -4 10
BITMAP
0000222100
0042222220
1AA0141020
4FDBFFFC40
4EB78DF600
ENDCHAR
STARTCHAR tildecmb
ENCODING 771
SWIDTH 100 0
DWIDTH 1 0
BBX 9 5 -4 9
BITMAP
0030444310
05A0222120
3FB3431150
4FFFFFFC10
3DACEE9000
ENDCHAR
STARTCHAR uni0304
ENCODING 772
SWIDTH 600 0
DWIDTH 8 0
BBX 9 5 0 9
BITMAP
0032222200
1B31222020
AF30000120
CFFFFFF700
7CCCCB5000
ENDCHAR
STARTCHAR brevecmb
ENCODING 774
SWIDTH 100 0
DWIDTH 1 0
BBX 9 6 -4 9
BITMAP
0032303220
0691153120
4FA0222130
5FF7101420
3FFFFFE300
07DFEB3000
ENDCHAR
STARTCHAR dotaccentcmb
ENCODING 775
SWIDTH 100 0
DWIDTH 1 0
BBX 6 6 -2 9
BITMAP
013221
1C0002
CF0202
EF1002
EFFF70
9CB600
ENDCHAR
STARTCHAR dieresiscmb
ENCODING 776
SWIDTH 100 0
DWIDTH 1 0
BBX 9 5 -4 9
BITMAP
0032242220
1A610B0120
8F600C1030
8FFFFFFF60
5BC79CB400
ENDCHAR
STARTCHAR hookcmb
ENCODING 777
SWIDTH 100 0
DWIDTH 1 0
BBX 7 7 -2 9
BITMAP
02222200
3E122220
DFA82220
EFA12220
3FD8A600
4FFF6000
16410000
ENDCHAR
STARTCHAR ringcmb
ENCODING 778
SWIDTH 100 0
DWIDTH 1 0
BBX 9 8 -4 9
BITMAP
0002222200
0051222120
08921A4220
3F922F5220
6FA0322130
6FF6101430
4FFFFFF500
07DFEB3000
ENDCHAR
STARTCHAR hungarumlautcmb
ENCODING 779
SWIDTH 100 0
DWIDTH 1 0
BBX 10 7 -4 9
BITMAP
0003231322
008503B002
06F127B212
0BD01B7111
0EB01E5020
3FFFDFFD20
2BB56CB200
ENDCHAR
STARTCHAR caroncmb
ENCODING 780
SWIDTH 100 0
DWIDTH 1 0
BBX 9 6 -4 9
BITMAP
0034000120
05A1322120
3FA0222020
4FFA514830
3FFFFFD200
028EC50000
ENDCHAR
STARTCHAR horncmb
ENCODING 795
SWIDTH 100 0
DWIDTH 1 0
BBX 7 6 -3 7
BITMAP
00032300
00660110
04D12200
0BD22100
1FEB5000
1EC50000
ENDCHAR
STARTCHAR dotbelowcmb
ENCODING 803
SWIDTH 100 0
DWIDTH 1 0
BBX 6 6 -2 -6
BITMAP
013221
1C0002
CF0202
EF1002
EFFF70
9CB600
ENDCHAR
STARTCHAR dieresisbelowcmb
ENCODING 804
SWIDTH 100 0
DWIDTH 1 0
BBX 9 5 -4 -5
BITMAP
0032242220
1A610B0120
8F600C1030
8FFFFFFF60
5BC79CB400
ENDCHAR
STARTCHAR commaaccent
ENCODING 806
SWIDTH 600 0
DWIDTH 8 0
BBX 6 7 1 -7
BITMAP
003222
087122
6F7022
7FD832
6FA123
2EEC80
4FE700
ENDCHAR
STARTCHAR cedillacmb
ENCODING 807
SWIDTH 100 0
DWIDTH 1 0
BBX 7 6 -3 -4
BITMAP
00051100
00972030
04F22120
09B00300
1EECA300
3FFD2000
ENDCHAR
STARTCHAR ogonekcmb
ENCODING 808
SWIDTH 100 0
DWIDTH 1 0
BBX 6 6 -2 -5
BITMAP
004330
0A7213
5F5212
8F9102
9FFFE3
2ABB30
ENDCHAR
STARTCHAR brevebelowcmb
ENCODING 814
SWIDTH 100 0
DWIDTH 1 0
BBX 9 6 -4 -6
BITMAP
0032303220
0691153120
4FA0222130
5FF7101420
3FFFFFE300
07DFEB3000
ENDCHAR
STARTCHAR macronbelowcmb
ENCODING 817
SWIDTH 100 0
DWIDTH 1 0
BBX 9 5 -4 -6
BITMAP
0022222220
05A0222120
3FB0000030
4FFFFFFC20
2BCCCCA100
ENDCHAR
STARTCHAR uni0394
ENCODING 916
SWIDTH 830 0
DWIDTH 12 0
BBX 12 13 0 -2
BITMAP
000022222000
000610000200
009B03221200
01F721302110
05F320D32020
09E021F62020
0DB024F90220
2F7117FC0211
5F6203550202
8F5122222202
9F6000000002
9FFFFFFFFF70
4AAAAAAAA500
ENDCHAR
STARTCHAR uni03A9
ENCODING 937
SWIDTH 877 0
DWIDTH 12 0
BBX 13 13 0 -2
BITMAP
00001222210000
00031000013000
01A01322320200
0CB02078120200
2FB022FF320200
4FB022CF420200
4FB022BF420200
4FC022BF320200
3F70309B130310
5F212357222020
CF300067000120
CFFFFFFFFFF600
7AAA95AAAA4000
ENDCHAR
STARTCHAR uni03BC
ENCODING 956
SWIDTH 813 0
DWIDTH 11 0
BBX 11 13 0 -4
BITMAP
003222022220
0870024A0020
6F7024FA0220
7F7025FA0220
7F7025FA0220
7F7025FA0220
7F7040411120
7F7033222020
7F7020000310
7F7004BCC200
7FDAACD91000
6FFF50000000
022100000000
ENDCHAR
STARTCHAR pi
ENCODING 960
SWIDTH 821 0
DWIDTH 12 0
BBX 11 11 0 -2
BITMAP
001222222210
036000000030
3E7032222220
7F7022530220
7F7025FA0220
7F7025FA0220
7F7025FA0220
7F7015FA0220
7F8006FB0030
7FFFD7FFFE40
3AA912AAA200
ENDCHAR
STARTCHAR Ddotbelow
ENCODING 7692
SWIDTH 846 0
DWIDTH 12 0
BBX 12 17 0 -6
BITMAP
016222222210
1C9000000021
5F9032223102
6F9021320202
6F9024FF1202
6F9023FF1202
6F9022DF1202
6F9022DF1202
6F9021870202
6F9032222112
6F9000000240
6FECCA99D800
4FFFF4004000
0007F3202000
000BF4003000
000BFFFB1000
0007CC900000
ENDCHAR
STARTCHAR ddotbelow
ENCODING 7693
SWIDTH 846 0
DWIDTH 12 0
BBX 12 17 0 -6
BITMAP
016222222210
1C9000000021
5F9032223102
6F9021320202
6F9024FF1202
6F9023FF1202
6F9022DF1202
6F9022DF1202
6F9021870202
6F9032222112
6F9000000240
6FECCA99D800
4FFFF4004000
0007F3202000
000BF4003000
000BFFFB1000
0007CC900000
ENDCHAR
STARTCHAR Dlinebelow
ENCODING 7694
SWIDTH 846 0
DWIDTH 12 0
BBX 12 16 0 -5
BITMAP
016222222310
1C9000000021
5F9032223102
6F9021320202
6F9024FF1202
6F9023FF1202
6F9022DF1202
6F9022DF1202
6F9021870202
6F9032222111
6F9000000320
6FFECCCCD600
4FFD00000200
00BD02221200
02FFCCCCB400
01EFFFFE4000
ENDCHAR
STARTCHAR dlinebelow
ENCODING 7695
SWIDTH 846 0
DWIDTH 12 0
BBX 12 16 0 -5
BITMAP
016222222310
1C9000000021
5F9032223102
6F9021320202
6F9024FF1202
6F9023FF1202
6F9022DF1202
6F9022DF1202
6F9021870202
6F9032222111
6F9000000320
6FFECCCCD600
4FFD00000200
00BD02221200
02FFCCCCB400
01EFFFFE4000
ENDCHAR
STARTCHAR Gmacron
ENCODING 7712
SWIDTH 808 0
DWIDTH 11 0
BBX 11 16 0 -2
BITMAP
000132222300
001C02221200
00CF10000000
00EFCA999900
00D400000200
016022221200
0C7023BBB400
5F6116FF6000
8F6112032220
8F6112890020
8F6115F90220
8F7030320220
8FA022222120
6FF600000020
1EFFECBBBB40
02BEFFFFE500
ENDCHAR
STARTCHAR gmacron
ENCODING 7713
SWIDTH 808 0
DWIDTH 11 0
BBX 11 16 0 -2
BITMAP
000132222300
001C02221200
00CF10000000
00EFCA999900
00D400000200
016022221200
0C7023BBB400
5F6116FF6000
8F6112032220
8F6112890020
8F6115F90220
8F7030320220
8FA022222120
6FF600000020
1EFFECBBBB40
02BEFFFFE500
ENDCHAR
STARTCHAR Hdotbelow
ENCODING 7716
SWIDTH 859 0
DWIDTH 12 0
BBX 12 17 0 -6
BITMAP
016223034222
1C90023E1002
5F9022CF1202
6F9022DF1202
6F9021881202
6F9042222402
6F9020000202
6F9023BB1202
6F9024FF1202
6F9022DF1202
6F9002DF2002
6FEBB688AB81
4FFED5007B10
0007F5202000
0009F6002000
0009FFFC1000
0005BCA10000
ENDCHAR
STARTCHAR hdotbelow
ENCODING 7717
SWIDTH 859 0
DWIDTH 12 0
BBX 12 17 0 -6
BITMAP
016223034222
1C90023E1002
5F9022CF1202
6F9022DF1202
6F9021881202
6F9042222402
6F9020000202
6F9023BB1202
6F9024FF1202
6F9022DF1202
6F9002DF2002
6FEBB688AB81
4FFED5007B10
0007F5202000
0009F6002000
0009FFFC1000
0005BCA10000
ENDCHAR
STARTCHAR Hbrevebelow
ENCODING 7722
SWIDTH 859 0
DWIDTH 12 0
BBX 12 17 0 -6
BITMAP
016223034222
1C90023E1002
5F9022CF1202
6F9022DF1202
6F9021881202
6F9042222402
6F9020000202
6F9023BB1202
6F9024FF1202
6F9022DF1202
6FA113DF3113
6FFF95EE9AB1
4FFD00CA0120
00CE02003210
01FF62222100
00EFFC996000
004CEFD60000
ENDCHAR
STARTCHAR hbrevebelow
ENCODING 7723
SWIDTH 859 0
DWIDTH 12 0
BBX 12 17 0 -6
BITMAP
016223034222
1C90023E1002
5F9022CF1202
6F9022DF1202
6F9021881202
6F9042222402
6F9020000202
6F9023BB1202
6F9024FF1202
6F9022DF1202
6FA113DF3113
6FFF95EE9AB1
4FFD00CA0120
00CE02003210
01FF62222100
00EFFC996000
004CEFD60000
ENDCHAR
STARTCHAR Ldotbelow
ENCODING 7734
SWIDTH 795 0
DWIDTH 11 0
BBX 11 17 0 -6
BITMAP
016223000000
1C9012000000
5F9022000000
6F9022000000
6F9022000000
6F9022032220
6F90227A0020
6F9024FA0220
6F9021320220
6F9032222120
6F9000000020
6FECCA99CC40
4FFFF100A400
0009F1202000
000DF2002000
000DFFF90000
0008CC700000
ENDCHAR
STARTCHAR ldotbelow
ENCODING 7735
SWIDTH 795 0
DWIDTH 11 0
BBX 11 17 0 -6
BITMAP
016223000000
1C9012000000
5F9022000000
6F9022000000
6F9022000000
6F9022032220
6F90227A0020
6F9024FA0220
6F9021320220
6F9032222120
6F9000000020
6FECCA99CC40
4FFFF100A400
0009F1202000
000DF2002000
000DFFF90000
0008CC700000
ENDCHAR
STARTCHAR Ldotbelowmacron
ENCODING 7736
SWIDTH 795 0
DWIDTH 11 0
BBX 11 20 0 -6
BITMAP
000322222200
007802220200
04F900000300
06D99BFFB100
089003C90000
4F9022000000
6F9022000000
6F9022000000
6F9022032220
6F90227A0020
6F9024FA0220
6F9021320220
6F9032222120
6F9000000020
6FECCA99CC40
4FFFF100A400
0009F1202000
000DF2002000
000DFFF90000
0008CC700000
ENDCHAR
STARTCHAR ldotbelowmacron
ENCODING 7737
SWIDTH 795 0
DWIDTH 11 0
BBX 11 20 0 -6
BITMAP
000322222200
007802220200
04F900000300
06D99BFFB100
089003C90000
4F9022000000
6F9022000000
6F9022000000
6F9022032220
6F90227A0020
6F9024FA0220
6F9021320220
6F9032222120
6F9000000020
6FECCA99CC40
4FFFF100A400
0009F1202000
000DF2002000
000DFFF90000
0008CC700000
ENDCHAR
STARTCHAR Llinebelow
ENCODING 7738
SWIDTH 795 0
DWIDTH 11 0
BBX 11 16 0 -5
BITMAP
016223000000
1C9012000000
5F9022000000
6F9022000000
6F9022000000
6F9022032220
6F90227A0020
6F9024FA0220
6F9021320220
6F9032222120
6F9000000020
6FEB88888B40
4FF802220300
03F800000200
06FEBBBBA200
05FFFFFC2000
ENDCHAR
STARTCHAR llinebelow
ENCODING 7739
SWIDTH 795 0
DWIDTH 11 0
BBX 11 16 0 -5
BITMAP
016223000000
1C9012000000
5F9022000000
6F9022000000
6F9022000000
6F9022032220
6F90227A0020
6F9024FA0220
6F9021320220
6F9032222120
6F9000000020
6FEB88888B40
4FF802220300
03F800000200
06FEBBBBA200
05FFFFFC2000
ENDCHAR
STARTCHAR Mdotbelow
ENCODING 7746
SWIDTH 949 0
DWIDTH 13 0
BBX 13 17 0 -6
BITMAP
01622210132230
1C900011800020
5F903119513020
6F90230A032020
6F902030302020
6F902112112020
6F902530352020
6F9025D7C52020
6F9025FCF52020
6F902329F52020
6F900209F60020
6FEBB5269DBA20
4FFE5C000DD200
0000DE02020000
0000FF10020000
0000FFFF700000
0000ACB6000000
ENDCHAR
STARTCHAR mdotbelow
ENCODING 7747
SWIDTH 949 0
DWIDTH 13 0
BBX 13 17 0 -6
BITMAP
01622210132230
1C900011800020
5F903119513020
6F90230A032020
6F902030302020
6F902112112020
6F902530352020
6F9025D7C52020
6F9025FCF52020
6F902329F52020
6F900209F60020
6FEBB5269DBA20
4FFE5C000DD200
0000DE02020000
0000FF10020000
0000FFFF700000
0000ACB6000000
ENDCHAR
STARTCHAR Ndotaccent
ENCODING 7748
SWIDTH 853 0
DWIDTH 12 0
BBX 12 16 0 -2
BITMAP
000014222000
0004D4202000
000AF5003000
01623BFF6222
1C9001BF1002
5F90504F1202
6F9023081202
6F9020300202
6F9020120202
6F9024311202
6F9025D12302
6F9025FB0302
6F9025FF1202
6F9003EF1002
6FEBB4DFCB70
4FFE40CFFA00
ENDCHAR
STARTCHAR ndotaccent
ENCODING 7749
SWIDTH 853 0
DWIDTH 12 0
BBX 12 16 0 -2
BITMAP
000014222000
0004D4202000
000AF5003000
01623BFF6222
1C9001BF1002
5F90504F1202
6F9023081202
6F9020300202
6F9020120202
6F9024311202
6F9025D12302
6F9025FB0302
6F9025FF1202
6F9003EF1002
6FEBB4DFCB70
4FFE40CFFA00
ENDCHAR
STARTCHAR Ndotbelow
ENCODING 7750
SWIDTH 853 0
DWIDTH 12 0
BBX 12 17 0 -6
BITMAP
016222033222
1C90002D1002
5F90504F1202
6F9023081202
6F9020300202
6F9020120202
6F9024311202
6F9025D12302
6F9025FB0302
6F9025FF1202
6F9003EF1002
6FEBB788AB70
4FFED4008A00
0008F4202000
000AF5002000
000AFFFB1000
0006CC910000
ENDCHAR
STARTCHAR ndotbelow
ENCODING 7751
SWIDTH 853 0
DWIDTH 12 0
BBX 12 17 0 -6
BITMAP
016222033222
1C90002D1002
5F90504F1202
6F9023081202
6F9020300202
6F9020120202
6F9024311202
6F9025D12302
6F9025FB0302
6F9025FF1202
6F9003EF1002
6FEBB788AB70
4FFED4008A00
0008F4202000
000AF5002000
000AFFFB1000
0006CC910000
ENDCHAR
STARTCHAR Nlinebelow
ENCODING 7752
SWIDTH 853 0
DWIDTH 12 0
BBX 12 16 0 -5
BITMAP
016222033222
1C90002D1002
5F90504F1202
6F9023081202
6F9020300202
6F9020120202
6F9024311202
6F9025D12302
6F9025FB0302
6F9025FF1202
6FA003EF2002
6FFF95888B90
4FFE02221200
00CE00000200
00FFCBBBB400
00DFFFFE5000
ENDCHAR
STARTCHAR nlinebelow
ENCODING 7753
SWIDTH 853 0
DWIDTH 12 0
BBX 12 16 0 -5
BITMAP
016222033222
1C90002D1002
5F90504F1202
6F9023081202
6F9020300202
6F9020120202
6F9024311202
6F9025D12302
6F9025FB0302
6F9025FF1202
6FA003EF2002
6FFF95888B90
4FFE02221200
00CE00000200
00FFCBBBB400
00DFFFFE5000
ENDCHAR
STARTCHAR Rdotbelow
ENCODING 7770
SWIDTH 843 0
DWIDTH 12 0
BBX 12 17 0 -6
BITMAP
016222223300
1C9000000020
5F9032221020
6F9024D42020
6F9024F52020
6F9020002140
6F9042223102
6F9020000202
6F9024FF3202
6F9023EF4202
6F9002BF4002
6FEBB778AB92
4FFEC6005C20
0005F6112000
0008F7002000
0008FFFD2000
0004BCA10000
ENDCHAR
STARTCHAR rdotbelow
ENCODING 7771
SWIDTH 843 0
DWIDTH 12 0
BBX 12 17 0 -6
BITMAP
016222223300
1C9000000020
5F9032221020
6F9024D42020
6F9024F52020
6F9020002140
6F9042223102
6F9020000202
6F9024FF3202
6F9023EF4202
6F9002BF4002
6FEBB778AB92
4FFEC6005C20
0005F6112000
0008F7002000
0008FFFD2000
0004BCA10000
ENDCHAR
STARTCHAR Rdotbelowmacron
ENCODING 7772
SWIDTH 843 0
DWIDTH 12 0
BBX 12 20 0 -6
BITMAP
000322222100
009412220200
08F500000200
0AD999999200
099000000120
2E9032221020
6F9024D42020
6F9024F52020
6F9020002140
6F9042223102
6F9020000202
6F9024FF3202
6F9023EF4202
6F9002BF4002
6FEBB778AB92
4FFEC6005C20
0005F6112000
0008F7002000
0008FFFD2000
0004BCA10000
ENDCHAR
STARTCHAR rdotbelowmacron
ENCODING 7773
SWIDTH 843 0
DWIDTH 12 0
BBX 12 20 0 -6
BITMAP
000322222100
009412220200
08F500000200
0AD999999200
099000000120
2E9032221020
6F9024D42020
6F9024F52020
6F9020002140
6F9042223102
6F9020000202
6F9024FF3202
6F9023EF4202
6F9002BF4002
6FEBB778AB92
4FFEC6005C20
0005F6112000
0008F7002000
0008FFFD2000
0004BCA10000
ENDCHAR
STARTCHAR Rlinebelow
ENCODING 7774
SWIDTH 843 0
DWIDTH 12 0
BBX 12 16 0 -5
BITMAP
016222223300
1C9032221020
5F9020002020
6F9024D42020
6F9024F52020
6F9020003130
6F9042233102
6F9021330202
6F9024FF3202
6F9023DF4202
6FA003BF4003
6FFF95788BC1
4FFD02221310
00CD00000200
01FFCBBBB400
00EFFFFE4000
ENDCHAR
STARTCHAR rlinebelow
ENCODING 7775
SWIDTH 843 0
DWIDTH 12 0
BBX 12 16 0 -5
BITMAP
016222223300
1C9032221020
5F9020002020
6F9024D42020
6F9024F52020
6F9020003130
6F9042233102
6F9021330202
6F9024FF3202
6F9023DF4202
6FA003BF4003
6FFF95788BC1
4FFD02221310
00CD00000200
01FFCBBBB400
00EFFFFE4000
ENDCHAR
STARTCHAR Sdotaccent
ENCODING 7776
SWIDTH 750 0
DWIDTH 11 0
BBX 11 16 0 -2
BITMAP
000032230000
0007A0220000
004FA0000000
005942222300
001000000200
065022221300
4F5216FFD200
9F5200134300
9F9022100210
9FF831122020
4FFFFFC02020
066000002020
3E5122221010
9F5000001200
9FDBBBBC6000
8FFFFFC50000
ENDCHAR
STARTCHAR sdotaccent
ENCODING 7777
SWIDTH 750 0
DWIDTH 11 0
BBX 11 16 0 -2
BITMAP
000032230000
0007A0220000
004FA0000000
005942222300
001000000200
065022221300
4F5216FFD200
9F5200134300
9F9022100210
9FF831122020
4FFFFFC02020
066000002020
3E5122221010
9F5000001200
9FDBBBBC6000
8FFFFFC50000
ENDCHAR
STARTCHAR Sdotbelow
ENCODING 7778
SWIDTH 750 0
DWIDTH 11 0
BBX 11 17 0 -6
BITMAP
001322222300
017000000200
1D6022221300
7F5216FFD200
9F5200134200
9F9022100210
8FF831122020
3FFFFFC02020
066000002020
3E5122221110
9F5000001300
9FECC99A7000
8FFFA0020000
002EA0220000
004FB0020000
004FFFE40000
002BCB300000
ENDCHAR
STARTCHAR sdotbelow
ENCODING 7779
SWIDTH 750 0
DWIDTH 11 0
BBX 11 17 0 -6
BITMAP
001322222300
017000000200
1D6022221300
7F5216FFD200
9F5200134200
9F9022100210
8FF831122020
3FFFFFC02020
066000002020
3E5122221110
9F5000001300
9FECC99A7000
8FFFA0020000
002EA0220000
004FB0020000
004FFFE40000
002BCB300000
ENDCHAR
STARTCHAR Tdotbelow
ENCODING 7788
SWIDTH 756 0
DWIDTH 11 0
BBX 11 17 0 -6
BITMAP
053222222220
6F0000000020
EF0222322020
EFCB6022B910
CFFF8022C100
006F80220000
006F80220000
006F80220000
006F80220000
006F80220000
006F90020000
006FE9960000
004F90020000
002E90220000
005FA0020000
005FFFE30000
003BCB200000
ENDCHAR
STARTCHAR tdotbelow
ENCODING 7789
SWIDTH 756 0
DWIDTH 11 0
BBX 11 17 0 -6
BITMAP
053222222220
6F0000000020
EF0222322020
EFCB6022B910
CFFF8022C100
006F80220000
006F80220000
006F80220000
006F80220000
006F80220000
006F90020000
006FE9960000
004F90020000
002E90220000
005FA0020000
005FFFE30000
003BCB200000
ENDCHAR
STARTCHAR Tlinebelow
ENCODING 7790
SWIDTH 756 0
DWIDTH 11 0
BBX 11 16 0 -5
BITMAP
053222222220
6F0222322020
EF0000200020
EFCB6022B910
CFFF8022C100
006F80220000
006F80220000
006F80220000
006F80220000
006F80120000
006F90020000
006B88862100
00A412220200
08F400000200
0AFDBBBB7000
08FFFFF90000
ENDCHAR
STARTCHAR tlinebelow
ENCODING 7791
SWIDTH 756 0
DWIDTH 11 0
BBX 11 16 0 -5
BITMAP
053222222220
6F0222322020
EF0000200020
EFCB6022B910
CFFF8022C100
006F80220000
006F80220000
006F80220000
006F80220000
006F80120000
006F90020000
006B88862100
00A412220200
08F400000200
0AFDBBBB7000
08FFFFF90000
ENDCHAR
STARTCHAR Wgrave
ENCODING 7808
SWIDTH 931 0
DWIDTH 13 0
BBX 13 17 0 -2
BITMAP
00004421000000
0008BACDDC3000
007F5012223000
009F7100000000
017228ECA12220
2D70047BF50020
7F702208F52020
8F70220AF52020
8F702237D52020
8F702530452020
8F702212122020
8F702020202020
7FA0220A122020
6FE1223F121100
2FF5007F500200
0CFEB9CFEB8100
06FFC27FFB1000
ENDCHAR
STARTCHAR wgrave
ENCODING 7809
SWIDTH 931 0
DWIDTH 13 0
BBX 13 17 0 -2
BITMAP
00004421000000
0008BACDDC3000
007F5012223000
009F7100000000
017228ECA12220
2D70047BF50020
7F702208F52020
8F70220AF52020
8F702237D52020
8F702530452020
8F702212122020
8F702020202020
7FA0220A122020
6FE1223F121100
2FF5007F500200
0CFEB9CFEB8100
06FFC27FFB1000
ENDCHAR
STARTCHAR Wacute
ENCODING 7810
SWIDTH 931 0
DWIDTH 13 0
BBX 13 17 0 -2
BITMAP
00000001352000
00007CEDCA7000
000AB222102000
005F9000014000
016202BDC62220
2D700331C50020
7F702208F52020
8F70220AF52020
8F702237D52020
8F702530452020
8F702212122020
8F702020202020
7FA0220A122020
6FE1223F121100
2FF5007F500200
0CFEB9CFEB8100
06FFC27FFB1000
ENDCHAR
STARTCHAR wacute
ENCODING 7811
SWIDTH 931 0
DWIDTH 13 0
BBX 13 17 0 -2
BITMAP
00000001352000
00007CEDCA7000
000AB222102000
005F9000014000
016202BDC62220
2D700331C50020
7F702208F52020
8F70220AF52020
8F702237D52020
8F702530452020
8F702212122020
8F702020202020
7FA0220A122020
6FE1223F121100
2FF5007F500200
0CFEB9CFEB8100
06FFC27FFB1000
ENDCHAR
STARTCHAR Wdieresis
ENCODING 7812
SWIDTH 931 0
DWIDTH 13 0
BBX 13 16 0 -2
BITMAP
00013224222000
002D210B012000
00CF301C000000
00A99CFFFC9950
087003BCF50020
6F702207F52020
8F70220AF52020
8F702237D52020
8F702530452020
8F702212122020
8F702020202020
7FA0220A122010
6FE0223F121100
3FF5007F500200
0CFEB9CFEB8100
06FFC27FFB1000
ENDCHAR
STARTCHAR wdieresis
ENCODING 7813
SWIDTH 931 0
DWIDTH 13 0
BBX 13 16 0 -2
BITMAP
00013224222000
002D210B012000
00CF301C000000
00A99CFFFC9950
087003BCF50020
6F702207F52020
8F70220AF52020
8F702237D52020
8F702530452020
8F702212122020
8F702020202020
7FA0220A122010
6FE0223F121100
3FF5007F500200
0CFEB9CFEB8100
06FFC27FFB1000
ENDCHAR
STARTCHAR Ydotaccent
ENCODING 7822
SWIDTH 805 0
DWIDTH 11 0
BBX 11 16 0 -2
BITMAP
000033221000
0008E0202000
000FE0003000
03522BFF3230
3E4007FB0020
AF4204FB0220
BF4205FB0220
BF4213F60220
AFA030702030
8FF412011210
2EFD11320200
06FF90203000
00BFE0202000
002FE0002000
000FFBB81000
000EFFA10000
ENDCHAR
STARTCHAR ydotaccent
ENCODING 7823
SWIDTH 805 0
DWIDTH 11 0
BBX 11 16 0 -2
BITMAP
000033221000
0008E0202000
000FE0003000
03522BFF3230
3E4007FB0020
AF4204FB0220
BF4205FB0220
BF4213F60220
AFA030702030
8FF412011210
2EFD11320200
06FF90203000
00BFE0202000
002FE0002000
000FFBB81000
000EFFA10000
ENDCHAR
STARTCHAR Zdotbelow
ENCODING 7826
SWIDTH 760 0
DWIDTH 11 0
BBX 11 17 0 -6
BITMAP
016222222310
1C8000000110
6F8022222110
7FEBB8012210
5FFFE2030300
000740303000
004802021000
01A021120000
0B4120222210
7F4122222020
AF4000000020
AFDCC99ACA10
9FFFC000B100
001DC0202000
003FC0011000
003FFFF50000
001BCB400000
ENDCHAR
STARTCHAR zdotbelow
ENCODING 7827
SWIDTH 760 0
DWIDTH 11 0
BBX 11 17 0 -6
BITMAP
016222222310
1C8000000110
6F8022222110
7FEBB8012210
5FFFE2030300
000740303000
004802021000
01A021120000
0B4120222210
7F4122222020
AF4000000020
AFDCC99ACA10
9FFFC000B100
001DC0202000
003FC0011000
003FFFF50000
001BCB400000
ENDCHAR
STARTCHAR tdieresis
ENCODING 7831
SWIDTH 756 0
DWIDTH 11 0
BBX 11 16 0 -2
BITMAP
002223422200
03D012901200
0EF003A00000
0F3222222220
2F0000000020
DF0222322020
EFCB6022B910
DFFF8022C100
006F80220000
006F80220000
006F80220000
006F80220000
006F80220000
006F90020000
006FEBB40000
004FFF500000
ENDCHAR
STARTCHAR Germandbls
ENCODING 7838
SWIDTH 859 0
DWIDTH 12 0
BBX 12 13 0 -2
BITMAP
016222222300
1C9000000020
5F9032222020
6F9022602020
6F9024F02030
6F9024C03202
6F9024B21022
6F9024FF8022
6F9024C42022
6F9014902202
6F9004900022
6FEBBDEBBB40
4FFE9FFEB200
ENDCHAR
STARTCHAR Adotbelow
ENCODING 7840
SWIDTH 830 0
DWIDTH 12 0
BBX 12 17 0 -6
BITMAP
000132222200
000800000200
006702230110
00E211512020
05C020E52020
0B8014F90211
1F6110000202
6F5222222302
8F5200000202
9F5208FE0202
9F6107FE0102
9FDBB789AB60
7FFDE200A800
000AF2202000
000DF3002000
000DFFFA0000
0008CC800000
ENDCHAR
STARTCHAR adotbelow
ENCODING 7841
SWIDTH 830 0
DWIDTH 12 0
BBX 12 17 0 -6
BITMAP
000132222200
000800000200
006702230110
00E211512020
05C020E52020
0B8014F90211
1F6110000202
6F5222222302
8F5200000202
9F5208FE0202
9F6107FE0102
9FDBB789AB60
7FFDE200A800
000AF2202000
000DF3002000
000DFFFA0000
0008CC800000
ENDCHAR
STARTCHAR Ahookabove
ENCODING 7842
SWIDTH 830 0
DWIDTH 12 0
BBX 12 17 0 -2
BITMAP
000032222000
0009C1233000
003FFB722000
0018F6103000
000950212200
000800000200
006702230110
00E211512020
05C020E52020
0B8014F90211
1F6110000202
6F5222222302
8F5200000202
9F5208FE0202
9F6107FE0102
9FDBB4FFBB60
7FFD30EFF800
ENDCHAR
STARTCHAR ahookabove
ENCODING 7843
SWIDTH 830 0
DWIDTH 12 0
BBX 12 17 0 -2
BITMAP
000032222000
0009C1233000
003FFB722000
0018F6103000
000950212200
000800000200
006702230110
00E211512020
05C020E52020
0B8014F90211
1F6110000202
6F5222222302
8F5200000202
9F5208FE0202
9F6107FE0102
9FDBB4FFBB60
7FFD30EFF800
ENDCHAR
STARTCHAR Acircumflexacute
ENCODING 7844
SWIDTH 830 0
DWIDTH 12 0
BBX 12 20 0 -2
BITMAP
000000000200
000000166430
000002C52120
000009F51200
000012126000
001701220200
00CD7BFD8500
02FF63333300
02FD00000200
007702230110
00E211512020
05C020E52020
0B8014F90211
1F6110000202
6F5222222302
8F5200000202
9F5208FE0202
9F6107FE0102
9FDBB4FFBB60
7FFD30EFF900
ENDCHAR
STARTCHAR acircumflexacute
ENCODING 7845
SWIDTH 830 0
DWIDTH 12 0
BBX 12 20 0 -2
BITMAP
000000000200
000000166430
000002C52120
000009F51200
000012126000
001701220200
00CD7BFD8500
02FF63333300
02FD00000200
007702230110
00E211512020
05C020E52020
0B8014F90211
1F6110000202
6F5222222302
8F5200000202
9F5208FE0202
9F6107FE0102
9FDBB4FFBB60
7FFD30EFF900
ENDCHAR
STARTCHAR Acircumflexgrave
ENCODING 7846
SWIDTH 830 0
DWIDTH 12 0
BBX 12 19 0 -2
BITMAP
000000466500
000006F12210
00000EF20110
000014124200
001701220200
00CD7BFD8500
02FF63333300
02FD00000200
007702230110
00E211512020
05C020E52020
0B8014F90211
1F6110000202
6F5222222302
8F5200000202
9F5208FE0202
9F6107FE0102
9FDBB4FFBB60
7FFD30EFF900
ENDCHAR
STARTCHAR acircumflexgrave
ENCODING 7847
SWIDTH 830 0
DWIDTH 12 0
BBX 12 19 0 -2
BITMAP
000000466500
000006F12210
00000EF20110
000014124200
001701220200
00CD7BFD8500
02FF63333300
02FD00000200
007702230110
00E211512020
05C020E52020
0B8014F90211
1F6110000202
6F5222222302
8F5200000202
9F5208FE0202
9F6107FE0102
9FDBB4FFBB60
7FFD30EFF900
ENDCHAR
STARTCHAR Acircumflexhookabove
ENCODING 7848
SWIDTH 830 0
DWIDTH 12 0
BBX 12 21 0 -2
BITMAP
000000032230
000000A42222
000008FA8422
00000AFE0223
000004DF68A3
000002137C40
001801220200
01CD7BFD8500
03FF63333300
02FD00000200
007702230110
00E211512020
05C020E52020
0B8014F90211
1F6110000202
6F5222222302
8F5200000202
9F5208FE0202
9F6107FE0102
9FDBB4FFBB60
7FFD30EFF900
ENDCHAR
STARTCHAR acircumflexhookabove
ENCODING 7849
SWIDTH 830 0
DWIDTH 12 0
BBX 12 21 0 -2
BITMAP
000000032230
000000A42222
000008FA8422
00000AFE0223
000004DF68A3
000002137C40
001801220200
01CD7BFD8500
03FF63333300
02FD00000200
007702230110
00E211512020
05C020E52020
0B8014F90211
1F6110000202
6F5222222302
8F5200000202
9F5208FE0202
9F6107FE0102
9FDBB4FFBB60
7FFD30EFF900
ENDCHAR
STARTCHAR Acircumflextilde
ENCODING 7850
SWIDTH 830 0
DWIDTH 12 0
BBX 12 20 0 -2
BITMAP
000121112200
001902100200
00CC01231200
03FE8B976300
03FF95234000
017901220200
00BD7BFD8500
02FF63333300
02FD00000200
007702230110
00E211512020
05C020E52020
0B8014F90211
1F6110000202
6F5222222302
8F5200000202
9F5208FE0202
9F6107FE0102
9FDBB4FFBB60
7FFD30EFF900
ENDCHAR
STARTCHAR acircumflextilde
ENCODING 7851
SWIDTH 830 0
DWIDTH 12 0
BBX 12 20 0 -2
BITMAP
000121112200
001902100200
00CC01231200
03FE8B976300
03FF95234000
017901220200
00BD7BFD8500
02FF63333300
02FD00000200
007702230110
00E211512020
05C020E52020
0B8014F90211
1F6110000202
6F5222222302
8F5200000202
9F5208FE0202
9F6107FE0102
9FDBB4FFBB60
7FFD30EFF900
ENDCHAR
STARTCHAR Acircumflexdotbelow
ENCODING 7852
SWIDTH 830 0
DWIDTH 12 0
BBX 12 21 0 -6
BITMAP
000001221000
000110001300
003A01220200
01ED7BFD8500
03FF63333300
02FD00000200
007702230110
00E211512020
05C020E52020
0B8014F90211
1F6110000202
6F5222222302
8F5200000202
9F5208FE0202
9F6107FE0102
9FDBB789AB60
7FFDE200A900
000AF2202000
000DF3002000
000DFFFA0000
0008CC800000
ENDCHAR
STARTCHAR acircumflexdotbelow
ENCODING 7853
SWIDTH 830 0
DWIDTH 12 0
BBX 12 21 0 -6
BITMAP
000001221000
000110001300
003A01220200
01ED7BFD8500
03FF63333300
02FD00000200
007702230110
00E211512020
05C020E52020
0B8014F90211
1F6110000202
6F5222222302
8F5200000202
9F5208FE0202
9F6107FE0102
9FDBB789AB60
7FFDE200A900
000AF2202000
000DF3002000
000DFFFA0000
0008CC800000
ENDCHAR
STARTCHAR Abreveacute
ENCODING 7854
SWIDTH 830 0
DWIDTH 12 0
BBX 12 20 0 -2
BITMAP
00000048A000
00000AB85100
0000BF000000
00028A003200
003A01F80200
02EC21212100
04FF84232000
02FFA8888400
009E00000400
006902230220
00E311512040
05D020E52030
0B9014F90221
1F6110000202
6F5222222302
8F5200000202
9F5208FE0202
9F6107FE0102
9FDBB4FFBB60
7FFD30EFF800
ENDCHAR
STARTCHAR abreveacute
ENCODING 7855
SWIDTH 830 0
DWIDTH 12 0
BBX 12 20 0 -2
BITMAP
00000048A000
00000AB85100
0000BF000000
00028A003200
003A01F80200
02EC21212100
04FF84232000
02FFA8888400
009E00000400
006902230220
00E311512040
05D020E52030
0B9014F90221
1F6110000202
6F5222222302
8F5200000202
9F5208FE0202
9F6107FE0102
9FDBB4FFBB60
7FFD30EFF800
ENDCHAR
STARTCHAR Abrevegrave
ENCODING 7856
SWIDTH 830 0
DWIDTH 12 0
BBX 12 20 0 -2
BITMAP
000089610000
001AB6970000
005F90020000
006E61102200
005A01B80200
01EC21212100
04FF84232000
03FFA8888400
009E00000400
006902230220
00E311512040
05D020E52030
0B9014F90221
1F6110000202
6F5222222302
8F5200000202
9F5208FE0202
9F6107FE0102
9FDBB4FFBB60
7FFD30EFF800
ENDCHAR
STARTCHAR abrevegrave
ENCODING 7857
SWIDTH 830 0
DWIDTH 12 0
BBX 12 20 0 -2
BITMAP
000089610000
001AB6970000
005F90020000
006E61102200
005A01B80200
01EC21212100
04FF84232000
03FFA8888400
009E00000400
006902230220
00E311512040
05D020E52030
0B9014F90221
1F6110000202
6F5222222302
8F5200000202
9F5208FE0202
9F6107FE0102
9FDBB4FFBB60
7FFD30EFF800
ENDCHAR
STARTCHAR Abrevehookabove
ENCODING 7858
SWIDTH 830 0
DWIDTH 12 0
BBX 12 21 0 -2
BITMAP
000013222000
0003D5431200
000BFE722200
0007ED124200
00029AED6200
003901F80200
02EC21212100
04FF84232000
02FFA8888400
009E00000400
006902230220
00E311512040
05D020E52030
0B9014F90221
1F6110000202
6F5222222302
8F5200000202
9F5208FE0202
9F6107FE0102
9FDBB4FFBB60
7FFD30EFF800
ENDCHAR
STARTCHAR abrevehookabove
ENCODING 7859
SWIDTH 830 0
DWIDTH 12 0
BBX 12 21 0 -2
BITMAP
000013222000
0003D5431200
000BFE722200
0007ED124200
00029AED6200
003901F80200
02EC21212100
04FF84232000
02FFA8888400
009E00000400
006902230220
00E311512040
05D020E52030
0B9014F90221
1F6110000202
6F5222222302
8F5200000202
9F5208FE0202
9F6107FE0102
9FDBB4FFBB60
7FFD30EFF800
ENDCHAR
STARTCHAR Abrevetilde
ENCODING 7860
SWIDTH 830 0
DWIDTH 12 0
BBX 12 20 0 -2
BITMAP
000211111000
003B02221200
01EC24200400
03FE9AFD8300
02FA01F80200
01EC21212100
04FF84232000
03FFA8888400
009E00000400
006902230220
00E311512040
05D020E52030
0B9014F90221
1F6110000202
6F5222222302
8F5200000202
9F5208FE0202
9F6107FE0102
9FDBB4FFBB60
7FFD30EFF800
ENDCHAR
STARTCHAR abrevetilde
ENCODING 7861
SWIDTH 830 0
DWIDTH 12 0
BBX 12 20 0 -2
BITMAP
000211111000
003B02221200
01EC24200400
03FE9AFD8300
02FA01F80200
01EC21212100
04FF84232000
03FFA8888400
009E00000400
006902230220
00E311512040
05D020E52030
0B9014F90221
1F6110000202
6F5222222302
8F5200000202
9F5208FE0202
9F6107FE0102
9FDBB4FFBB60
7FFD30EFF800
ENDCHAR
STARTCHAR Abrevedotbelow
ENCODING 7862
SWIDTH 830 0
DWIDTH 12 0
BBX 12 21 0 -6
BITMAP
000223032200
004A01A80200
02EC21212100
04FF84232000
02FFA8888400
009E00000400
006902230220
00E311512040
05D020E52030
0B9014F90221
1F6110000202
6F5222222302
8F5200000202
9F5208FE0202
9F6107FE0102
9FDBB789AB60
7FFDE200A800
000AF2202000
000DF3002000
000DFFFA0000
0008CC800000
ENDCHAR
STARTCHAR abrevedotbelow
ENCODING 7863
SWIDTH 830 0
DWIDTH 12 0
BBX 12 21 0 -6
BITMAP
000223032200
004A01A80200
02EC21212100
04FF84232000
02FFA8888400
009E00000400
006902230220
00E311512040
05D020E52030
0B9014F90221
1F6110000202
6F5222222302
8F5200000202
9F5208FE0202
9F6107FE0102
9FDBB789AB60
7FFDE200A800
000AF2202000
000DF3002000
000DFFFA0000
0008CC800000
ENDCHAR
STARTCHAR Edotbelow
ENCODING 7864
SWIDTH 754 0
DWIDTH 11 0
BBX 11 17 0 -6
BITMAP
016222222220
1C9000000020
5F9032222020
6F9024FFF700
6F9021224100
6F9042221100
6F9020001100
6F9023BB5000
6F9022872210
6F9032222020
6F9000000020
6FECC99AC910
4FFFC000B100
001DC0202000
003FC0011000
003FFFF50000
001BCB400000
ENDCHAR
STARTCHAR edotbelow
ENCODING 7865
SWIDTH 754 0
DWIDTH 11 0
BBX 11 17 0 -6
BITMAP
016222222220
1C9000000020
5F9032222020
6F9024FFF700
6F9021224100
6F9042221100
6F9020001100
6F9023BB5000
6F9022872210
6F9032222020
6F9000000020
6FECC99AC910
4FFFC000B100
001DC0202000
003FC0011000
003FFFF50000
001BCB400000
ENDCHAR
STARTCHAR Ehookabove
ENCODING 7866
SWIDTH 754 0
DWIDTH 11 0
BBX 11 17 0 -2
BITMAP
000142231000
003D52223000
009FE9422000
003DF1111000
016222122220
1C9000000020
5F9032222020
6F9024FFF700
6F9021224100
6F9042221100
6F9020001100
6F9023BB5000
6F9022872210
6F9032222020
6F9000000020
6FEBBBBBB710
4FFFFFFF9000
ENDCHAR
STARTCHAR ehookabove
ENCODING 7867
SWIDTH 754 0
DWIDTH 11 0
BBX 11 17 0 -2
BITMAP
000142231000
003D52223000
009FE9422000
003DF1111000
016222122220
1C9000000020
5F9032222020
6F9024FFF700
6F9021224100
6F9042221100
6F9020001100
6F9023BB5000
6F9022872210
6F9032222020
6F9000000020
6FEBBBBBB710
4FFFFFFF9000
ENDCHAR
STARTCHAR Etilde
ENCODING 7868
SWIDTH 754 0
DWIDTH 11 0
BBX 11 16 0 -2
BITMAP
000423333000
00A612220200
08F744201100
08B222222220
0A9000000020
5F9032222020
6F9024FFF700
6F9021224100
6F9042221100
6F9020001100
6F9023BB5000
6F9022872210
6F9032222020
6F9000000020
6FEBBBBBB710
4FFFFFFF9000
ENDCHAR
STARTCHAR etilde
ENCODING 7869
SWIDTH 754 0
DWIDTH 11 0
BBX 11 16 0 -2
BITMAP
000423333000
00A612220200
08F744201100
08B222222220
0A9000000020
5F9032222020
6F9024FFF700
6F9021224100
6F9042221100
6F9020001100
6F9023BB5000
6F9022872210
6F9032222020
6F9000000020
6FEBBBBBB710
4FFFFFFF9000
ENDCHAR
STARTCHAR Ecircumflexacute
ENCODING 7870
SWIDTH 754 0
DWIDTH 11 0
BBX 11 20 0 -2
BITMAP
000000001200
000000365500
000005D12200
00000FE03100
000113144000
003502210200
04FA9DFB7300
08B222222220
099000000020
3F9032222020
6F9024FFF700
6F9021224100
6F9042221100
6F9020001100
6F9023BB5000
6F9022872210
6F9032222020
6F9000000020
6FEBBBBBB710
4FFFFFFF9000
ENDCHAR
STARTCHAR ecircumflexacute
ENCODING 7871
SWIDTH 754 0
DWIDTH 11 0
BBX 11 20 0 -2
BITMAP
000000001200
000000365500
000005D12200
00000FE03100
000113144000
003502210200
04FA9DFB7300
08B222222220
099000000020
3F9032222020
6F9024FFF700
6F9021224100
6F9042221100
6F9020001100
6F9023BB5000
6F9022872210
6F9032222020
6F9000000020
6FEBBBBBB710
4FFFFFFF9000
ENDCHAR
STARTCHAR Ecircumflexgrave
ENCODING 7872
SWIDTH 754 0
DWIDTH 11 0
BBX 11 19 0 -2
BITMAP
000000766200
00001BA12300
00005FB00200
000113134000
003502210200
04EA9DFB7300
08B222222220
099000000020
3F9032222020
6F9024FFF700
6F9021224100
6F9042221100
6F9020001100
6F9023BB5000
6F9022872210
6F9032222020
6F9000000020
6FEBBBBBB710
4FFFFFFF9000
ENDCHAR
STARTCHAR ecircumflexgrave
ENCODING 7873
SWIDTH 754 0
DWIDTH 11 0
BBX 11 19 0 -2
BITMAP
000000766200
00001BA12300
00005FB00200
000113134000
003502210200
04EA9DFB7300
08B222222220
099000000020
3F9032222020
6F9024FFF700
6F9021224100
6F9042221100
6F9020001100
6F9023BB5000
6F9022872210
6F9032222020
6F9000000020
6FEBBBBBB710
4FFFFFFF9000
ENDCHAR
STARTCHAR Ecircumflexhookabove
ENCODING 7874
SWIDTH 754 0
DWIDTH 11 0
BBX 12 21 0 -2
BITMAP
000000222220
000003C12220
00001EE88122
00001FF81322
000008FB7890
000012159B10
004502210200
05FA9DFB7300
08B222222220
099000000020
4F9032222020
6F9024FFF700
6F9021224100
6F9042221100
6F9020001100
6F9023BB5000
6F9022872210
6F9032222020
6F9000000020
6FEBBBBBB710
4FFFFFFF9000
ENDCHAR
STARTCHAR ecircumflexhookabove
ENCODING 7875
SWIDTH 754 0
DWIDTH 11 0
BBX 12 21 0 -2
BITMAP
000000222220
000003C12220
00001EE88122
00001FF81322
000008FB7890
000012159B10
004502210200
05FA9DFB7300
08B222222220
099000000020
4F9032222020
6F9024FFF700
6F9021224100
6F9042221100
6F9020001100
6F9023BB5000
6F9022872210
6F9032222020
6F9000000020
6FEBBBBBB710
4FFFFFFF9000
ENDCHAR
STARTCHAR Ecircumflextilde
ENCODING 7876
SWIDTH 754 0
DWIDTH 11 0
BBX 11 20 0 -2
BITMAP
000221112100
004612000200
04E601230200
08FBAA866100
08FD83151000
038502210200
03EA9DFB7300
08B222222220
089000000020
3E9032222020
6F9024FFF700
6F9021224100
6F9042221100
6F9020001100
6F9023BB5000
6F9022872210
6F9032222020
6F9000000020
6FEBBBBBB710
4FFFFFFF9000
ENDCHAR
STARTCHAR ecircumflextilde
ENCODING 7877
SWIDTH 754 0
DWIDTH 11 0
BBX 11 20 0 -2
BITMAP
000221112100
004612000200
04E601230200
08FBAA866100
08FD83151000
038502210200
03EA9DFB7300
08B222222220
089000000020
3E9032222020
6F9024FFF700
6F9021224100
6F9042221100
6F9020001100
6F9023BB5000
6F9022872210
6F9032222020
6F9000000020
6FEBBBBBB710
4FFFFFFF9000
ENDCHAR
STARTCHAR Ecircumflexdotbelow
ENCODING 7878
SWIDTH 754 0
DWIDTH 11 0
BBX 11 21 0 -6
BITMAP
000002220000
000310002200
009602210200
07FA9DFB7200
08B222222220
0A9000000020
5F9032222020
6F9024FFF700
6F9021224100
6F9042221100
6F9020001100
6F9023BB5000
6F9022872210
6F9032222020
6F9000000020
6FECB99AC910
4FFF90039000
003E90220000
006FA0020000
006FFFE30000
003BCB200000
ENDCHAR
STARTCHAR ecircumflexdotbelow
ENCODING 7879
SWIDTH 754 0
DWIDTH 11 0
BBX 11 21 0 -6
BITMAP
000002220000
000310002200
009602210200
07FA9DFB7200
08B222222220
0A9000000020
5F9032222020
6F9024FFF700
6F9021224100
6F9042221100
6F9020001100
6F9023BB5000
6F9022872210
6F9032222020
6F9000000020
6FECB99AC910
4FFF90039000
003E90220000
006FA0020000
006FFFE30000
003BCB200000
ENDCHAR
STARTCHAR Ihookabove
ENCODING 7880
SWIDTH 705 0
DWIDTH 10 0
BBX 10 17 0 -2
BITMAP
0003222200
009C123300
03FFB72200
019F711300
0272020222
2D50000002
9F51232202
9FA6120351
9FFF420730
25CF420200
00BF420200
00BF420200
0088220221
0A51232202
8F60000002
9FDBBBBB91
7FFFFFFC10
ENDCHAR
STARTCHAR ihookabove
ENCODING 7881
SWIDTH 705 0
DWIDTH 10 0
BBX 10 17 0 -2
BITMAP
0003222200
009C123300
03FFB72200
019F711300
0272020222
2D50000002
9F51232202
9FA6120351
9FFF420730
25CF420200
00BF420200
00BF420200
0088220221
0A51232202
8F60000002
9FDBBBBB91
7FFFFFFC10
ENDCHAR
STARTCHAR Idotbelow
ENCODING 7882
SWIDTH 705 0
DWIDTH 10 0
BBX 10 17 0 -6
BITMAP
0152222222
1D50000002
8F51232202
9FA6120351
9FFF420730
25CF420200
00BF420200
00BF420200
0088220221
0A51232202
8F60000002
9FECA99BB2
7FFF400720
007F420200
00BF500300
00BFFFC100
006CC90000
ENDCHAR
STARTCHAR idotbelow
ENCODING 7883
SWIDTH 705 0
DWIDTH 10 0
BBX 10 17 0 -6
BITMAP
0152222222
1D50000002
8F51232202
9FA6120351
9FFF420730
25CF420200
00BF420200
00BF420200
0088220221
0A51232202
8F60000002
9FECA99BB2
7FFF400720
007F420200
00BF500300
00BFFFC100
006CC90000
ENDCHAR
STARTCHAR Odotbelow
ENCODING 7884
SWIDTH 837 0
DWIDTH 12 0
BBX 12 16 0 -5
BITMAP
000222222310
004112222030
088020000202
4F6114FC0202
7F6116FE0202
8F6112FE0202
8F6112FE0202
8F6112FE0202
8F7031530202
8FA013333021
7FF600000250
4FFFE966C800
08FFF3003000
002BF3202000
000CFDCB3000
000BFFC30000
ENDCHAR
STARTCHAR odotbelow
ENCODING 7885
SWIDTH 837 0
DWIDTH 12 0
BBX 12 16 0 -5
BITMAP
000222222310
004112222030
088020000202
4F6114FC0202
7F6116FE0202
8F6112FE0202
8F6112FE0202
8F6112FE0202
8F7031530202
8FA013333021
7FF600000250
4FFFE966C800
08FFF3003000
002BF3202000
000CFDCB3000
000BFFC30000
ENDCHAR
STARTCHAR Ohookabove
ENCODING 7886
SWIDTH 837 0
DWIDTH 12 0
BBX 12 18 0 -2
BITMAP
000032222000
0005B1233000
002FE8723000
003FF6232000
0007FA685000
000641012320
006012222020
0B8020000202
5F6114FC0202
7F6116FE0202
8F6112FE0202
8F6112FE0202
8F6112FE0202
8F7031530202
8FA013333021
5FF710000320
1DFFFDCCD400
019DFFDA2000
ENDCHAR
STARTCHAR ohookabove
ENCODING 7887
SWIDTH 837 0
DWIDTH 12 0
BBX 12 18 0 -2
BITMAP
000032222000
0005B1233000
002FE8723000
003FF6232000
0007FA685000
000641012320
006012222020
0B8020000202
5F6114FC0202
7F6116FE0202
8F6112FE0202
8F6112FE0202
8F6112FE0202
8F7031530202
8FA013333021
5FF710000320
1DFFFDCCD400
019DFFDA2000
ENDCHAR
STARTCHAR Ocircumflexacute
ENCODING 7888
SWIDTH 837 0
DWIDTH 12 0
BBX 12 20 0 -2
BITMAP
000000038C40
0000007C9530
000007F50000
000008810610
000322222400
006C00000200
01FE6AEC8500
02FB41002310
01B012222020
0B8020000202
5F6114FC0202
7F6116FE0202
8F6112FE0202
8F6112FE0202
8F6112FE0202
8F7031530202
8FA013333021
5FF710000320
1DFFFDCCD400
019DFFDA2000
ENDCHAR
STARTCHAR ocircumflexacute
ENCODING 7889
SWIDTH 837 0
DWIDTH 12 0
BBX 12 20 0 -2
BITMAP
000000038C40
0000007C9530
000007F50000
000008810610
000322222400
006C00000200
01FE6AEC8500
02FB41002310
01B012222020
0B8020000202
5F6114FC0202
7F6116FE0202
8F6112FE0202
8F6112FE0202
8F6112FE0202
8F7031530202
8FA013333021
5FF710000320
1DFFFDCCD400
019DFFDA2000
ENDCHAR
STARTCHAR Ocircumflexgrave
ENCODING 7890
SWIDTH 837 0
DWIDTH 12 0
BBX 12 20 0 -2
BITMAP
000000175100
000002DACE10
00000DF12210
00001C820200
000432221100
006C00000200
01FE6AEC8500
02FB41002310
01B012222020
0B8020000202
5F6114FC0202
7F6116FE0202
8F6112FE0202
8F6112FE0202
8F6112FE0202
8F7031530202
8FA013333021
5FF710000320
1DFFFDCCD400
019DFFDA2000
ENDCHAR
STARTCHAR ocircumflexgrave
ENCODING 7891
SWIDTH 837 0
DWIDTH 12 0
BBX 12 20 0 -2
BITMAP
000000175100
000002DACE10
00000DF12210
00001C820200
000432221100
006C00000200
01FE6AEC8500
02FB41002310
01B012222020
0B8020000202
5F6114FC0202
7F6116FE0202
8F6112FE0202
8F6112FE0202
8F6112FE0202
8F7031530202
8FA013333021
5FF710000320
1DFFFDCCD400
019DFFDA2000
ENDCHAR
STARTCHAR Ocircumflexhookabove
ENCODING 7892
SWIDTH 837 0
DWIDTH 12 0
BBX 12 21 0 -2
BITMAP
000000142231
000001C52223
000009FD9422
000007EE1211
000012587A50
000412231500
007C00000200
01FE6AEC8500
02FB41002310
01B012222020
0B8020000202
5F6114FC0202
7F6116FE0202
8F6112FE0202
8F6112FE0202
8F6112FE0202
8F7031530202
8FA013333021
5FF710000320
1DFFFDCCD400
019DFFDA2000
ENDCHAR
STARTCHAR ocircumflexhookabove
ENCODING 7893
SWIDTH 837 0
DWIDTH 12 0
BBX 12 21 0 -2
BITMAP
000000142231
000001C52223
000009FD9422
000007EE1211
000012587A50
000412231500
007C00000200
01FE6AEC8500
02FB41002310
01B012222020
0B8020000202
5F6114FC0202
7F6116FE0202
8F6112FE0202
8F6112FE0202
8F6112FE0202
8F7031530202
8FA013333021
5FF710000320
1DFFFDCCD400
019DFFDA2000
ENDCHAR
STARTCHAR Ocircumflextilde
ENCODING 7894
SWIDTH 837 0
DWIDTH 12 0
BBX 12 20 0 -2
BITMAP
000121111100
003B02221200
01ED24311400
02FFFB68B100
007B22231400
008C00000200
02FE6AEC8500
02FB41002310
01B012222020
0B8020000202
5F6114FC0202
7F6116FE0202
8F6112FE0202
8F6112FE0202
8F6112FE0202
8F7031530202
8FA013333021
5FF710000320
1DFFFDCCD400
019DFFDA2000
ENDCHAR
STARTCHAR ocircumflextilde
ENCODING 7895
SWIDTH 837 0
DWIDTH 12 0
BBX 12 20 0 -2
BITMAP
000121111100
003B02221200
01ED24311400
02FFFB68B100
007B22231400
008C00000200
02FE6AEC8500
02FB41002310
01B012222020
0B8020000202
5F6114FC0202
7F6116FE0202
8F6112FE0202
8F6112FE0202
8F6112FE0202
8F7031530202
8FA013333021
5FF710000320
1DFFFDCCD400
019DFFDA2000
ENDCHAR
STARTCHAR Ocircumflexdotbelow
ENCODING 7896
SWIDTH 837 0
DWIDTH 12 0
BBX 12 20 0 -5
BITMAP
000002221000
000222232300
005C00000200
01FE6AEC8500
02FB41002320
01B012222020
0B8021530202
5F6116FE0202
8F6115FE0202
8F6112FE0202
8F6112FE0202
8F6112FC0202
8F7030000202
8FA013333000
5FF700000110
0AFFE9669200
002AF3202000
000CF3002000
000CFDCA2000
000AFFC20000
ENDCHAR
STARTCHAR ocircumflexdotbelow
ENCODING 7897
SWIDTH 837 0
DWIDTH 12 0
BBX 12 20 0 -5
BITMAP
000002221000
000222232300
005C00000200
01FE6AEC8500
02FB41002320
01B012222020
0B8021530202
5F6116FE0202
8F6115FE0202
8F6112FE0202
8F6112FE0202
8F6112FC0202
8F7030000202
8FA013333000
5FF700000110
0AFFE9669200
002AF3202000
000CF3002000
000CFDCA2000
000AFFC20000
ENDCHAR
STARTCHAR Ohornacute
ENCODING 7898
SWIDTH 847 0
DWIDTH 12 0
BBX 13 17 0 -2
BITMAP
00000001300000
0008BCCA940000
01B72222020000
09F40000132300
0AF71220213210
04B01101531300
0B802000040200
5F6114FC020200
7F6116FE020200
8F6112FE020200
8F6112FE020200
8F6122FE020200
8F703153020200
8FA01333302100
6FF71000032000
2FFFFDCCD40000
03AEFFDA200000
ENDCHAR
STARTCHAR ohornacute
ENCODING 7899
SWIDTH 847 0
DWIDTH 12 0
BBX 13 17 0 -2
BITMAP
00000001300000
0008BCCA940000
01B72222020000
09F40000132300
0AF71220213210
04B01101531300
0B802000040200
5F6114FC020200
7F6116FE020200
8F6112FE020200
8F6112FE020200
8F6122FE020200
8F703153020200
8FA01333302100
6FF71000032000
2FFFFDCCD40000
03AEFFDA200000
ENDCHAR
STARTCHAR Ohorngrave
ENCODING 7900
SWIDTH 847 0
DWIDTH 12 0
BBX 13 16 0 -2
BITMAP
00687777600000
07F21222120000
0CF73100052300
08CB4112213210
00601101531300
0B802000040200
5F6114FC020200
7F6116FE020200
8F6112FE020200
8F6112FE020200
8F6122FE020200
8F703153020200
8FA01333302100
6FF71000032000
2FFFFDCCD40000
03AEFFDA200000
ENDCHAR
STARTCHAR ohorngrave
ENCODING 7901
SWIDTH 847 0
DWIDTH 12 0
BBX 13 16 0 -2
BITMAP
00687777600000
07F21222120000
0CF73100052300
08CB4112213210
00601101531300
0B802000040200
5F6114FC020200
7F6116FE020200
8F6112FE020200
8F6112FE020200
8F6122FE020200
8F703153020200
8FA01333302100
6FF71000032000
2FFFFDCCD40000
03AEFFDA200000
ENDCHAR
STARTCHAR Ohornhookabove
ENCODING 7902
SWIDTH 847 0
DWIDTH 12 0
BBX 13 18 0 -2
BITMAP
00003222200000
0004B123300000
002EE872300000
003FF603300000
0019FA89621100
00064101213210
00601101531400
0B802000040200
5F6114FC020200
7F6116FE020200
8F6112FE020200
8F6112FE020200
8F6122FE020200
8F703153020200
8FA01333302100
6FF71000032000
2FFFFDCCD40000
03AEFFDA200000
ENDCHAR
STARTCHAR ohornhookabove
ENCODING 7903
SWIDTH 847 0
DWIDTH 12 0
BBX 13 18 0 -2
BITMAP
00003222200000
0004B123300000
002EE872300000
003FF603300000
0019FA89621100
00064101213210
00601101531400
0B802000040200
5F6114FC020200
7F6116FE020200
8F6112FE020200
8F6112FE020200
8F6122FE020200
8F703153020200
8FA01333302100
6FF71000032000
2FFFFDCCD40000
03AEFFDA200000
ENDCHAR
STARTCHAR Ohorntilde
ENCODING 7904
SWIDTH 847 0
DWIDTH 12 0
BBX 13 17 0 -2
BITMAP
00022223420000
00450000020000
04F51333020000
09F75530362300
09FB4101213210
02901101531300
0B802000040200
5F6114FC020200
7F6116FE020200
8F6112FE020200
8F6112FE020200
8F6122FE020200
8F703153020200
8FA01333302100
6FF71000032000
2FFFFDCCD40000
03AEFFDA200000
ENDCHAR
STARTCHAR ohorntilde
ENCODING 7905
SWIDTH 847 0
DWIDTH 12 0
BBX 13 17 0 -2
BITMAP
00022223420000
00450000020000
04F51333020000
09F75530362300
09FB4101213210
02901101531300
0B802000040200
5F6114FC020200
7F6116FE020200
8F6112FE020200
8F6112FE020200
8F6122FE020200
8F703153020200
8FA01333302100
6FF71000032000
2FFFFDCCD40000
03AEFFDA200000
ENDCHAR
STARTCHAR Ohorndotbelow
ENCODING 7906
SWIDTH 847 0
DWIDTH 12 0
BBX 13 18 0 -5
BITMAP
00000000022300
00000000360110
00022222213200
00601101531300
0B802000040200
5F6114FC020200
8F6116FE020200
8F6112FE020200
8F6112FE020200
8F6122FE020200
8F703153020200
8FA01333300000
5FF60000010000
09FFE966920000
002AF320200000
000CF300200000
000CFDCA200000
000AFFC2000000
ENDCHAR
STARTCHAR ohorndotbelow
ENCODING 7907
SWIDTH 847 0
DWIDTH 12 0
BBX 13 18 0 -5
BITMAP
00000000022300
00000000360110
00022222213200
00601101531300
0B802000040200
5F6114FC020200
8F6116FE020200
8F6112FE020200
8F6112FE020200
8F6122FE020200
8F703153020200
8FA01333300000
5FF60000010000
09FFE966920000
002AF320200000
000CF300200000
000CFDCA200000
000AFFC2000000
ENDCHAR
STARTCHAR Udotbelow
ENCODING 7908
SWIDTH 846 0
DWIDTH 12 0
BBX 12 16 0 -5
BITMAP
016223053222
2D80126F0102
6F8022EF0202
7F8022EF0202
7F8022EF0202
7F8022EF0202
7F8022EF0202
7F8022EE0202
7F8030000202
6FB013322001
3FF810000100
07FFE9669200
0019F3202000
000BF3002000
000BFDCA2000
0009FFD20000
ENDCHAR
STARTCHAR udotbelow
ENCODING 7909
SWIDTH 846 0
DWIDTH 12 0
BBX 12 16 0 -5
BITMAP
016223053222
2D80126F0102
6F8022EF0202
7F8022EF0202
7F8022EF0202
7F8022EF0202
7F8022EF0202
7F8022EE0202
7F8030000202
6FB013322001
3FF810000100
07FFE9669200
0019F3202000
000BF3002000
000BFDCA2000
0009FFD20000
ENDCHAR
STARTCHAR Uhookabove
ENCODING 7910
SWIDTH 846 0
DWIDTH 12 0
BBX 12 18 0 -2
BITMAP
000013223000
0001C3222200
000BFB832200
000BFC122200
0002EE798000
016227FF3222
1C80139F0102
6F8022EF0202
7F8022EF0202
7F8022EF0202
7F8022EF0202
7F8022EF0202
7F8022EE0202
7F8030000202
6FB013322011
4FF810000320
0CFFFDCCD400
018DFFDA3000
ENDCHAR
STARTCHAR uhookabove
ENCODING 7911
SWIDTH 846 0
DWIDTH 12 0
BBX 12 18 0 -2
BITMAP
000013223000
0001C3222200
000BFB832200
000BFC122200
0002EE798000
016227FF3222
1C80139F0102
6F8022EF0202
7F8022EF0202
7F8022EF0202
7F8022EF0202
7F8022EF0202
7F8022EE0202
7F8030000202
6FB013322011
4FF810000320
0CFFFDCCD400
018DFFDA3000
ENDCHAR
STARTCHAR Uhornacute
ENCODING 7912
SWIDTH 856 0
DWIDTH 12 0
BBX 13 17 0 -2
BITMAP
00000002400000
0019CDCA940000
01C72222020000
09F40000322210
0AA133B9012020
1D80126E022300
6F8022EF020200
7F8022EF020200
7F8022EF020200
7F8022EF020200
7F8022EF020200
7F8022EE020200
7F803000020200
7FB01332201100
5FF81000032000
1DFFFDCCD40000
029DFFDA300000
ENDCHAR
STARTCHAR uhornacute
ENCODING 7913
SWIDTH 856 0
DWIDTH 12 0
BBX 13 17 0 -2
BITMAP
00000002400000
0019CDCA940000
01C72222020000
09F40000322210
0AA133B9012020
1D80126E022300
6F8022EF020200
7F8022EF020200
7F8022EF020200
7F8022EF020200
7F8022EF020200
7F8022EE020200
7F803000020200
7FB01332201100
5FF81000032000
1DFFFDCCD40000
029DFFDA300000
ENDCHAR
STARTCHAR Uhorngrave
ENCODING 7914
SWIDTH 856 0
DWIDTH 12 0
BBX 13 16 0 -2
BITMAP
00598887500000
06F21222320000
0CF51000062210
09A336CA212020
1C8013CF022300
6F8022EF020200
7F8022EF020200
7F8022EF020200
7F8022EF020200
7F8022EF020200
7F8022EE020200
7F803000020200
7FB01332201100
5FF81000032000
1DFFFDCCD40000
029DFFDA300000
ENDCHAR
STARTCHAR uhorngrave
ENCODING 7915
SWIDTH 856 0
DWIDTH 12 0
BBX 13 16 0 -2
BITMAP
00598887500000
06F21222320000
0CF51000062210
09A336CA212020
1C8013CF022300
6F8022EF020200
7F8022EF020200
7F8022EF020200
7F8022EF020200
7F8022EF020200
7F8022EE020200
7F803000020200
7FB01332201100
5FF81000032000
1DFFFDCCD40000
029DFFDA300000
ENDCHAR
STARTCHAR Uhornhookabove
ENCODING 7916
SWIDTH 856 0
DWIDTH 12 0
BBX 13 18 0 -2
BITMAP
00001322300000
0001D122220000
000CF772220000
000EFB11210000
0006FC58321110
016227F9012020
1C80137E022300
6F8022EF020200
7F8022EF020200
7F8022EF020200
7F8022EF020200
7F8022EF020200
7F8022EE020200
7F803000020200
7FB01332201100
5FF81000032000
1DFFFDCCD40000
029DFFDA300000
ENDCHAR
STARTCHAR uhornhookabove
ENCODING 7917
SWIDTH 856 0
DWIDTH 12 0
BBX 13 18 0 -2
BITMAP
00001322300000
0001D122220000
000CF772220000
000EFB11210000
0006FC58321110
016227F9012020
1C80137E022300
6F8022EF020200
7F8022EF020200
7F8022EF020200
7F8022EF020200
7F8022EF020200
7F8022EE020200
7F803000020200
7FB01332201100
5FF81000032000
1DFFFDCCD40000
029DFFDA300000
ENDCHAR
STARTCHAR Uhorntilde
ENCODING 7918
SWIDTH 856 0
DWIDTH 12 0
BBX 13 16 0 -2
BITMAP
00042332200000
01B41321020000
09F64421262210
0AA337FF412020
0C8013BF022300
6F8022EF020200
7F8022EF020200
7F8022EF020200
7F8022EF020200
7F8022EF020200
7F8022EE020200
7F803000020200
7FB01332201100
5FF81000032000
1EFFFDCCD40000
029DFFDA300000
ENDCHAR
STARTCHAR uhorntilde
ENCODING 7919
SWIDTH 856 0
DWIDTH 12 0
BBX 13 16 0 -2
BITMAP
00042332200000
01B41321020000
09F64421262210
0AA337FF412020
0C8013BF022300
6F8022EF020200
7F8022EF020200
7F8022EF020200
7F8022EF020200
7F8022EF020200
7F8022EE020200
7F803000020200
7FB01332201100
5FF81000032000
1EFFFDCCD40000
029DFFDA300000
ENDCHAR
STARTCHAR Uhorndotbelow
ENCODING 7920
SWIDTH 856 0
DWIDTH 12 0
BBX 13 18 0 -5
BITMAP
00000000032200
00000000680020
01622307412120
2D80127F022300
6F8022EF020200
7F8022EF020200
7F8022EF020200
7F8022EF020200
7F8022EF020200
7F8022EE020200
7F803000020200
6FB01332200100
3FF81000010000
07FFE966920000
0019F320200000
000BF300200000
000BFDCA200000
0009FFD2000000
ENDCHAR
STARTCHAR uhorndotbelow
ENCODING 7921
SWIDTH 856 0
DWIDTH 12 0
BBX 13 18 0 -5
BITMAP
00000000032200
00000000680020
01622307412120
2D80127F022300
6F8022EF020200
7F8022EF020200
7F8022EF020200
7F8022EF020200
7F8022EF020200
7F8022EE020200
7F803000020200
6FB01332200100
3FF81000010000
07FFE966920000
0019F320200000
000BF300200000
000BFDCA200000
0009FFD2000000
ENDCHAR
STARTCHAR Ygrave
ENCODING 7922
SWIDTH 805 0
DWIDTH 11 0
BBX 11 17 0 -2
BITMAP
000353100000
006CACDEC400
06F701222400
07F910000000
07622AC84130
3E4103CB0120
AF4205FB0220
BF4205FB0220
BF4113F60220
AFA030602030
8FF412021210
2EFD11320200
06FF90203000
00BFE0202000
002FE0002000
000FFBB81000
000EFFA10000
ENDCHAR
STARTCHAR ygrave
ENCODING 7923
SWIDTH 805 0
DWIDTH 11 0
BBX 11 17 0 -2
BITMAP
000353100000
006CACDEC400
06F701222400
07F910000000
07622AC84130
3E4103CB0120
AF4205FB0220
BF4205FB0220
BF4113F60220
AFA030602030
8FF412021210
2EFD11320200
06FF90203000
00BFE0202000
002FE0002000
000FFBB81000
000EFFA10000
ENDCHAR
STARTCHAR Ydotbelow
ENCODING 7924
SWIDTH 805 0
DWIDTH 11 0
BBX 11 17 0 -6
BITMAP
035222062230
3E41029B0120
AF4205FB0220
BF4205FB0220
BF4113F60220
AFA030602030
8FF512021210
1EFE11320200
06FF90203000
00AFE0202000
002FE0002000
000FFA981000
000EE0002000
000CE0202000
000FE1002000
000FFFF70000
000ACB600000
ENDCHAR
STARTCHAR ydotbelow
ENCODING 7925
SWIDTH 805 0
DWIDTH 11 0
BBX 11 17 0 -6
BITMAP
035222062230
3E41029B0120
AF4205FB0220
BF4205FB0220
BF4113F60220
AFA030602030
8FF512021210
1EFE11320200
06FF90203000
00AFE0202000
002FE0002000
000FFA981000
000EE0002000
000CE0202000
000FE1002000
000FFFF70000
000ACB600000
ENDCHAR
STARTCHAR Yhookabove
ENCODING 7926
SWIDTH 805 0
DWIDTH 11 0
BBX 11 17 0 -2
BITMAP
000042222000
001A92233000
005FFA622000
001BF4210000
035228BB2230
3E4104BB0120
AF4205FB0220
BF4205FB0220
BF4113F60220
AFA030602030
8FF412021210
2EFD11320200
06FF90203000
00BFE0202000
002FE0002000
000FFBB81000
000EFFA10000
ENDCHAR
STARTCHAR yhookabove
ENCODING 7927
SWIDTH 805 0
DWIDTH 11 0
BBX 11 17 0 -2
BITMAP
000042222000
001A92233000
005FFA622000
001BF4210000
035228BB2230
3E4104BB0120
AF4205FB0220
BF4205FB0220
BF4113F60220
AFA030602030
8FF412021210
2EFD11320200
06FF90203000
00BFE0202000
002FE0002000
000FFBB81000
000EFFA10000
ENDCHAR
STARTCHAR Ytilde
ENCODING 7928
SWIDTH 805 0
DWIDTH 11 0
BBX 11 16 0 -2
BITMAP
000414332000
009902220200
05FA34311100
06622BFD3230
3E4106EB0120
AF4205FB0220
BF4205FB0220
BF4113F60220
AFA030602030
8FF412021210
2EFD11320200
06FF90203000
00BFE0202000
002FE0002000
000FFBB81000
000EFFA10000
ENDCHAR
STARTCHAR ytilde
ENCODING 7929
SWIDTH 805 0
DWIDTH 11 0
BBX 11 16 0 -2
BITMAP
000414332000
009902220200
05FA34311100
06622BFD3230
3E4106EB0120
AF4205FB0220
BF4205FB0220
BF4113F60220
AFA030602030
8FF412021210
2EFD11320200
06FF90203000
00BFE0202000
002FE0002000
000FFBB81000
000EFFA10000
ENDCHAR
STARTCHAR enspace
ENCODING 8192
SWIDTH 500 0
DWIDTH 7 0
BBX 1 1 0 0
BITMAP
00
ENDCHAR
STARTCHAR emspace
ENCODING 8193
SWIDTH 1000 0
DWIDTH 14 0
BBX 1 1 0 0
BITMAP
00
ENDCHAR
STARTCHAR uni2002
ENCODING 8194
SWIDTH 500 0
DWIDTH 7 0
BBX 1 1 0 0
BITMAP
00
ENDCHAR
STARTCHAR uni2003
ENCODING 8195
SWIDTH 1000 0
DWIDTH 14 0
BBX 1 1 0 0
BITMAP
00
ENDCHAR
STARTCHAR space.tab_en
ENCODING 8199
SWIDTH 1100 0
DWIDTH 15 0
BBX 1 1 0 0
BITMAP
00
ENDCHAR
STARTCHAR uni2010
ENCODING 8208
SWIDTH 520 0
DWIDTH 7 0
BBX 8 5 0 2
BITMAP
01322220
2C312211
BF300011
CFDBBB80
AFFFF800
ENDCHAR
STARTCHAR figuredash
ENCODING 8210
SWIDTH 834 0
DWIDTH 12 0
BBX 12 5 0 2
BITMAP
003222222230
089022222111
5F9000000021
5FEBBBBBBB70
4FFFFFFFF800
ENDCHAR
STARTCHAR endash
ENCODING 8211
SWIDTH 834 0
DWIDTH 12 0
BBX 12 5 0 2
BITMAP
003222222230
089022222111
5F9000000021
5FEBBBBBBB70
4FFFFFFFF800
ENDCHAR
STARTCHAR emdash
ENCODING 8212
SWIDTH 1234 0
DWIDTH 17 0
BBX 17 5 0 2
BITMAP
003222222222222220
089022222222222120
5F9000000000000020
5FEBBBBBBBBBBBBB30
4FFFFFFFFFFFFFD300
ENDCHAR
STARTCHAR horizontalbar
ENCODING 8213
SWIDTH 1234 0
DWIDTH 17 0
BBX 17 5 0 2
BITMAP
003222222222222220
089022222222222120
5F9000000000000020
5FEBBBBBBBBBBBBB30
4FFFFFFFFFFFFFD300
ENDCHAR
STARTCHAR quoteleft
ENCODING 8216
SWIDTH 484 0
DWIDTH 7 0
BBX 7 8 0 3
BITMAP
00232310
03712120
2E627810
7F620020
8F622020
8F700020
8FFFF900
5BCB7000
ENDCHAR
STARTCHAR quoteright
ENCODING 8217
SWIDTH 484 0
DWIDTH 7 0
BBX 7 8 0 3
BITMAP
02622220
3E612120
8F600220
8FEA4220
7F912120
2EC67600
6FFF8000
29950000
ENDCHAR
STARTCHAR quotesinglbase
ENCODING 8218
SWIDTH 484 0
DWIDTH 7 0
BBX 7 9 0 -4
BITMAP
00322210
08600020
7F612120
8F600220
8FD93220
6F912100
4FD98100
5FFB1000
01000000
ENDCHAR
STARTCHAR quotedblleft
ENCODING 8220
SWIDTH 784 0
DWIDTH 11 0
BBX 11 8 0 3
BITMAP
002324022230
046122702120
3F429BB24920
9F4200A20020
BF4320A12120
BF5000B00030
BFFFFFFFFD20
6CCB7BCCA100
ENDCHAR
STARTCHAR quotedblright
ENCODING 8221
SWIDTH 784 0
DWIDTH 11 0
BBX 11 8 0 3
BITMAP
035222822230
4E4221A12220
AF4011A00220
BFDA31EA7220
9F7223E12130
4FB67DF66810
8FFF5FFFC100
3A9308A71000
ENDCHAR
STARTCHAR quotedblbase
ENCODING 8222
SWIDTH 784 0
DWIDTH 11 0
BBX 11 9 0 -4
BITMAP
003222322220
0A4000A00020
9F4231A12220
BF4011A00220
BFD931EA6220
8F7225E12110
5FC99FFA9300
7FFA1EFD4000
010000100000
ENDCHAR
STARTCHAR dagger
ENCODING 8224
SWIDTH 818 0
DWIDTH 11 0
BBX 12 13 0 -2
BITMAP
000043222000
0003E2002000
000DF2202010
045231202221
5F5122422202
AF5000200012
AFEDE421FE80
9FDEF420F900
000AF3202000
000BF2202000
000CF1002000
000CFCB81000
000CFFB10000
ENDCHAR
STARTCHAR daggerdbl
ENCODING 8225
SWIDTH 818 0
DWIDTH 11 0
BBX 12 13 0 -2
BITMAP
000054222000
0026F2003230
065010201011
6F5122422202
AF5011202011
AFFFF220DF70
7CDEF220B720
065121202111
7F5122422102
AF7351205431
AFFFF200DD30
354CFCC95100
000CFFB10000
ENDCHAR
STARTCHAR bullet
ENCODING 8226
SWIDTH 543 0
DWIDTH 8 0
BBX 8 8 0 1
BITMAP
00322221
0A400002
9F422302
BF420202
BF422302
BF400002
BFDCCC70
9FFFFA00
ENDCHAR
STARTCHAR ellipsis
ENCODING 8230
SWIDTH 1210 0
DWIDTH 17 0
BBX 17 6 0 -2
BITMAP
003222132221322210
1A6000970008800020
8F6020C7020B802020
8F6010C7010B801020
8FDBBBFEBBBEEBBA20
7FFFA6FFFB6FFFC200
ENDCHAR
STARTCHAR perthousand
ENCODING 8240
SWIDTH 1517 0
DWIDTH 21 0
BBX 22 13 0 -2
BITMAP
0022222042220000000000
0642220590020000000000
5F32412C62200000000000
BF32C32C22200000000000
BF32612B02223330133320
BF42220811812215422221
BFC3017721920027220022
7FFFFDF42482682722C122
07BB78F02882682722D122
00000BC02B922327224122
00000E900ED2222C822320
00003FECAFFFCCDFFECA10
00005FF70AEFD54CFEA100
ENDCHAR
STARTCHAR minute
ENCODING 8242
SWIDTH 456 0
DWIDTH 6 0
BBX 7 8 0 3
BITMAP
01622310
1C801110
6F702200
6F702200
7F601200
8F700200
8FFFC200
5BCA1000
ENDCHAR
STARTCHAR second
ENCODING 8243
SWIDTH 766 0
DWIDTH 11 0
BBX 11 8 0 3
BITMAP
016223722230
1C8011D01020
6F7023C02020
6F7024C02020
7F6015B01020
8F7007C00200
8FFFEFFFE500
5BCA3BCB3000
ENDCHAR
STARTCHAR guilsinglleft
ENCODING 8249
SWIDTH 663 0
DWIDTH 9 0
BBX 9 10 0 -1
BITMAP
0000002210
0003220020
0170222020
1D72125620
6F72048510
7F90222020
7FF7200020
3FFFFEB820
027ADFE500
0000012000
ENDCHAR
STARTCHAR guilsinglright
ENCODING 8250
SWIDTH 663 0
DWIDTH 9 0
BBX 9 10 0 -1
BITMAP
0022200000
05A0022310
2FB0222020
3FE7520220
3FFB850220
05B0222120
2EB0002410
3FD8BEC100
3FFC950000
0200000000
ENDCHAR
STARTCHAR fraction
ENCODING 8260
SWIDTH 417 0
DWIDTH 6 0
BBX 8 13 -1 -2
BITMAP
00016231
002D4121
008F2220
00BE0220
00EC0220
01F92020
04F62020
06F42200
09F12200
0BE02200
0EC00200
1FFB8100
2FFB1000
ENDCHAR
STARTCHAR zero.sups
ENCODING 8304
SWIDTH 656 0
DWIDTH 9 0
BBX 9 10 0 1
BITMAP
0022111200
0721221010
3F029A2020
6F02BD1120
7F02AD1120
7F029C1120
6F12002110
4FB5334200
09FFFE6000
0013310000
ENDCHAR
STARTCHAR foursuperior
ENCODING 8308
SWIDTH 608 0
DWIDTH 9 0
BBX 9 10 0 1
BITMAP
0452482220
5F328B2020
BF328B2020
BF32352020
BF42224020
BFA1002020
AFFFFB2020
2ABCFD3320
0003FFF600
00019A4000
ENDCHAR
STARTCHAR five.sups
ENCODING 8309
SWIDTH 593 0
DWIDTH 8 0
BBX 9 10 0 1
BITMAP
0272222300
3E71221200
7F722AB300
7F71222300
7F80002200
7FFEE82110
2E61222200
7F60001300
8FFFFF7000
5CCCB50000
ENDCHAR
STARTCHAR six.sups
ENCODING 8310
SWIDTH 628 0
DWIDTH 9 0
BBX 9 10 0 1
BITMAP
0023222300
0381221200
2E713BC400
7F62111220
8F62010220
8F624F1220
8F72140110
7FD2222000
2FFFCB7000
0389950000
ENDCHAR
STARTCHAR seven.sups
ENCODING 8311
SWIDTH 577 0
DWIDTH 8 0
BBX 8 10 0 1
BITMAP
05422223
6F222222
CFCCC322
BFFD7122
00621212
07E02560
0ED02500
1FE00200
1FFFA000
0BC80000
ENDCHAR
STARTCHAR eight.sups
ENCODING 8312
SWIDTH 638 0
DWIDTH 9 0
BBX 9 10 0 1
BITMAP
0013222200
02A0222110
1DB23F1120
3FE3031300
2F81444130
4F427F3220
9F42140220
AFB2222100
6FFFCC9100
0489960000
ENDCHAR
STARTCHAR nine.sups
ENCODING 8313
SWIDTH 628 0
DWIDTH 9 0
BBX 9 10 0 1
BITMAP
0023222200
0661232020
5F427D1120
AF52130220
AFA2111220
7FFDB90120
08F1222020
0DF1002400
0EFFFF9000
09CBA60000
ENDCHAR
STARTCHAR parenleft.sups
ENCODING 8317
SWIDTH 434 0
DWIDTH 6 0
BBX 6 12 0 1
BITMAP
001111
042002
3C0302
8C1070
9C1020
9C1020
9C1020
9C1020
9E1121
7F9412
2DFFA1
002300
ENDCHAR
STARTCHAR parenright.sups
ENCODING 8318
SWIDTH 435 0
DWIDTH 6 0
BBX 6 12 0 1
BITMAP
021110
2B0011
8D0201
8FD021
2AE021
07E021
07E021
07E021
073011
6D1430
8FF800
131000
ENDCHAR
STARTCHAR n.sups
ENCODING 8319
SWIDTH 673 0
DWIDTH 9 0
BBX 9 10 0 1
BITMAP
0022111200
0631222020
2F12471120
5F11AF0220
5F118F0220
5F118F0220
5F118F0220
5F218F1120
5FFA7FF900
1330133000
ENDCHAR
STARTCHAR zero.sinf
ENCODING 8320
SWIDTH 656 0
DWIDTH 9 0
BBX 9 10 0 -2
BITMAP
0022111200
0721221010
3F029A2020
6F02BD1120
7F02AD1120
7F029C1120
6F12002110
4FB5334200
09FFFE6000
0013310000
ENDCHAR
STARTCHAR one.sinf
ENCODING 8321
SWIDTH 557 0
DWIDTH 8 0
BBX 8 10 0 -2
BITMAP
02722220
3E813020
7FFC2020
5CFC2020
03FC2020
03B72032
1B412212
9F500002
AFFFFFB1
7CCCCA10
ENDCHAR
STARTCHAR two.sinf
ENCODING 8322
SWIDTH 585 0
DWIDTH 8 0
BBX 8 10 0 -2
BITMAP
01722222
2D812212
6FD99322
4EE94222
05622351
4F324832
BF322212
CF300002
CFFFFFD2
8CCCCB20
ENDCHAR
STARTCHAR three.sinf
ENCODING 8323
SWIDTH 584 0
DWIDTH 8 0
BBX 8 10 0 -2
BITMAP
04522230
6F512202
AFECA122
49F22332
0CF20022
0CFEE722
0C512212
8F500022
AFFFFF60
6CCCB400
ENDCHAR
STARTCHAR four.sinf
ENCODING 8324
SWIDTH 620 0
DWIDTH 9 0
BBX 9 10 0 -2
BITMAP
0542472310
6F229A2110
CF229A2110
CF22452110
CF22223110
CF91002110
BFFFFA2110
3ABCFB3410
0004FFE400
0002AA3000
ENDCHAR
STARTCHAR five.sinf
ENCODING 8325
SWIDTH 593 0
DWIDTH 8 0
BBX 9 10 0 -2
BITMAP
0272222300
3E71221200
7F722AB300
7F71222300
7F80002200
7FFEE82110
2E61222200
7F60001300
8FFFFF7000
5CCCB50000
ENDCHAR
STARTCHAR six.sinf
ENCODING 8326
SWIDTH 628 0
DWIDTH 9 0
BBX 9 10 0 -2
BITMAP
0023222300
0381221200
2E713BC400
7F62111220
8F62010220
8F624F1220
8F72140110
7FD2222000
2FFFCB7000
0389950000
ENDCHAR
STARTCHAR seven.sinf
ENCODING 8327
SWIDTH 577 0
DWIDTH 8 0
BBX 8 10 0 -2
BITMAP
05422223
6F222222
CFCCC322
BFFD7122
00621212
07E02560
0ED02500
1FE00200
1FFFA000
0BC80000
ENDCHAR
STARTCHAR eight.sinf
ENCODING 8328
SWIDTH 638 0
DWIDTH 9 0
BBX 9 10 0 -2
BITMAP
0013222200
02A0222110
1DB23F1120
3FE3031300
2F81444130
4F427F3220
9F42140220
AFB2222100
6FFFCC9100
0489960000
ENDCHAR
STARTCHAR nine.sinf
ENCODING 8329
SWIDTH 628 0
DWIDTH 9 0
BBX 9 10 0 -2
BITMAP
0023222200
0661232020
5F427D1120
AF52130220
AFA2111220
7FFDB90120
08F1222020
0DF1002400
0EFFFF9000
09CBA60000
ENDCHAR
STARTCHAR parenleft.sinf
ENCODING 8333
SWIDTH 434 0
DWIDTH 6 0
BBX 6 12 0 -2
BITMAP
001111
042002
3C0302
8C1070
9C1020
9C1020
9C1020
9C1020
9E1121
7F9412
2DFFA1
002300
ENDCHAR
STARTCHAR parenright.sinf
ENCODING 8334
SWIDTH 435 0
DWIDTH 6 0
BBX 6 12 0 -2
BITMAP
021110
2B0011
8D0201
8FD021
2AE021
07E021
07E021
07E021
073011
6D1430
8FF800
131000
ENDCHAR
STARTCHAR colonsign
ENCODING 8353
SWIDTH 728 0
DWIDTH 10 0
BBX 10 14 0 -2
BITMAP
0000132320
0001824322
0010232312
0370300002
2E7112BBB5
6F6116FE50
8F61120000
8F61120000
8F70212222
7FC0232312
5FFA420204
0CFFF37455
016EFDED40
000ADBE400
ENDCHAR
STARTCHAR lira
ENCODING 8356
SWIDTH 795 0
DWIDTH 11 0
BBX 11 13 0 -2
BITMAP
000022222200
003100000200
03A012220200
0E8021CDC100
4E00202D2000
5E0242120000
EF4021422220
CE0212190020
FF8023B90220
8F9032222120
6F9000000020
6FEBBBBBBB40
4FFFFFFFE400
ENDCHAR
STARTCHAR naira
ENCODING 8358
SWIDTH 853 0
DWIDTH 12 0
BBX 13 13 -1 -2
BITMAP
00062220342220
00990012D10020
05F90505F12020
06F90230A12020
06F50203112030
06E02201203120
0EF60221112050
0CE1225B022140
1FF9025F903030
0AF9025FF12020
06F9003EF10020
06FEBB4DFCB810
04FFE40CFFA100
ENDCHAR
STARTCHAR peseta
ENCODING 8359
SWIDTH 812 0
DWIDTH 11 0
BBX 13 13 -1 -2
BITMAP
00062222223000
00A90000000200
05F90322220200
06F50214112220
07D0224F904020
1FE2024F812110
0DF90422220200
06F90200002100
06F9023BBB3000
06F9024EA10000
06F90020000000
06FEBB40000000
04FFE500000000
ENDCHAR
STARTCHAR dong
ENCODING 8363
SWIDTH 782 0
DWIDTH 11 0
BBX 11 16 0 -5
BITMAP
000000432300
000003700120
000094224220
0007F4002020
000BFED02320
004332223200
085204502200
6F321FF02200
BF321ED02200
CF6200012200
BFE653354100
8FF999983000
09D022220200
0BE000000100
1FFFFFFE4000
0BCCCCB40000
ENDCHAR
STARTCHAR Euro
ENCODING 8364
SWIDTH 748 0
DWIDTH 10 0
BBX 11 13 0 -2
BITMAP
000232222220
005300000020
05D012222020
1E902189A500
3F3242213000
BF8022995000
CF3020002000
9F3314422000
CFB021885210
6FE012222020
2FF900000020
0CFFECBBB700
02AEFFFF9000
ENDCHAR
STARTCHAR peso
ENCODING 8369
SWIDTH 812 0
DWIDTH 11 0
BBX 12 13 0 -2
BITMAP
006222222300
1B9000000020
5F5010002021
6E0121410402
DF6024F90232
DE0122631402
DF8042222083
FF9020000430
6F9023BBB200
6F9024E91000
6F9002000000
6FEBB4000000
4FFE50000000
ENDCHAR
STARTCHAR guarani
ENCODING 8370
SWIDTH 788 0
DWIDTH 11 0
BBX 11 15 0 -3
BITMAP
000013221000
000182103300
001122321200
037020222400
1E7207FFE400
6F62069B4220
8F6202770020
8F6206F71120
8F8020211120
7FC023323020
5FFB40201130
0CFFF300CB10
017EFCB98000
000BFFC10000
000133100000
ENDCHAR
STARTCHAR cedi
ENCODING 8373
SWIDTH 728 0
DWIDTH 10 0
BBX 10 14 0 -2
BITMAP
0000132210
0001821032
0011223212
0370200002
2E7112BBB5
6F6116FE50
8F61120000
8F61120000
8F70212222
7FC0123212
4FFA402014
0BFFF300C5
017EFDB930
000AFFB100
ENDCHAR
STARTCHAR indianrupee
ENCODING 8377
SWIDTH 713 0
DWIDTH 10 0
BBX 10 13 0 -2
BITMAP
0252222223
1D51233212
9F83202023
AFB8822052
4F51224212
8FDBB220A4
9F50002150
4F51223103
AFDBBB3202
8FFFFF6112
00009F6002
00008FDBA3
00006FFD30
ENDCHAR
STARTCHAR turkishlira
ENCODING 8378
SWIDTH 795 0
DWIDTH 11 0
BBX 12 13 -1 -2
BITMAP
001622300000
01C701200000
07F702220000
08E324120000
09C112460000
2FE403122222
1DC13238B002
2EF6024EC022
1DF702284113
08F703222203
08F700000030
08FEBBBBC900
06FFFFEC6000
ENDCHAR
STARTCHAR ruble
ENCODING 8381
SWIDTH 782 0
DWIDTH 11 0
BBX 12 13 -1 -2
BITMAP
000622222220
00B900000002
05F903222202
06F9023C6112
06F9024F8023
06F902000114
06F904222246
06F7022ACD90
06E00201F900
07E024116000
1FF700370000
0CFEBB600000
04FFE6000000
ENDCHAR
STARTCHAR liter
ENCODING 8467
SWIDTH 749 0
DWIDTH 10 0
BBX 10 13 0 -2
BITMAP
0000222210
0022011023
0580311313
3F70268022
7F6028A022
8F60222122
8F60422203
8F60237850
8F70225530
8FB0222120
6FF8200020
1EFFFFFE40
017AAAA200
ENDCHAR
STARTCHAR uni2117
ENCODING 8471
SWIDTH 967 0
DWIDTH 14 0
BBX 14 15 0 -3
BITMAP
00001222222000
00034222223310
01835CEFFD8330
0C83E44447E640
5F74D042227841
7F74D02B625841
8F74D028435841
8F74D042219841
8F74D0279AF841
8F74D01C77F841
7F83E87107F640
6FC34A42267320
3FFB4222223410
09FFFECBBDA000
005ADEEDA50000
ENDCHAR
STARTCHAR uni2120
ENCODING 8480
SWIDTH 1003 0
DWIDTH 14 0
BBX 14 9 0 2
BITMAP
00022211210121
01422248125312
2D3256B9235222
BF3323B9213122
CFB42339241522
9F75533927F822
5F32229907F802
CFFFFCFFC8FFD2
7AA943A813A910
ENDCHAR
STARTCHAR trademark
ENCODING 8482
SWIDTH 1003 0
DWIDTH 14 0
BBX 15 9 -1 2
BITMAP
0002222212101210
01A1222281253120
1DE5223792352220
2FFF529F92131220
04BF529F92415220
009F529F927F8220
009F609F907F8020
009FFB8FFC8FFD20
005A803A813A9100
ENDCHAR
STARTCHAR Omega
ENCODING 8486
SWIDTH 877 0
DWIDTH 12 0
BBX 13 13 0 -2
BITMAP
00001222210000
00031000013000
01A01322320200
0CB02078120200
2FB022FF320200
4FB022CF420200
4FB022BF420200
4FC022BF320200
3F70309B130310
5F212357222020
CF300067000120
CFFFFFFFFFF600
7AAA95AAAA4000
ENDCHAR
STARTCHAR estimated
ENCODING 8494
SWIDTH 815 0
DWIDTH 11 0
BBX 12 13 0 -2
BITMAP
000022222000
002200000220
047022223020
3F6213950211
8F5206A70211
9F5222222311
9F5200000011
9F5207DDDD50
9F6112555600
8FA022221200
6FF820000200
0DFFFFFFE400
017AAAAA2000
ENDCHAR
STARTCHAR onethird
ENCODING 8531
SWIDTH 1269 0
DWIDTH 18 0
BBX 18 13 0 -2
BITMAP
016222201423000000
1D713020B202000000
7F802028E023000000
7FFC202CC025222210
17FC202E911A022120
03FC204F620D000220
03B7204C422FDC5220
1B412218123DB12331
9FDCCCCD026FEED122
9FFFFDFB026E000022
000001F9009D022212
000004FEB8FFBBBB50
000004FFA1FFFFD400
ENDCHAR
STARTCHAR twothirds
ENCODING 8532
SWIDTH 1269 0
DWIDTH 18 0
BBX 18 13 0 -2
BITMAP
016222212423000000
1C812213C202000000
6FC77225E023000000
6FFC6136C025222210
1581431A920A022120
2D33058F620D000220
9F32584B422FDC5220
CF310005123DB12331
CFDCCCCC026FEED122
BFFFFEFB026E000022
000001F9009D022212
000004FEB8FFBBBB50
000004FFA1FFFFD400
ENDCHAR
STARTCHAR oneeighth
ENCODING 8539
SWIDTH 1283 0
DWIDTH 18 0
BBX 18 13 0 -2
BITMAP
016222202423000000
1C713021C202000000
7FA42029E023000000
7FFC202CC023222210
29FC202F9218122221
03FC204F620B23F112
0673200A422E303131
6F4122181248144413
AFDCCCCD027527F422
9FFFFCEB0295214022
000001F900CA122211
000004FEBBFFDA9930
000004FFA3BEFEB300
ENDCHAR
STARTCHAR threeeighths
ENCODING 8540
SWIDTH 1293 0
DWIDTH 18 0
BBX 18 13 0 -2
BITMAP
025222301523100000
2E412202A402100000
AF733119F123000000
AFFA712CE023122220
49F22328B027222212
0CFEE723920B11F222
0C500023620E403031
2D512218422B044413
AFDCCCCF125725F622
9FFFE7CE0277214122
000000EB00AB122212
000002FEBBFFEA9A40
000003FFB2AEFEC400
ENDCHAR
STARTCHAR fiveeighths
ENCODING 8541
SWIDTH 1303 0
DWIDTH 18 0
BBX 18 13 0 -2
BITMAP
016222231622200000
1D712213C610200000
7F722ABBF322000000
7F720004F123122220
7F812222D026322212
7FFEE821B11A12E422
7F600022820D522122
3E612228620C143413
8FDCCCCF323923F822
8FFFE89F1259204122
000000CD008D122212
000000EFBBEFEA9A50
000001EFD29DFFC600
ENDCHAR
STARTCHAR seveneighths
ENCODING 8542
SWIDTH 1241 0
DWIDTH 17 0
BBX 18 13 0 -2
BITMAP
054222235222000000
6F2222268102000000
CFCCC3275212000000
BFFFE3273231222200
0067221A0255222130
06E025CD02832C6220
0ED027FA11B7121130
1FD005F820C1011030
1FFC96F521B11FA211
1FFB18F323B2032211
00000AF006E2222110
00000DFCBEFFB99600
00000DFE38DFFD7000
ENDCHAR
STARTCHAR arrowleft
ENCODING 8592
SWIDTH 1100 0
DWIDTH 15 0
BBX 12 11 2 -1
BITMAP
000000020000
000001312000
000022002000
000311303220
023021211102
4E6021211102
DFFA1130BB70
3DFFE500E900
008FFFA22000
0003DFF60000
000018400000
ENDCHAR
STARTCHAR arrowup
ENCODING 8593
SWIDTH 1100 0
DWIDTH 15 0
BBX 11 12 2 -2
BITMAP
000001320000
000027021000
0001C1203000
000951121200
005A02012210
01C102421030
0AE883208840
3FFFF620F800
0239F5004000
0008FB871000
0009FFC10000
000022000000
ENDCHAR
STARTCHAR arrowright
ENCODING 8594
SWIDTH 1100 0
DWIDTH 15 0
BBX 12 11 2 -1
BITMAP
000001000000
000073310000
0008F2012000
0138A2320310
2C3111312111
BF3011212021
BFBAB2320520
AFEFF2037100
000CF4640000
000CFA100000
000750000000
ENDCHAR
STARTCHAR arrowdown
ENCODING 8595
SWIDTH 1100 0
DWIDTH 15 0
BBX 11 12 2 -2
BITMAP
000014221000
0002C5102000
000AF5211000
004563212230
09E112421030
3FFA02011200
0AFF51121200
01EFE1203000
005FFA020000
000AFF810000
0001EC100000
000010000000
ENDCHAR
STARTCHAR arrowupleft
ENCODING 8598
SWIDTH 1100 0
DWIDTH 15 0
BBX 10 10 3 -1
BITMAP
0322222000
6E01000231
FF32123020
DF62030210
AF91412120
7FC0021212
4FF06F5021
1FF8EFE510
0C904FB100
0000030000
ENDCHAR
STARTCHAR arrowupright
ENCODING 8599
SWIDTH 1100 0
DWIDTH 15 0
BBX 10 10 3 -1
BITMAP
0000122222
0132100202
2D90222202
AFF9030220
1DE4123220
0531220020
5F702E9020
DFF8BFF910
2ED31CA100
0210000000
ENDCHAR
STARTCHAR arrowdownright
ENCODING 8600
SWIDTH 1100 0
DWIDTH 15 0
BBX 10 10 3 -1
BITMAP
0013200310
0340134020
3E41210020
DFF5123220
5EF8030220
0580222302
1D95200102
AFFFFEB852
158BDFFE30
0000014100
ENDCHAR
STARTCHAR arrowdownleft
ENCODING 8601
SWIDTH 1100 0
DWIDTH 15 0
BBX 10 10 3 -1
BITMAP
0013102310
02C0253011
0DC0111212
1F90422120
4F62021210
7F33223020
AF00001451
DF68ADFB10
EFFC974000
3300000000
ENDCHAR
STARTCHAR uni21AA
ENCODING 8618
SWIDTH 1100 0
DWIDTH 15 0
BBX 12 14 2 -3
BITMAP
001222222220
025122222020
3E2214555520
BF228FFFF600
DF224C473000
DF227F402100
DF224A511130
DF5222242203
CFD410023122
7FFFFF700540
049ACF327200
00009F860000
0000DC200000
000020000000
ENDCHAR
STARTCHAR uni21AB
ENCODING 8619
SWIDTH 1100 0
DWIDTH 15 0
BBX 13 14 1 -3
BITMAP
00024222222200
003E3122222120
00BF7555531120
00BFFFFFFF1220
00355575AF1220
00000310CF1220
00012020A80220
00411332223020
08F60230002400
1FFFB200EF8000
03CFFE60740000
0008FFFB300000
00003CF6000000
00000020000000
ENDCHAR
STARTCHAR uni21B0
ENCODING 8624
SWIDTH 1100 0
DWIDTH 15 0
BBX 13 12 1 -2
BITMAP
00000012200000
00000310200000
00013011322000
00410230001300
08E30232222200
3FFF8011D72020
05EFFC30DA2020
002BFFF8CA2020
00006EFAFA2020
00000124FA0120
00000004FFF600
00000002AA4000
ENDCHAR
STARTCHAR uni21B1
ENCODING 8625
SWIDTH 1100 0
DWIDTH 15 0
BBX 12 12 2 -2
BITMAP
000006220000
00009F213100
0001CC410220
004100032112
096122232112
7F424D410530
AF426F117200
BF426E660000
BF426C200000
BF4030000000
BFFD20000000
6A9100000000
ENDCHAR
STARTCHAR uni21B2
ENCODING 8626
SWIDTH 1100 0
DWIDTH 15 0
BBX 13 12 1 -2
BITMAP
00000000162210
00000001CA1020
00000004DA2020
00000130CA2020
00003101F82020
00120230103110
03B01332220300
2FFD3021897000
1AFFF800D70000
005EFFC3200000
0002BFFB100000
00000670000000
ENDCHAR
STARTCHAR uni21B3
ENCODING 8627
SWIDTH 1100 0
DWIDTH 15 0
BBX 12 12 2 -2
BITMAP
062220000000
8F0120000000
FF0223200000
FF028B021000
FF029F001200
FF1302032021
EF7022233112
CFFC98120330
3CFFFD006300
0012EA371000
0003FD400000
000381000000
ENDCHAR
STARTCHAR partialdiff
ENCODING 8706
SWIDTH 792 0
DWIDTH 11 0
BBX 11 13 0 -2
BITMAP
000122221000
005500001300
06F512222030
09F966512020
09FD98942020
029012223020
1B5111205020
7F4208F52020
AF4204A22020
AF7032222020
9FE500001310
4FFFECCC9000
04ADDDB50000
ENDCHAR
STARTCHAR Delta
ENCODING 8710
SWIDTH 830 0
DWIDTH 12 0
BBX 12 13 0 -2
BITMAP
000022222000
000610000200
009B03221200
01F721302110
05F320D32020
09E021F62020
0DB024F90220
2F7117FC0211
5F6203550202
8F5122222202
9F6000000002
9FFFFFFFFF70
4AAAAAAAA500
ENDCHAR
STARTCHAR product
ENCODING 8719
SWIDTH 859 0
DWIDTH 12 0
BBX 12 13 0 -2
BITMAP
001222222220
037000000002
3E9032222302
6F9022661202
6F9024FF1202
6F9023DF1202
6F9022DF1202
6F9022DF1202
6F9022DF1202
6F9022DF1202
6F9003DF2002
6FFFE3DFFF90
2AA9207AA600
ENDCHAR
STARTCHAR summation
ENCODING 8721
SWIDTH 750 0
DWIDTH 11 0
BBX 11 14 0 -3
BITMAP
001222222200
037000000200
4F8122221200
7F8120366500
7FD1121BA100
5FFD21202000
09FFD0302000
008E41212000
003312120000
045120322210
4F4222222020
AF4000000020
AFDBBBBBB700
8EEEEEEE8000
ENDCHAR
STARTCHAR minus
ENCODING 8722
SWIDTH 834 0
DWIDTH 12 0
BBX 12 5 0 2
BITMAP
002222222220
069022222111
4F9000000021
5FEBBBBBBB60
4EEEEEEEE600
ENDCHAR
STARTCHAR uni2215
ENCODING 8725
SWIDTH 417 0
DWIDTH 6 0
BBX 8 13 -1 -2
BITMAP
00016231
002D4121
008F2220
00BE0220
00EC0220
01F92020
04F62020
06F42200
09F12200
0BE02200
0EC00200
1FFB8100
2FFB1000
ENDCHAR
STARTCHAR uni2219
ENCODING 8729
SWIDTH 464 0
DWIDTH 7 0
BBX 7 6 0 1
BITMAP
00322210
1C400020
AF402020
BF401020
BFDBB810
9FFF9000
ENDCHAR
STARTCHAR radical
ENCODING 8730
SWIDTH 841 0
DWIDTH 12 0
BBX 12 14 0 -2
BITMAP
000000001222
00000002A002
0000001E8112
0000004F5202
0011108F2202
072113BD0220
9F0121EA0220
EF4120A72020
EFFA02322020
6BFF12002200
02FF62222200
00BFC0000200
005FFFFF8000
0009AAA50000
ENDCHAR
STARTCHAR infinity
ENCODING 8734
SWIDTH 978 0
DWIDTH 14 0
BBX 14 11 0 -1
BITMAP
00000000001000
00222223221230
05612221322202
4F420934095202
AF422F730FA202
BF421F841DA202
BF430422232202
AF902221122111
9FFC879EA77730
2CFFFBEFFFC200
00232003320000
ENDCHAR
STARTCHAR integral
ENCODING 8747
SWIDTH 574 0
DWIDTH 8 0
BBX 10 15 -1 -3
BITMAP
0000012220
0000310002
0006803102
004F520370
008F520400
009F520200
009F520200
009F520200
009F520200
009F520200
0099220200
05B0230200
1FC0003100
2FFBB91000
1DEC700000
ENDCHAR
STARTCHAR approxequal
ENCODING 8776
SWIDTH 834 0
DWIDTH 12 0
BBX 12 9 0 0
BITMAP
002222222230
058022221111
3F9011001020
5FEDFFECAA30
4DB9668AB430
048022210111
3F9000002120
5FECFFDB9A30
4EAABDFFB200
ENDCHAR
STARTCHAR notequal
ENCODING 8800
SWIDTH 834 0
DWIDTH 12 0
BBX 12 12 0 -2
BITMAP
000003323000
003228012230
079022242111
5F9000110021
5FFDD620AD50
3CDCC320B720
048000200021
4F9022422111
5FEA7015AA60
4FFFD66CF800
004FFE500000
000342000000
ENDCHAR
STARTCHAR lessequal
ENCODING 8804
SWIDTH 814 0
DWIDTH 11 0
BBX 11 13 0 -2
BITMAP
000000000210
000001222020
000221022020
008122200420
0AB0217BD400
2FB021794000
3FE022200220
2FFC51022020
0AD666200020
08B022222020
3FC000000020
3FFFFFFFFA10
1AAAAAAA7000
ENDCHAR
STARTCHAR greaterequal
ENCODING 8805
SWIDTH 814 0
DWIDTH 11 0
BBX 11 13 0 -2
BITMAP
001210000000
02B012220000
1ED022002200
1FE510222020
1FFFFC831220
049DFC830220
004210122020
06D022104400
1FD000155220
1FD022222020
1FE000000020
1FFFFFFFFC10
09AAAAAA8000
ENDCHAR
STARTCHAR block
ENCODING 9608
SWIDTH 1000 0
DWIDTH 14 0
BBX 16 16 -1 -3
BITMAP
4777777777777774
8FFFFFFFFFFFFFF8
8FFFFFFFFFFFFFF8
8FFFFFFFFFFFFFF8
8FFFFFFFFFFFFFF8
8FFFFFFFFFFFFFF8
8FFFFFFFFFFFFFF8
8FFFFFFFFFFFFFF8
8FFFFFFFFFFFFFF8
8FFFFFFFFFFFFFF8
8FFFFFFFFFFFFFF8
8FFFFFFFFFFFFFF8
8FFFFFFFFFFFFFF8
8FFFFFFFFFFFFFF8
8FFFFFFFFFFFFFF8
3666666666666663
ENDCHAR
STARTCHAR blacksquare
ENCODING 9632
SWIDTH 1100 0
DWIDTH 15 0
BBX 9 9 3 0
BITMAP
0012222210
0470000020
4F80222020
6F80202020
6F80202020
6F80122020
6F90000020
6FFEEEED30
3ABBBBA100
ENDCHAR
STARTCHAR blackuppointingtriangle
ENCODING 9650
SWIDTH 1100 0
DWIDTH 15 0
BBX 11 9 2 0
BITMAP
000000210000
000007020000
0000B4002000
000690202100
001D11220200
00A602230110
04E000000020
0CFEEEEEEC20
1ABBBBBB9100
ENDCHAR
STARTCHAR whiteuppointingtriangle
ENCODING 9651
SWIDTH 1100 0
DWIDTH 15 0
BBX 9 8 4 1
BITMAP
0000410000
0004150000
0013023000
0050005000
0320000500
0500000320
4211111150
0333333310
ENDCHAR
STARTCHAR blackrightpointingtriangle
ENCODING 9654
SWIDTH 1100 0
DWIDTH 15 0
BBX 9 10 3 -1
BITMAP
0362200000
4E70021000
7F70101200
7F70330020
7F70420130
7F70005500
7F70284000
7F97700000
7FB2000000
2400000000
ENDCHAR
STARTCHAR whiterightpointingtriangle
ENCODING 9655
SWIDTH 1100 0
DWIDTH 15 0
BBX 7 8 5 1
BITMAP
55300000
40251000
40004400
40000150
40000250
40005300
40350000
55200000
ENDCHAR
STARTCHAR blackdownpointingtriangle
ENCODING 9660
SWIDTH 1100 0
DWIDTH 15 0
BBX 11 9 2 0
BITMAP
001222222210
03C000000030
1FF703230210
0CFE20310200
03FFB0102000
009FF5011000
001EFD130000
0005FF800000
000086000000
ENDCHAR
STARTCHAR whitedownpointingtriangle
ENCODING 9661
SWIDTH 1100 0
DWIDTH 15 0
BBX 9 8 4 1
BITMAP
1444444420
4100000050
0500000410
0230001400
0050005000
0005032000
0003340000
0000200000
ENDCHAR
STARTCHAR blackleftpointingtriangle
ENCODING 9664
SWIDTH 1100 0
DWIDTH 15 0
BBX 9 11 3 -1
BITMAP
0000000010
0000001230
0000021020
0002201120
0050032220
1CC2022220
6FFE700020
08FFFD4020
002BFFFA40
00005DFC10
0000015000
ENDCHAR
STARTCHAR whiteleftpointingtriangle
ENCODING 9665
SWIDTH 1100 0
DWIDTH 15 0
BBX 7 9 5 1
BITMAP
00000010
00002560
00053040
03500040
42000040
33000040
02510040
00044040
00001560
ENDCHAR
STARTCHAR blackdiamond
ENCODING 9670
SWIDTH 1100 0
DWIDTH 15 0
BBX 11 11 2 -1
BITMAP
000000200000
000003030000
000030003000
000300310300
004003021030
08C103020030
5FFB10300300
0BFFB1003000
00BFFB130000
000BFF800000
000096000000
ENDCHAR
STARTCHAR lozenge
ENCODING 9674
SWIDTH 831 0
DWIDTH 12 0
BBX 11 13 0 -2
BITMAP
000012222000
000340001200
004D02221200
00C711203110
04E130C42020
0B9023FA0220
2FA023F90220
5FE130C32020
2FF712103110
0BFD02221200
04FF60001200
00CFFFFE5000
003AAAA30000
ENDCHAR
STARTCHAR uni25D6
ENCODING 9686
SWIDTH 546 0
DWIDTH 8 0
BBX 9 16 0 -3
BITMAP
0000146710
0006CEFF30
019EFFFF30
08EFFFFF30
3DFFFFFF30
7FFFFFFF30
BFFFFFFF30
CFFFFFFF30
CFFFFFFF30
AFFFFFFF30
6FFFFFFF30
3DFFFFFF30
07EFFFFF30
008EFFFF30
0005BDFF30
0000034510
ENDCHAR
STARTCHAR uni25D7
ENCODING 9687
SWIDTH 546 0
DWIDTH 8 0
BBX 9 16 -1 -3
BITMAP
4653000000
8FFDA40000
8FFFFD5000
8FFFFFD400
8FFFFFFA00
8FFFFFFD30
8FFFFFFF50
8FFFFFFF70
8FFFFFFF70
8FFFFFFF50
8FFFFFFD30
8FFFFFFA00
8FFFFFD300
8FFFFC5000
8FED930000
3542000000
ENDCHAR
STARTCHAR uni25DC
ENCODING 9692
SWIDTH 1280 0
DWIDTH 18 0
BBX 16 16 1 -3
BITMAP
0000000003456773
00000049DDFFFFF6
00002ADFFFFFFFF6
0004CFFFFFFFFFF6
002CFFFFFFFFFFF6
00AFFFFFFFFFFFF6
04DFFFFFFFFFFFF6
09FFFFFFFFFFFFF6
0DFFFFFFFFFFFFF6
3DFFFFFFFFFFFFF6
4FFFFFFFFFFFFFF6
5FFFFFFFFFFFFFF6
6FFFFFFFFFFFFFF6
7FFFFFFFFFFFFFF6
7FFFFFFFFFFFFFF6
3666666666666663
ENDCHAR
STARTCHAR uni25DD
ENCODING 9693
SWIDTH 1280 0
DWIDTH 18 0
BBX 16 16 1 -3
BITMAP
3776543000000000
7FFFFFDD94000000
7FFFFFFFFD920000
7FFFFFFFFFFB3000
7FFFFFFFFFFFB200
7FFFFFFFFFFFF900
7FFFFFFFFFFFFD30
7FFFFFFFFFFFFF80
7FFFFFFFFFFFFFC0
7FFFFFFFFFFFFFD2
7FFFFFFFFFFFFFE4
7FFFFFFFFFFFFFF4
7FFFFFFFFFFFFFF5
7FFFFFFFFFFFFFF6
7FFFFFFFFFFFFFF6
3666666666666662
ENDCHAR
STARTCHAR uni25DE
ENCODING 9694
SWIDTH 1280 0
DWIDTH 18 0
BBX 16 16 1 -3
BITMAP
4777777777777773
7FFFFFFFFFFFFFF6
7FFFFFFFFFFFFFF6
7FFFFFFFFFFFFFF5
7FFFFFFFFFFFFFF4
7FFFFFFFFFFFFFE4
7FFFFFFFFFFFFFD2
7FFFFFFFFFFFFFB0
7FFFFFFFFFFFFF70
7FFFFFFFFFFFFD30
7FFFFFFFFFFFF800
7FFFFFFFFFFFA100
7FFFFFFFFFFA2000
7FFFFFFFFD810000
7FFFFEDC73000000
3665442000000000
ENDCHAR
STARTCHAR uni25DF
ENCODING 9695
SWIDTH 1280 0
DWIDTH 18 0
BBX 16 16 1 -3
BITMAP
3777777777777773
7FFFFFFFFFFFFFF6
7FFFFFFFFFFFFFF6
6FFFFFFFFFFFFFF6
5FFFFFFFFFFFFFF6
4FFFFFFFFFFFFFF6
3DFFFFFFFFFFFFF6
0CFFFFFFFFFFFFF6
08FFFFFFFFFFFFF6
04DFFFFFFFFFFFF6
009FFFFFFFFFFFF6
002BFFFFFFFFFFF6
0003BFFFFFFFFFF6
000029DFFFFFFFF6
00000038CDEFFFF6
0000000002445662
ENDCHAR
STARTCHAR uni261A
ENCODING 9754
SWIDTH 1100 0
DWIDTH 15 0
BBX 13 10 1 -1
BITMAP
00000122105220
02522100136020
3DB77320002020
8FFFF420002020
133DF600002020
0009FB20002020
0006FD76557020
0003FFFFFFC730
000034456FF600
00000000032000
ENDCHAR
STARTCHAR uni261B
ENCODING 9755
SWIDTH 1100 0
DWIDTH 15 0
BBX 13 10 1 -1
BITMAP
00522002221000
09B03220001230
3FB02000127750
3FB0200013EA00
3FB02000023000
3FB02000240000
3FB05656730000
3FD7BFFF600000
3FF85442000000
03200000000000
ENDCHAR
STARTCHAR uni261C
ENCODING 9756
SWIDTH 1100 0
DWIDTH 15 0
BBX 11 8 3 1
BITMAP
001233103760
544321457490
445630004490
001740004490
000500004490
000641004490
000355557490
000000003650
ENDCHAR
STARTCHAR uni261D
ENCODING 9757
SWIDTH 1100 0
DWIDTH 15 0
BBX 9 12 4 -1
BITMAP
0030000000
0424000000
0404000000
0408420000
0404555300
0401230500
0400000500
0400000400
0230001400
1644444440
1CBBBBBB40
0122222200
ENDCHAR
STARTCHAR uni261E
ENCODING 9758
SWIDTH 1100 0
DWIDTH 15 0
BBX 11 8 3 1
BITMAP
484003321000
675542134460
674000256450
674000353000
674000050000
674000470000
676545540000
384000000000
ENDCHAR
STARTCHAR uni261F
ENCODING 9759
SWIDTH 1100 0
DWIDTH 15 0
BBX 9 12 4 -1
BITMAP
0333333300
1BAAAAAA50
1654444530
0230000400
0410000400
0320000400
0223201400
0167623400
0001363400
0000023400
0000015500
0000001000
ENDCHAR
STARTCHAR uni27A1
ENCODING 10145
SWIDTH 650 0
DWIDTH 9 0
BBX 10 22 -1 -6
BITMAP
0340000000
0BD6000000
0CFD300000
4CFFB10000
8FFFF90000
8FFFFE6000
8FFFFFD300
8FFFFFFB10
8FFFFFFF90
8FFFFFFFE6
8FFFFFFFFB
8FFFFFFFFB
8FFFFFFFE5
8FFFFFFF80
8FFFFFFA10
8FFFFFC300
8FFFFE5000
8FFFF80000
3CFFA10000
0CFC300000
0BD5000000
0230000000
ENDCHAR
STARTCHAR uni2B1B
ENCODING 11035
SWIDTH 1280 0
DWIDTH 18 0
BBX 16 16 1 -3
BITMAP
3777777777777773
7FFFFFFFFFFFFFF6
7FFFFFFFFFFFFFF6
7FFFFFFFFFFFFFF6
7FFFFFFFFFFFFFF6
7FFFFFFFFFFFFFF6
7FFFFFFFFFFFFFF6
7FFFFFFFFFFFFFF6
7FFFFFFFFFFFFFF6
7FFFFFFFFFFFFFF6
7FFFFFFFFFFFFFF6
7FFFFFFFFFFFFFF6
7FFFFFFFFFFFFFF6
7FFFFFFFFFFFFFF6
7FFFFFFFFFFFFFF6
3666666666666662
ENDCHAR
STARTCHAR uni2B24
ENCODING 11044
SWIDTH 1280 0
DWIDTH 18 0
BBX 16 17 1 -4
BITMAP
0000259AA9520000
0017CFFFFFFC7000
01AEFFFFFFFFE900
08FFFFFFFFFFFE70
3DFFFFFFFFFFFFC2
7FFFFFFFFFFFFFF6
BFFFFFFFFFFFFFF9
CFFFFFFFFFFFFFFB
DFFFFFFFFFFFFFFB
BFFFFFFFFFFFFFFA
8FFFFFFFFFFFFFF6
4EFFFFFFFFFFFFD3
0AFFFFFFFFFFFF80
02BFFFFFFFFFFA10
002AEFFFFFFD9200
000059CDDC840000
0000000100000000
ENDCHAR
STARTCHAR A.salt
ENCODING 57600
SWIDTH 836 0
DWIDTH 12 0
BBX 12 13 0 -2
BITMAP
000022222100
001300000220
039022222120
2E8022960202
5F8026FD0202
7F8024DB0202
7F8020000202
7F8042222302
7F8024980202
7F8026FD0202
7F8004FE0012
7FFFC3FFFF60
3AA9109AA400
ENDCHAR
STARTCHAR Agrave.salt
ENCODING 57601
SWIDTH 836 0
DWIDTH 12 0
BBX 12 16 0 -2
BITMAP
000322221000
005C02101300
01FD20121200
02FFEB977500
009600000120
039022222120
2E8022960202
5F8026FD0202
7F8024DB0202
7F8020000202
7F8042222302
7F8024980202
7F8026FD0202
7F8004FE0012
7FFFC3FFFF60
3AA9109AA400
ENDCHAR
STARTCHAR Aacute.salt
ENCODING 57602
SWIDTH 836 0
DWIDTH 12 0
BBX 12 16 0 -2
BITMAP
000002222200
000620021200
008F02201400
00FF878AC300
00E600000220
039022222120
2E8022960202
5F8026FD0202
7F8024DB0202
7F8020000202
7F8042222302
7F8024980202
7F8026FD0202
7F8004FE0012
7FFFC3FFFF60
3AA9109AA400
ENDCHAR
STARTCHAR Acircumflex.salt
ENCODING 57603
SWIDTH 836 0
DWIDTH 12 0
BBX 12 16 0 -2
BITMAP
000012222000
000612221300
009C00210200
02FE9ABB9500
02F600000120
039022222120
2E8022960202
5F8026FD0202
7F8024DB0202
7F8020000202
7F8042222302
7F8024980202
7F8026FD0202
7F8004FE0012
7FFFC3FFFF60
3AA9109AA400
ENDCHAR
STARTCHAR Atilde.salt
ENCODING 57604
SWIDTH 836 0
DWIDTH 12 0
BBX 12 16 0 -2
BITMAP
000022211200
000710011200
00BC01221200
02FEA9757300
01F600000120
039022222120
2E8022960202
5F8026FD0202
7F8024DB0202
7F8020000202
7F8042222302
7F8024980202
7F8026FD0202
7F8004FE0012
7FFFC3FFFF60
3AA9109AA400
ENDCHAR
STARTCHAR Adieresis.salt
ENCODING 57605
SWIDTH 836 0
DWIDTH 12 0
BBX 12 16 0 -2
BITMAP
000222122200
006710921120
05F710A21020
07FD96A78700
06F600000120
039022222120
2E8022960202
5F8026FD0202
7F8024DB0202
7F8020000202
7F8042222302
7F8024980202
7F8026FD0202
7F8004FE0012
7FFFC3FFFF60
3AA9109AA400
ENDCHAR
STARTCHAR Aring.salt
ENCODING 57606
SWIDTH 836 0
DWIDTH 12 0
BBX 12 16 0 -2
BITMAP
000022222100
000712221200
00AA20A52200
03FB20D62200
04F603222120
04A022222120
1E8022960202
5F8026FD0202
7F8024DB0202
7F8020000202
7F8042222302
7F8024980202
7F8026FD0202
7F8004FE0012
7FFFC3FFFF60
3AA9109AA400
ENDCHAR
STARTCHAR Amacron.salt
ENCODING 57607
SWIDTH 836 0
DWIDTH 12 0
BBX 12 16 0 -2
BITMAP
000011111000
000811111300
00CC02221200
02FF96568400
01E600000120
039022222120
2E8022960202
5F8026FD0202
7F8024DB0202
7F8020000202
7F8042222302
7F8024980202
7F8026FD0202
7F8004FE0012
7FFFC3FFFF60
3AA9109AA400
ENDCHAR
STARTCHAR Abreve.salt
ENCODING 57608
SWIDTH 836 0
DWIDTH 12 0
BBX 12 16 0 -2
BITMAP
000522152300
009B10542200
03FE22221300
02FFE7458100
009600000220
039022222120
2E8022960202
5F8026FD0202
7F8024DB0202
7F8020000202
7F8042222302
7F8024980202
7F8026FD0202
7F8004FE0012
7FFFC3FFFF60
3AA9109AA400
ENDCHAR
STARTCHAR Aogonek.salt
ENCODING 57609
SWIDTH 836 0
DWIDTH 12 0
BBX 12 16 0 -5
BITMAP
000022222100
001300000220
039022222120
2E8022960202
5F8026FD0202
7F8024DB0202
7F8020000202
7F8042222302
7F8024980202
7F8026FD0202
7F8003FC2002
7FFFC3FA2070
3AA913F91202
000005FE7651
000003FFFC20
000000244100
ENDCHAR
STARTCHAR E.salt
ENCODING 57610
SWIDTH 743 0
DWIDTH 10 0
BBX 11 13 0 -2
BITMAP
000012222200
001310000210
029022221110
1E7112677600
6F6205AAA100
8F6222212000
8F6200002000
8F6206DC4000
8F7112542300
7FB022221110
5FF820000210
0CFFFFFFE500
0169AAAA3000
ENDCHAR
STARTCHAR Egrave.salt
ENCODING 57611
SWIDTH 743 0
DWIDTH 10 0
BBX 11 16 0 -2
BITMAP
000322220000
01A612102200
08F810120200
08FFFDB98300
03A710000210
029022221110
1E7112677600
6F6205AAA100
8F6222212000
8F6200002000
8F6206DC4000
8F7112542300
7FB022221110
5FF820000210
0CFFFFFFE500
0169AAAA3000
ENDCHAR
STARTCHAR Eacute.salt
ENCODING 57612
SWIDTH 743 0
DWIDTH 10 0
BBX 11 16 0 -2
BITMAP
000002222200
000610121200
01CA02101300
04FD9ABDB200
04F710000210
029022221110
1E7112677600
6F6205AAA100
8F6222212000
8F6200002000
8F6206DC4000
8F7112542300
7FB022221110
5FF820000210
0CFFFFFFE500
0169AAAA3000
ENDCHAR
STARTCHAR Ecircumflex.salt
ENCODING 57613
SWIDTH 743 0
DWIDTH 10 0
BBX 11 16 0 -2
BITMAP
000022222000
001612221200
02C801300200
06FCBEED9400
06F710000210
039022221110
1E7112677600
6F6205AAA100
8F6222212000
8F6200002000
8F6206DC4000
8F7112542300
7FB022221110
5FF820000210
0CFFFFFFE500
0169AAAA3000
ENDCHAR
STARTCHAR Edieresis.salt
ENCODING 57614
SWIDTH 743 0
DWIDTH 10 0
BBX 11 16 0 -2
BITMAP
000222122200
008510B01200
08F510B01200
09FCA9D98600
08F710000210
029022221110
1E7112677600
6F6205AAA100
8F6222212000
8F6200002000
8F6206DC4000
8F7112542300
7FB022221110
5FF820000210
0CFFFFFFE500
0169AAAA3000
ENDCHAR
STARTCHAR Emacron.salt
ENCODING 57615
SWIDTH 743 0
DWIDTH 10 0
BBX 11 16 0 -2
BITMAP
000011111000
001711111300
01DA02221200
04FEA9888500
03F710000210
029022221110
1E7112677600
6F6205AAA100
8F6222212000
8F6200002000
8F6206DC4000
8F7112542300
7FB022221110
5FF820000210
0CFFFFFFE500
0169AAAA3000
ENDCHAR
STARTCHAR Ebreve.salt
ENCODING 57616
SWIDTH 743 0
DWIDTH 10 0
BBX 11 16 0 -2
BITMAP
000523152200
01B921522200
05FD12221300
04FFE9788200
00A710000210
029022221110
1E7112677600
6F6205AAA100
8F6222212000
8F6200002000
8F6206DC4000
8F7112542300
7FB022221110
5FF820000210
0CFFFFFFE500
0169AAAA3000
ENDCHAR
STARTCHAR Edotaccent.salt
ENCODING 57617
SWIDTH 743 0
DWIDTH 10 0
BBX 11 16 0 -2
BITMAP
000013221000
0002D0102000
000DF0102000
000EFA883200
001710000210
029022221110
1E7112677600
6F6205AAA100
8F6222212000
8F6200002000
8F6206DC4000
8F7112542300
7FB022221110
5FF820000210
0CFFFFFFE500
0169AAAA3000
ENDCHAR
STARTCHAR Eogonek.salt
ENCODING 57618
SWIDTH 743 0
DWIDTH 10 0
BBX 11 16 0 -5
BITMAP
000012222200
001310000210
028022221110
1E7112677500
6F6205AAA100
8F6222212000
8F6200002000
8F6206DC4000
8F7112542300
7FB022222110
5FF820020210
0CFFFF821700
0169CF811110
00007FE76500
00005FFFC100
000002440000
ENDCHAR
STARTCHAR Ecaron.salt
ENCODING 57619
SWIDTH 743 0
DWIDTH 10 0
BBX 11 16 0 -2
BITMAP
000522222300
01B901010200
05FC31212200
04FFFC7B8200
007710000210
029022221110
1E7112677600
6F6205AAA100
8F6222212000
8F6200002000
8F6206DC4000
8F7112542300
7FB022221110
5FF820000210
0CFFFFFFE500
0169AAAA3000
ENDCHAR
STARTCHAR I.salt
ENCODING 57620
SWIDTH 471 0
DWIDTH 7 0
BBX 6 13 0 -2
BITMAP
001222
038002
3E9022
5F9022
5F9022
5F9022
5F9022
5F9022
5F9022
5F9022
5FA002
5FFFE4
2AAA20
ENDCHAR
STARTCHAR Igrave.salt
ENCODING 57621
SWIDTH 471 0
DWIDTH 7 0
BBX 8 16 0 -2
BITMAP
00322100
1C321020
BF402111
CFFDBA60
6D900300
3E902200
5F902200
5F902200
5F902200
5F902200
5F902200
5F902200
5F902200
5FA00200
5FFFE400
2AAA2000
ENDCHAR
STARTCHAR Iacute.salt
ENCODING 57622
SWIDTH 471 0
DWIDTH 7 0
BBX 8 16 0 -2
BITMAP
00122230
05402111
6F310031
BFBACD30
AF900200
3E902200
5F902200
5F902200
5F902200
5F902200
5F902200
5F902200
5F902200
5FA00200
5FFFE400
2AAA2000
ENDCHAR
STARTCHAR Icircumflex.salt
ENCODING 57623
SWIDTH 471 0
DWIDTH 7 0
BBX 7 16 0 -2
BITMAP
00222210
17022130
BA012020
DECEED50
9B900200
3E902200
5F902200
5F902200
5F902200
5F902200
5F902200
5F902200
5F902200
5FA00200
5FFFE400
2AAA2000
ENDCHAR
STARTCHAR Idieresis.salt
ENCODING 57624
SWIDTH 471 0
DWIDTH 7 0
BBX 8 16 0 -2
BITMAP
02221221
6710B012
F710B012
FDA9D992
9C900320
3E902200
5F902200
5F902200
5F902200
5F902200
5F902200
5F902200
5F902200
5FA00200
5FFFE400
2AAA2000
ENDCHAR
STARTCHAR Itilde.salt
ENCODING 57625
SWIDTH 471 0
DWIDTH 7 0
BBX 7 16 0 -2
BITMAP
00222120
16000120
B8022120
CDBB9840
69900200
3E902200
5F902200
5F902200
5F902200
5F902200
5F902200
5F902200
5F902200
5FA00200
5FFFE400
2AAA2000
ENDCHAR
STARTCHAR Imacron.salt
ENCODING 57626
SWIDTH 471 0
DWIDTH 7 0
BBX 7 16 0 -2
BITMAP
00111100
08111130
AF022020
FFA88820
DF900200
3E902200
5F902200
5F902200
5F902200
5F902200
5F902200
5F902200
5F902200
5FA00200
5FFFE400
2AAA2000
ENDCHAR
STARTCHAR Ibreve.salt
ENCODING 57627
SWIDTH 471 0
DWIDTH 7 0
BBX 8 16 -1 -2
BITMAP
00423523
1B921422
5FD12222
4FFD8881
0AF90020
03E90220
05F90220
05F90220
05F90220
05F90220
05F90220
05F90220
05F90220
05FA0020
05FFFE40
02AAA200
ENDCHAR
STARTCHAR Iogonek.salt
ENCODING 57628
SWIDTH 471 0
DWIDTH 7 0
BBX 7 16 0 -5
BITMAP
00122200
02800110
2EB02110
4FB02110
4FB02110
4FB02110
4FB02110
4FB02110
4FB02110
4FB02110
4FA20110
4F721700
6F711200
8FD76500
5FFFB100
02440000
ENDCHAR
STARTCHAR Idotaccent.salt
ENCODING 57629
SWIDTH 471 0
DWIDTH 7 0
BBX 6 16 0 -2
BITMAP
003222
079012
5F9012
5FE886
4F9002
3E9022
5F9022
5F9022
5F9022
5F9022
5F9022
5F9022
5F9022
5FA002
5FFFE4
2AAA20
ENDCHAR
STARTCHAR L.salt
ENCODING 57630
SWIDTH 715 0
DWIDTH 10 0
BBX 10 13 0 -2
BITMAP
0012210000
0370020000
3E90220000
6F90220000
6F90220000
6F90220000
6F90220000
6F90220000
6F90212223
6F90322212
6F90000003
6FFFFFFFE4
2AAAAAAA20
ENDCHAR
STARTCHAR Lacute.salt
ENCODING 57631
SWIDTH 715 0
DWIDTH 10 0
BBX 10 16 0 -2
BITMAP
0001222220
0161012020
2D90210130
6FD8ACE900
5F90035000
3F90220000
6F90220000
6F90220000
6F90220000
6F90220000
6F90220000
6F90212223
6F90322212
6F90000003
6FFFFFFFE4
2AAAAAAA20
ENDCHAR
STARTCHAR Lcommaaccent.salt
ENCODING 57632
SWIDTH 715 0
DWIDTH 10 0
BBX 10 18 0 -7
BITMAP
0012210000
0370020000
3E90220000
6F90220000
6F90220000
6F90220000
6F90220000
6F90220000
6F90212223
6F90322212
6F90000003
6FFFE99BE4
2AAEA12220
003FA00310
004FE84300
003ED13300
001EFE9000
001BB60000
ENDCHAR
STARTCHAR Lcaron.salt
ENCODING 57633
SWIDTH 715 0
DWIDTH 10 0
BBX 11 13 0 -2
BITMAP
001221022200
037002640020
3E9024F12110
6F9024E01200
6F9024E55300
6F9024FF7000
6F9023530000
6F9022000000
6F9021222300
6F9032221200
6F9000000300
6FFFFFFFE400
2AAAAAAA2000
ENDCHAR
STARTCHAR Ldot.salt
ENCODING 57634
SWIDTH 715 0
DWIDTH 10 0
BBX 11 13 0 -2
BITMAP
001221000000
037002000000
3E9022000000
6F9022222210
6F9023C01020
6F9024D01020
6F9024FA9710
6F9024FFA100
6F9021332300
6F9032221200
6F9000000300
6FFFFFFFE400
2AAAAAAA2000
ENDCHAR
STARTCHAR Lslash.salt
ENCODING 57635
SWIDTH 725 0
DWIDTH 10 0
BBX 12 13 -1 -2
BITMAP
000122200000
002800200000
01EB02200000
04FB02231000
04F602002000
06D024202000
1FE002171000
1FFB02210000
0AFB02022231
04FB03222102
04FC00000011
04FFFFFFFF50
01AAAAAAA300
ENDCHAR
STARTCHAR M.salt
ENCODING 57636
SWIDTH 1170 0
DWIDTH 16 0
BBX 16 13 0 -2
BITMAP
0000222211222210
0023000012000022
0490222232222202
2E80218313183122
5F8025F8025F8022
7F8025F8025F8022
7F8025F8025F8022
7F8025F8025F8022
7F8025F8025F8022
7F8025F8025F8022
7F8006F9006F9003
7FFFD8FFFD8FFFD3
3AA913AA913AA910
ENDCHAR
STARTCHAR N.salt
ENCODING 57637
SWIDTH 846 0
DWIDTH 12 0
BBX 12 13 0 -2
BITMAP
000022222100
001300000130
039022222111
1E8021860202
5F8025FE0202
7F8023FE0202
7F8022FE0202
7F8022FE0202
7F8022FE0202
7F8022FE0202
7F8003FF1002
7FFFD2FFFF80
3AA9109AA500
ENDCHAR
STARTCHAR Ntilde.salt
ENCODING 57638
SWIDTH 846 0
DWIDTH 12 0
BBX 12 16 0 -2
BITMAP
000022211200
000710011200
00AD01221200
01FFA9756400
00F700000120
039022222111
1E8021860202
5F8025FE0202
7F8023FE0202
7F8022FE0202
7F8022FE0202
7F8022FE0202
7F8022FE0202
7F8003FF1002
7FFFD2FFFF80
3AA9109AA500
ENDCHAR
STARTCHAR Nacute.salt
ENCODING 57639
SWIDTH 846 0
DWIDTH 12 0
BBX 12 16 0 -2
BITMAP
000001222300
000530021200
007F01200300
00EF978AC400
00D700000120
039022222111
1E8021860202
5F8025FE0202
7F8023FE0202
7F8022FE0202
7F8022FE0202
7F8022FE0202
7F8022FE0202
7F8003FF1002
7FFFD2FFFF80
3AA9109AA500
ENDCHAR
STARTCHAR Ncommaaccent.salt
ENCODING 57640
SWIDTH 846 0
DWIDTH 12 0
BBX 12 18 0 -7
BITMAP
000022222100
001300000130
039022222111
1E8021860202
5F8025FE0202
7F8023FE0202
7F8022FE0202
7F8022FE0202
7F8022FE0202
7F8022FE0202
7F8003FF1002
7FFFD599DF80
3AAAD3216500
000AF3022000
000BFB722000
0009F6232000
0007FFD40000
0005B9200000
ENDCHAR
STARTCHAR Ncaron.salt
ENCODING 57641
SWIDTH 846 0
DWIDTH 12 0
BBX 12 16 0 -2
BITMAP
000522222300
008D02001200
01FF51221300
00FFEA57A100
005700000120
039022222112
1E8021860202
5F8025FE0202
7F8023FE0202
7F8022FE0202
7F8022FE0202
7F8022FE0202
7F8022FE0202
7F8003FF1002
7FFFD2FFFF80
3AA9109AA500
ENDCHAR
STARTCHAR W.salt
ENCODING 57642
SWIDTH 1170 0
DWIDTH 16 0
BBX 16 13 0 -2
BITMAP
0012210122101221
0370023700237002
4F8204E8024E8022
7F8205F8025F8022
7F8205F8025F8022
7F8205F8025F8022
7F8205F8025F8022
7F8205F8025F8022
7F81117213172022
6FB0222222222302
5FF7000034000031
1DFFEDCEFFECCB10
019CDC95ADDB7100
ENDCHAR
STARTCHAR Wcircumflex.salt
ENCODING 57643
SWIDTH 1170 0
DWIDTH 16 0
BBX 16 16 0 -2
BITMAP
0000000222210000
0000033122121000
00005F2022002000
0012BFACEED82221
037005C800447002
4F8204E8024E8022
7F8205F8025F8022
7F8205F8025F8022
7F8205F8025F8022
7F8205F8025F8022
7F8205F8025F8022
7F81117213172022
6FB0222222222302
5FF7000034000031
1DFFEDCEFFECCB10
019CDC95ADDB7100
ENDCHAR
STARTCHAR Wgrave.salt
ENCODING 57644
SWIDTH 1170 0
DWIDTH 16 0
BBX 16 16 0 -2
BITMAP
0000023222100000
00003E0120130000
0000DF3002120000
0012DFFFCA961221
037005D800337002
4F8204E8024E8022
7F8205F8025F8022
7F8205F8025F8022
7F8205F8025F8022
7F8205F8025F8022
7F8205F8025F8022
7F81117213172022
6FB0222222222302
5FF7000034000031
1DFFEDCEFFECCB10
019CDC95ADDB7100
ENDCHAR
STARTCHAR Wacute.salt
ENCODING 57645
SWIDTH 1170 0
DWIDTH 16 0
BBX 16 16 0 -2
BITMAP
0000000122221000
0000035101202000
00004E4121022000
0012AFB9ACE51221
037006F800237002
4F8204E8024E8022
7F8205F8025F8022
7F8205F8025F8022
7F8205F8025F8022
7F8205F8025F8022
7F8205F8025F8022
7F81117213172022
6FB0222222222302
5FF7000034000031
1DFFEDCEFFECCB10
019CDC95ADDB7100
ENDCHAR
STARTCHAR Wdieresis.salt
ENCODING 57646
SWIDTH 1170 0
DWIDTH 16 0
BBX 16 16 0 -2
BITMAP
0000012222221000
00003B0147102000
0001EC0157102000
0014EEAABC983221
037006F800457002
4F8204F8024E8022
7F8205F8025F8022
7F8205F8025F8022
7F8205F8025F8022
7F8205F8025F8022
7F8205F8025F8022
7F81117213172022
6FB0222222222302
5FF7000034000031
1DFFEDCEFFECCB10
019CDC95ADDB7100
ENDCHAR
STARTCHAR X.salt
ENCODING 57647
SWIDTH 837 0
DWIDTH 12 0
BBX 12 13 0 -2
BITMAP
001222002220
02A002270020
1EF120D71020
1FF520A42020
0BF802512020
07B003112021
0B7031112202
6F7023B90202
7F7026FE0202
8F7013FE0202
8F8003FE0002
8FFFD2FFFF70
4AA9109AA400
ENDCHAR
STARTCHAR Y.salt
ENCODING 57648
SWIDTH 806 0
DWIDTH 11 0
BBX 11 13 0 -2
BITMAP
002221012210
064002280020
7F4204EA0220
AF4206FA0220
AF4206FA0220
AF4202630220
AF8032222020
8FE610200320
2EFFD0209200
029FE0202000
000FE0002000
000FFFF80000
0009AA500000
ENDCHAR
STARTCHAR Yacute.salt
ENCODING 57649
SWIDTH 806 0
DWIDTH 11 0
BBX 11 16 0 -2
BITMAP
000002222200
000620121200
00BB02101300
03FD8ACEC310
064007BB0020
7F4204EA0220
AF4206FA0220
AF4206FA0220
AF4202630220
AF8032222020
8FE610200320
2EFFD0209200
029FE0202000
000FE0002000
000FFFF80000
0009AA500000
ENDCHAR
STARTCHAR Ycircumflex.salt
ENCODING 57650
SWIDTH 806 0
DWIDTH 11 0
BBX 11 16 0 -2
BITMAP
000022222000
000612221300
01C900310200
05FC9EFEA510
074007EB0020
7F4204EA0220
AF4206FA0220
AF4206FA0220
AF4202630220
AF8032222020
8FE610200320
2EFFD0209200
029FE0202000
000FE0002000
000FFFF80000
0009AA500000
ENDCHAR
STARTCHAR Ydieresis.salt
ENCODING 57651
SWIDTH 806 0
DWIDTH 11 0
BBX 11 16 0 -2
BITMAP
000222122200
009410B01200
08F410C01200
0AFB9AFA9610
0B4009FB0020
7F4204EA0220
AF4206FA0220
AF4206FA0220
AF4202630220
AF8032222020
8FE610200320
2EFFD0209200
029FE0202000
000FE0002000
000FFFF80000
0009AA500000
ENDCHAR
STARTCHAR Ygrave.salt
ENCODING 57652
SWIDTH 806 0
DWIDTH 11 0
BBX 11 16 0 -2
BITMAP
000322220000
009712101200
06F910120200
07FEEECB8410
084009FB0020
7F4204EA0220
AF4206FA0220
AF4206FA0220
AF4202630220
AF8032222020
8FE610200320
2EFFD0209200
029FE0202000
000FE0002000
000FFFF80000
0009AA500000
ENDCHAR
STARTCHAR AE.salt
ENCODING 57653
SWIDTH 1113 0
DWIDTH 16 0
BBX 16 13 0 -2
BITMAP
0000022222222220
0003200000000002
0180222223222202
1D80217702067761
5F8026FD0209AA20
6F8024DB03221020
7F80200002000110
7F804222230CD600
7F80249802055221
7F8016FD02222202
7F8004FE00000002
7FFFC3FFFFFFFF70
3AA9109AAAAAA500
ENDCHAR
STARTCHAR IJ.salt
ENCODING 57654
SWIDTH 1133 0
DWIDTH 16 0
BBX 16 13 0 -2
BITMAP
0012220000002220
0380020000090002
3E90220000BF0202
5F90220000FF0202
5F90220000FF0202
5F90221322FF0202
5F9022D000EF0202
5F9023F020EE0202
5F9023F120550202
5F9023F312222111
5FA003FC30000230
5FFFEAFFFECCD500
2AAA206BCDC92000
ENDCHAR
STARTCHAR IJ.stack
ENCODING 57655
SWIDTH 1363 0
DWIDTH 19 0
BBX 19 13 0 -2
BITMAP
00122222200000022210
05500000020000730020
5F512322020008F32020
9FA6120362000BF32020
9FFF420740000BF32020
14CF420200322CF32020
00BF42021B400BF32020
00BF4202AF420BF32020
017512014D4203602020
2D5123220A7032222020
9F6000000BE500001300
9FFFFFFFBFFFEDCD7000
4AAAAAA704ACDCA40000
ENDCHAR
STARTCHAR quoteleft.salt
ENCODING 57656
SWIDTH 407 0
DWIDTH 6 0
BBX 6 7 0 4
BITMAP
000220
005212
1C6461
7F6312
9F9442
9FFE40
255200
ENDCHAR
STARTCHAR quoteright.salt
ENCODING 57657
SWIDTH 407 0
DWIDTH 6 0
BBX 6 7 0 4
BITMAP
001220
065102
6F6132
8FB522
6FA740
6FF800
153000
ENDCHAR
STARTCHAR ampersand.salt
ENCODING 57658
SWIDTH 732 0
DWIDTH 10 0
BBX 10 15 0 -3
BITMAP
0000032210
0001B20031
0007202002
00A3122212
09F1205775
0DF4208A90
0DD4242120
0A51200020
5F2209DC30
BF22035423
CF41223212
BFD4102003
5FFFF200B3
049EFCB820
000AEE9000
ENDCHAR
STARTCHAR caron.2
ENCODING 57659
SWIDTH 600 0
DWIDTH 8 0
BBX 6 7 1 4
BITMAP
000221
018002
1D9112
4F6102
7F9551
9FFD20
255100
ENDCHAR
STARTCHAR indexup
ENCODING 57660
SWIDTH 1100 0
DWIDTH 15 0
BBX 10 13 3 -2
BITMAP
0002000000
0190200000
0DC0200000
2FB0432000
3FA0222220
4F90011020
5FA0000020
5FD0000020
3FF1000020
0F32222222
9F10000002
EFFFFFFF90
8AAAAAA600
ENDCHAR
STARTCHAR indexdown
ENCODING 57661
SWIDTH 1100 0
DWIDTH 15 0
BBX 10 13 3 -2
BITMAP
0022222220
1A10000002
BF42222242
EFF0000050
5EC0000020
1FA0000020
3F90111020
5FA0233520
5FB09DE400
4FC0962000
3FD1200000
2FF9000000
0960000000
ENDCHAR
STARTCHAR indexupleft
ENCODING 57662
SWIDTH 1100 0
DWIDTH 15 0
BBX 12 14 2 -3
BITMAP
002210000000
05D212000000
2FFD21200000
08FD31120000
00C710011000
05B210002320
0E6100003011
9FE400030030
4FFE30300300
05FFE6003000
006EF2030000
000BFC300000
000AF6000000
000020000000
ENDCHAR
STARTCHAR indexupright
ENCODING 57663
SWIDTH 1100 0
DWIDTH 15 0
BBX 12 14 2 -3
BITMAP
000000001220
000000022020
000000220300
000004103300
000074001310
002490001140
044030000111
4EC103000120
8FFC10301200
09FFC1043000
009FFC102000
0009FFC30000
00009F600000
000002000000
ENDCHAR
STARTCHAR indexdownleft
ENCODING 57664
SWIDTH 1100 0
DWIDTH 15 0
BBX 14 11 1 -1
BITMAP
00000001300000
00000034030000
000004F9103000
00000960310300
00003100031030
00063000003102
00640200002C30
0460A32101C600
3E5BFF83123000
DF67EFFB200000
43002AC2000000
ENDCHAR
STARTCHAR indexdownright
ENCODING 57665
SWIDTH 1100 0
DWIDTH 15 0
BBX 14 11 1 -1
BITMAP
00000022000000
00000511100000
00006104100000
00061030220000
00610300013000
0A203000001200
9FCA5000021120
9FEFE30123A221
035FFE427EFD31
0006FFF848FD30
00005E70006200
ENDCHAR
STARTCHAR indexdownleft.outline
ENCODING 57666
SWIDTH 1100 0
DWIDTH 15 0
BBX 13 10 2 0
BITMAP
00000017000000
00000069900000
00000072990000
00002514299000
00034000429900
00240000042A40
01515100036500
06175420340000
16501563400000
00000033000000
ENDCHAR
STARTCHAR indexdownright.outline
ENCODING 57667
SWIDTH 1100 0
DWIDTH 15 0
BBX 13 10 2 0
BITMAP
00000530000000
00006C51000000
0006C181000000
006C2505300000
06C25000240000
1C260000024000
04550001333300
00034033673420
00002536203530
00000240000000
ENDCHAR
STARTCHAR indexupleft.outline
ENCODING 57668
SWIDTH 1100 0
DWIDTH 15 0
BBX 10 12 4 -1
BITMAP
2520000000
3343000000
0333400000
0353240000
1640032000
5410005430
52000052B1
2400052A80
024052A800
00282A8000
0015A80000
0005700000
ENDCHAR
STARTCHAR indexupright.outline
ENCODING 57669
SWIDTH 1100 0
DWIDTH 15 0
BBX 10 12 4 -1
BITMAP
0000001530
0000025240
0000342500
0003316500
0015002620
2560001370
B260000241
5C26000330
05C2602400
005C273000
0005C34000
0000570000
ENDCHAR
STARTCHAR uni261A.salt
ENCODING 57670
SWIDTH 1100 0
DWIDTH 15 0
BBX 13 10 1 -1
BITMAP
00002222203220
02520000037020
3EB76521002020
8FFFFF02002020
1344FF13003020
0000EFD5059020
00009FF33FD730
000009F86FF500
00000CE3021000
00000120000000
ENDCHAR
STARTCHAR uni261B.salt
ENCODING 57671
SWIDTH 1100 0
DWIDTH 15 0
BBX 13 10 1 -1
BITMAP
00322022222000
07B03200000230
3FB02000256650
3FB020020CFA00
3FB02003043000
3FB06803500000
3FD8BF61100000
3FF8DFE5100000
02204FB1000000
00000300000000
ENDCHAR
STARTCHAR indexdown.salt
ENCODING 57672
SWIDTH 1100 0
DWIDTH 15 0
BBX 10 13 3 -2
BITMAP
0002222220
0083000002
09F6322232
0BFF600050
0496000020
0530231002
6FCE602002
ACDFE9A120
004FFFF120
00011DF220
00000DF320
00000CFC10
0000078000
ENDCHAR
STARTCHAR indexdownleft.salt
ENCODING 57673
SWIDTH 1100 0
DWIDTH 15 0
BBX 13 11 1 -1
BITMAP
00000000210000
00000004121000
0000008E202100
00000482210210
00004200021030
00065000008230
0049023310A700
01B03E70403000
0B82DFFEF42000
7FC12B9DFD3000
39100006A20000
ENDCHAR
STARTCHAR indexdownright.salt
ENCODING 57674
SWIDTH 1100 0
DWIDTH 15 0
BBX 13 11 1 -1
BITMAP
00000020000000
00001402000000
00016013000000
00160131220000
01701300012000
1CC29000002100
7FFFE013220200
084FC0404E5030
001FA1EBEFF720
004FFA903EFC20
003B4000039100
ENDCHAR
STARTCHAR indexup.salt
ENCODING 57675
SWIDTH 1100 0
DWIDTH 15 0
BBX 10 13 3 -2
BITMAP
0012000000
0290200000
1E90200000
4F70200000
6F50422000
8F30301320
AF30032012
CF80000330
9FE1002200
3F32222220
9F20000120
DFFFFFF700
8AAAAA5000
ENDCHAR
STARTCHAR indexupleft.salt
ENCODING 57676
SWIDTH 1100 0
DWIDTH 15 0
BBX 11 13 2 -2
BITMAP
001200000000
028031000000
2EF602100000
2EFF50120000
03EF72011000
006902002100
02E921003230
07D610021030
088245310310
6FFFFD202100
3965CC121000
0004FF910000
000098000000
ENDCHAR
STARTCHAR indexupright.salt
ENCODING 57677
SWIDTH 1100 0
DWIDTH 15 0
BBX 11 13 2 -2
BITMAP
000000000210
000000003120
000000130210
000002201100
000054013100
0005E0020200
003260004200
08A002000320
6FFA00345230
1CFFA00BFE30
01CFF9059200
001CFF600000
0001B6000000
ENDCHAR
STARTCHAR uni261C.salt
ENCODING 57678
SWIDTH 1100 0
DWIDTH 15 0
BBX 11 8 3 1
BITMAP
002444403650
543100147490
444552004490
000225004490
000145006490
000037056490
000004423650
000005400000
ENDCHAR
STARTCHAR uni261D.salt
ENCODING 57679
SWIDTH 1100 0
DWIDTH 15 0
BBX 9 12 4 -1
BITMAP
0030000000
0432000000
0413000000
0414000000
0408430000
0405044500
0402541330
0500004300
0320052000
1644446100
1CBBBBC200
0122221000
ENDCHAR
STARTCHAR uni261E.salt
ENCODING 57680
SWIDTH 1100 0
DWIDTH 15 0
BBX 11 8 3 1
BITMAP
374034442000
675510002460
674001454450
674005040000
675005140000
675606400000
374052200000
000025100000
ENDCHAR
STARTCHAR uni261F.salt
ENCODING 57681
SWIDTH 1100 0
DWIDTH 15 0
BBX 8 12 5 -1
BITMAP
02333330
0AAAAAA5
06544553
01500050
25000040
51554013
43503223
00245341
00000440
00000440
00000650
00000110
ENDCHAR
ENDFONT
